<svg width="232" height="68" viewBox="0 0 232 68" fill="none" xmlns="http://www.w3.org/2000/svg">
<g clip-path="url(#clip0_6673_8776)">
<path d="M8.32138 31.611L15.449 33.4604L20.4438 30.2746L9.67127 22.526C0.498492 28.6479 1.33546 36.9365 11.6894 41.0403C27.7266 47.3985 51.4382 23.093 64.951 36.9972L58.2215 35.6541L54.1853 39.6903L61.3129 46.9395C69.7432 46.7573 74.4815 38.9817 68.2178 32.4615C53.3618 16.998 22.4552 50.9151 8.33488 31.6111L8.32138 31.611Z" fill="#FEF2EA"/>
<path d="M134.455 30.8996C137.756 38.79 140.752 26.7081 144.532 32.9178C125.829 50.3657 98.1148 12.5271 81.5174 36.9946L89.2323 47.4363L98.6683 41.0241L94.0043 36.2521L88.5776 39.006C88.0781 29.3135 100.558 32.6546 106.106 33.829C119.356 36.6436 141.664 50.8246 149.527 33.5928L141.853 22.5435C138.424 23.583 132.552 26.3503 134.455 30.8996Z" fill="#FEF2EA"/>
<path d="M218.089 32.9323C221.889 34.316 222.679 34.6332 222.092 38.9598L216.672 36.2126C206.98 39.817 218.326 48.0583 221.424 47.3361C229.334 45.4867 231.116 36.7796 223.509 31.0222C212.804 22.9091 194.655 35.3082 182.984 37.1374C177.348 38.0216 167.069 39.9587 168.162 30.8872L173.582 33.6343L178.253 28.8555L168.837 22.4366C158.207 28.68 159.833 37.1374 170.855 41.6124C181.216 45.8174 205.92 28.4978 218.083 32.9256L218.089 32.9323Z" fill="#FEF2EA"/>
</g>
<defs>
<clipPath id="clip0_6673_8776">
<rect width="231.955" height="42" fill="white" transform="translate(0.0227051 13)"/>
</clipPath>
</defs>
</svg>
