<svg width="41" height="41" viewBox="0 0 41 41" fill="none" xmlns="http://www.w3.org/2000/svg">
<path d="M19.9995 0.132747C23.4344 0.132747 26.6671 0.998118 29.4908 2.5232C35.7483 5.90266 39.9989 12.5206 39.9989 20.131C39.9989 31.1324 31.1164 40.0588 20.1323 40.1304C20.0884 40.1304 20.0445 40.1316 20.0006 40.1316C19.9567 40.1316 19.914 40.1316 19.8701 40.1304C8.88368 40.0611 5.57993e-05 31.1336 5.57997e-05 20.131C5.58e-05 9.0857 8.95416 0.131592 19.9995 0.131592L19.9995 0.132747ZM9.79065 4.97721C8.82822 5.62768 7.92126 6.37636 7.08131 7.21515C4.56376 9.7327 2.86999 12.8557 2.13864 16.2571C2.20219 16.301 2.27035 16.3403 2.34199 16.3738C2.75214 16.5713 3.33445 16.6314 4.17093 16.3252C4.10739 15.8388 4.4852 15.2796 5.1114 14.9942C5.83698 14.6627 6.62032 14.8221 6.86063 15.3501C7.1021 15.8781 6.70928 16.5748 5.98486 16.9064C5.41296 17.1675 4.80523 17.1236 4.45516 16.8347C3.80584 17.0855 3.2478 17.1571 2.77178 17.0947C3.42688 17.5719 4.34655 17.9797 5.64056 18.1727C5.96753 17.7313 6.70235 17.5707 7.43138 17.818C8.28058 18.1068 8.79818 18.8416 8.58791 19.4586C8.37763 20.0767 7.51919 20.3436 6.67115 20.0548C5.96407 19.8144 5.48574 19.2633 5.46841 18.7296C4.97738 18.6521 4.53372 18.5447 4.13281 18.4118C4.98778 19.1397 6.13968 20.5989 7.1229 23.5105C7.11135 23.5047 3.04098 21.4135 2.88385 17.8538C2.68513 17.7371 2.50374 17.6146 2.33505 17.4864C2.20334 17.3859 2.08087 17.2819 1.96765 17.1767C1.81052 18.1449 1.7308 19.1339 1.7308 20.1333C1.7308 25.0124 3.63138 29.6004 7.08246 33.0515C8.71615 34.6852 10.6052 35.9711 12.6583 36.8723C12.3313 36.5384 12.0182 36.1814 11.719 35.8013C9.63236 33.1439 8.48392 29.6339 8.48392 25.9183C8.48392 24.0223 8.78085 22.1829 9.36547 20.4476C9.41168 20.3113 9.45559 20.1876 9.49949 20.0686L9.68897 19.5556L9.67049 19.6238L10.4608 20.4718C10.6329 20.6567 10.8131 20.8358 11.0015 21.0114C10.4943 22.5157 10.2147 24.1748 10.2147 25.9159C10.2147 28.9777 11.0812 31.7806 12.5185 33.9504C11.6566 31.9077 11.1574 29.4872 11.1574 26.8922C11.1574 25.039 11.4116 23.2748 11.8703 21.6746C11.905 21.5544 11.9408 21.4354 11.9778 21.3176C12.3706 21.6908 12.8142 22.0339 13.3007 22.3459C15.0788 23.4827 17.4265 24.1748 20.0006 24.1748C22.5748 24.1748 24.9225 23.4839 26.7006 22.3459C27.1859 22.0339 27.6307 21.6908 28.0224 21.3176C28.0593 21.4354 28.0951 21.5533 28.1298 21.6734C28.5885 23.2736 28.8427 25.0379 28.8427 26.8911C28.8427 29.4837 28.3447 31.9008 27.4851 33.9411C28.9189 31.7725 29.782 28.973 29.782 25.9159C29.782 24.176 29.5024 22.5192 28.9975 21.016C29.1858 20.8416 29.3672 20.6613 29.5394 20.4765L30.3308 19.6296L30.3135 19.5683L30.4983 20.0698C30.5434 20.1946 30.5896 20.3217 30.6335 20.4522C31.2158 22.1829 31.5127 24.0223 31.5127 25.9183C31.5127 29.6339 30.3631 33.1439 28.2777 35.8013C27.9796 36.1814 27.6653 36.5384 27.3384 36.8723C29.3926 35.9711 31.2816 34.684 32.9165 33.0503C36.3676 29.5993 38.2682 25.0113 38.2682 20.1322C38.2682 19.1316 38.1884 18.1438 38.0313 17.1756C37.9181 17.2807 37.7956 17.3847 37.6639 17.4852C37.4964 17.6135 37.3138 17.7371 37.1151 17.8526C36.958 21.4112 32.8888 23.5024 32.8761 23.5093C33.8593 20.5978 35.01 19.1374 35.8661 18.4107C35.4652 18.5424 35.0204 18.651 34.5294 18.7284C34.5144 19.2645 34.036 19.8179 33.3267 20.0582C32.4775 20.3471 31.619 20.0802 31.4099 19.4621C31.1996 18.8439 31.7184 18.1091 32.5664 17.8214C33.292 17.5742 34.0256 17.7348 34.3538 18.1715C35.6501 17.9797 36.5709 17.5707 37.226 17.0924C36.7489 17.1548 36.1908 17.0832 35.5415 16.8324C35.1914 17.1213 34.5837 17.164 34.0129 16.9029C33.2874 16.5713 32.8957 15.8746 33.1372 15.3466C33.3786 14.8186 34.162 14.6592 34.8876 14.9908C35.5138 15.2773 35.8916 15.8354 35.8269 16.3229C36.6634 16.6302 37.2468 16.5702 37.6558 16.3726C37.7274 16.3379 37.7945 16.2987 37.8592 16.2548C37.1278 12.8545 35.4364 9.73155 32.9177 7.21284C32.0777 6.37289 31.1707 5.62537 30.2095 4.9749C30.4371 6.34054 30.466 8.11865 29.7219 9.89445C30.481 11.1122 30.9177 12.5021 30.9177 13.9914C30.9177 16.0757 30.0593 17.9739 28.6543 19.4736C28.2222 19.9358 27.7358 20.3609 27.209 20.7434C25.276 22.1402 22.7481 22.9732 20.0018 22.9732C17.2555 22.9732 14.7275 22.1402 12.7946 20.7445C12.2654 20.3621 11.7779 19.9358 11.3446 19.4713C9.942 17.9728 9.08356 16.0757 9.08356 13.9925C9.08356 12.5033 9.52029 11.1134 10.2794 9.89561C9.53531 8.12096 9.56304 6.3417 9.7918 4.97605L9.79065 4.97721ZM22.1057 33.3554C21.1884 34.0775 20.0203 34.3467 18.9238 33.9388C18.5703 33.8106 18.2329 33.6165 17.8921 33.3646C18.6015 35.1496 21.4009 35.1439 22.1057 33.3554ZM23.9809 29.4745L21.8839 29.4745L21.8839 29.5299L21.9844 29.5981L21.9844 31.5622L21.937 31.6385L21.937 31.6766L23.9867 31.6766L24.0629 31.7344L24.0987 31.7344L24.0987 31.2006L24.0629 31.2006L23.9867 31.2792L22.4177 31.2792L22.4177 30.7708L23.4875 30.7708L23.5418 30.8343L23.5788 30.8343L23.5788 30.3052L23.5465 30.3052L23.4875 30.3664L22.4154 30.3664L22.4154 29.9008L23.9705 29.9008L24.0236 29.9586L24.0594 29.9586L24.0594 29.4248L24.0202 29.4248L23.9809 29.4779L23.9809 29.4745ZM19.9544 29.4652C19.6171 29.4652 19.3247 29.5634 19.0763 29.7622C18.8141 29.9713 18.6835 30.2197 18.6835 30.5432C18.6835 30.8667 18.8025 31.144 19.0417 31.3727C19.2808 31.6015 19.5627 31.7159 19.892 31.7159C20.2456 31.7159 20.5506 31.6084 20.8082 31.3924C21.0774 31.1659 21.2126 30.8875 21.2126 30.5571C21.2126 30.2428 21.0832 29.9817 20.8256 29.7691C20.5795 29.5681 20.2906 29.4664 19.9556 29.4664L19.9544 29.4652ZM16.4791 29.5426L16.5184 29.5889L15.4335 31.5761L15.3306 31.6547L15.3306 31.6916L15.9684 31.6916L15.9684 31.6547L15.8991 31.6108L16.1151 31.2098L17.4831 31.2098L17.6876 31.5911L17.624 31.6523L17.624 31.6893L18.2872 31.6893L18.2872 31.6523L18.211 31.5911L17.0533 29.5877L17.096 29.5415L17.096 29.486L16.4779 29.486L16.4779 29.5415L16.4791 29.5426ZM19.9614 29.8696C20.1624 29.8696 20.3368 29.9343 20.4847 30.0637C20.6384 30.1966 20.7158 30.3606 20.7158 30.5513C20.7158 30.765 20.6372 30.943 20.4778 31.0851C20.323 31.2237 20.1381 31.293 19.9221 31.293L19.9209 31.293C19.7164 31.293 19.5408 31.2225 19.3975 31.0839C19.2531 30.9453 19.1803 30.7777 19.1803 30.5779C19.1803 30.378 19.2589 30.2081 19.4172 30.0695C19.5708 29.9366 19.7615 29.8696 19.9614 29.8696ZM19.9533 30.3572C19.8874 30.3572 19.8227 30.3791 19.7719 30.423C19.7199 30.4692 19.6933 30.5247 19.6933 30.5917C19.6933 30.6587 19.7176 30.7142 19.7649 30.7604C19.8135 30.8066 19.8712 30.8297 19.9382 30.8297C20.0099 30.8297 20.0711 30.8066 20.1231 30.7604C20.1762 30.713 20.2017 30.6541 20.2017 30.5836C20.2017 30.5201 20.1763 30.4658 20.1254 30.4219C20.0757 30.3791 20.018 30.3572 19.9521 30.3572L19.9533 30.3572ZM17.2416 30.8251L16.3231 30.8251L16.7795 30.0094L17.2416 30.8251ZM16.9204 26.5352C16.0031 27.2573 14.835 27.5265 13.7385 27.1187C13.385 26.9904 13.0476 26.7963 12.7068 26.5445C13.4162 28.3295 16.2156 28.3237 16.9193 26.5352L16.9204 26.5352ZM22.1057 26.5352C21.1884 27.2573 20.0203 27.5265 18.9238 27.1187C18.5703 26.9904 18.2329 26.7963 17.8921 26.5445C18.6015 28.3295 21.4009 28.3237 22.1057 26.5352ZM27.2922 26.5352C26.3748 27.2573 25.2067 27.5265 24.1103 27.1187C23.7567 26.9904 23.4194 26.7963 23.0785 26.5445C23.7879 28.3295 26.5874 28.3237 27.2922 26.5352ZM21.4703 18.4107C21.4356 19.3188 20.0018 20.6694 20.0006 20.6706C19.9972 20.6671 18.5657 19.3199 18.5299 18.4118C17.683 19.4054 16.5623 20.0698 15.3272 20.2338C16.6905 20.8728 18.2861 21.2448 20.0006 21.2448C21.7152 21.2448 23.3108 20.8728 24.6741 20.2338C23.439 20.0698 22.3183 19.4054 21.4703 18.4107ZM26.6059 10.4282C25.841 9.76159 24.8543 9.38031 23.7937 9.42999C22.8752 9.47274 22.0422 9.83437 21.3825 10.4074C20.7331 10.9713 20.2514 11.7407 20.0214 12.6211C20.0145 12.6442 20.0076 12.6685 20.0018 12.6916C19.996 12.6685 19.9891 12.6442 19.9821 12.6211C19.7511 11.7419 19.2704 10.9724 18.6211 10.4074C17.9614 9.83437 17.1284 9.47274 16.2087 9.42999C15.1481 9.38031 14.1602 9.76159 13.3965 10.4294L14.4884 11.5212C14.9702 11.1584 15.5698 10.9435 16.2203 10.9435C17.8124 10.9435 19.1029 12.2341 19.1029 13.8262C19.1029 15.4183 17.8124 16.7088 16.2203 16.7088C15.7766 16.7088 15.3561 16.6083 14.9806 16.4292L14.0921 17.7718C14.6039 18.0525 15.1804 18.2235 15.7951 18.2524C17.7407 18.3448 19.438 16.9838 19.9671 15.0717C19.9787 15.0266 19.9902 14.9815 20.0018 14.9365C20.0122 14.9815 20.0237 15.0266 20.0364 15.0717C20.5656 16.9849 22.264 18.3448 24.2085 18.2524C24.822 18.2235 25.3985 18.0537 25.9103 17.7729L25.0219 16.4304C24.6464 16.6095 24.227 16.71 23.7833 16.71C22.1912 16.71 20.9007 15.4194 20.9007 13.8273C20.9007 12.2352 22.1912 10.9447 23.7833 10.9447C24.4326 10.9447 25.0334 11.1596 25.5152 11.5224L26.607 10.4305L26.6059 10.4282ZM25.8468 15.8354C25.7983 15.8862 25.7463 15.9347 25.6943 15.9809L26.5758 17.3131C26.7711 17.1479 26.9525 16.9642 27.1165 16.7654L25.8468 15.8354ZM12.8836 16.7654C13.0476 16.9653 13.229 17.1479 13.4243 17.3131L14.3058 15.9809C14.2538 15.9347 14.203 15.8862 14.1533 15.8365L12.8836 16.7654ZM16.218 11.5189C14.9447 11.5189 13.913 12.5506 13.913 13.8239C13.913 15.0971 14.9447 16.1288 16.218 16.1288C17.4912 16.1288 18.5229 15.0971 18.5229 13.8239C18.5229 12.5506 17.4912 11.5189 16.218 11.5189ZM23.7822 11.5189C22.5089 11.5189 21.4772 12.5506 21.4772 13.8239C21.4772 15.0971 22.5089 16.1288 23.7822 16.1288C25.0554 16.1288 26.0871 15.0971 26.0871 13.8239C26.0871 12.5506 25.0554 11.5189 23.7822 11.5189ZM26.4164 14.9942C26.3875 15.0589 26.3563 15.1213 26.324 15.1837L27.5706 16.0953C27.6908 15.8781 27.7936 15.6482 27.8779 15.4102L26.4175 14.9942L26.4164 14.9942ZM12.1245 15.4102C12.2077 15.6493 12.3105 15.8781 12.4307 16.0965L13.6761 15.1849C13.6426 15.1225 13.6114 15.0601 13.5837 14.9954L12.1245 15.4113L12.1245 15.4102ZM16.218 12.0157C17.2162 12.0157 18.0261 12.8256 18.0261 13.8239C18.0261 14.8221 17.2162 15.632 16.218 15.632C15.2197 15.632 14.4098 14.8221 14.4098 13.8239C14.4098 12.8256 15.2197 12.0157 16.218 12.0157ZM23.7822 12.0157C24.7804 12.0157 25.5903 12.8256 25.5903 13.8239C25.5903 14.8221 24.7804 15.632 23.7822 15.632C22.7839 15.632 21.974 14.8221 21.974 13.8239C21.974 12.8256 22.7839 12.0157 23.7822 12.0157ZM26.6579 14.0076C26.6532 14.078 26.6463 14.1485 26.6371 14.2178L28.0755 14.628C28.1148 14.3888 28.1356 14.1439 28.1367 13.8943L26.6579 14.0076ZM11.8645 13.8943C11.8657 14.1439 11.8865 14.3888 11.9258 14.6268L13.363 14.2167C13.3538 14.1474 13.3469 14.078 13.3422 14.0076L11.8645 13.8932L11.8645 13.8943ZM12.106 12.3762C12.0297 12.6049 11.9697 12.843 11.9292 13.089L13.4035 13.2023C13.4185 13.133 13.437 13.0648 13.4566 12.9978L12.106 12.3762ZM26.5435 12.9978C26.5631 13.0648 26.5816 13.133 26.5966 13.2023L28.0732 13.089C28.0328 12.8441 27.9727 12.6049 27.8964 12.3762L26.5446 12.9978L26.5435 12.9978ZM26.0848 12.0908C26.1276 12.1474 26.168 12.204 26.2061 12.2641L27.5729 11.6356C27.4528 11.4149 27.3153 11.2081 27.1628 11.014L26.0848 12.092L26.0848 12.0908ZM12.8385 11.014C12.686 11.207 12.5485 11.4149 12.4284 11.6356L13.794 12.2641C13.8321 12.2052 13.8726 12.1474 13.9142 12.092L12.8374 11.0152L12.8385 11.014ZM20.0006 6.74145C18.3057 6.74145 16.7263 7.10424 15.3722 7.73045C17.4946 7.95574 20.0006 9.70035 20.0006 9.70035C20.0006 9.70035 22.5055 7.95459 24.6279 7.73045C23.2738 7.10424 21.6956 6.74145 20.0006 6.74145ZM20.0006 1.86349C16.6824 1.86349 13.4982 2.74272 10.7149 4.39143C11.0708 5.84835 11.8553 6.74145 12.8108 7.22902C12.9899 7.09962 13.1747 6.97484 13.363 6.85583C15.2105 5.69353 17.5143 5.01187 19.9995 5.01187C22.4847 5.01187 24.7885 5.69353 26.6359 6.85583C26.8242 6.97484 27.0091 7.09962 27.1882 7.22902C28.1437 6.74261 28.9282 5.84835 29.284 4.39259C26.5643 2.78201 23.4633 1.90508 20.2259 1.8658L19.9983 1.8658L20.0006 1.86349Z" fill="#05589C"/>
</svg>
