<svg width="48" height="48" viewBox="0 0 48 48" fill="none" xmlns="http://www.w3.org/2000/svg">
<rect width="48" height="48" rx="8" fill="#05589C" fill-opacity="0.2"/>
<path d="M37.4066 35.9615L34.8735 36.6296L33.3781 31.1361C34.5609 30.5531 35.5033 29.5864 36.0463 28.3991C36.5893 27.2118 36.6997 25.8766 36.3589 24.6185C34.5506 17.9794 30.7933 12.1568 30.634 11.9124C30.5044 11.713 30.3144 11.5586 30.0909 11.4712C29.8674 11.3838 29.6216 11.3676 29.3882 11.425L26.2509 12.1977C26.2509 11.0324 26.2251 10.3006 26.2208 10.2088C26.2093 9.96606 26.1187 9.7334 25.9623 9.54536C25.8059 9.35731 25.592 9.22391 25.3525 9.16493L20.7599 8.03487C20.5266 7.97744 20.2808 7.99358 20.0573 8.08102C19.8338 8.16846 19.6438 8.32279 19.5142 8.52221C19.3549 8.76659 15.5975 14.5864 13.7892 21.2354C13.4484 22.4935 13.5588 23.8287 14.1018 25.016C14.6449 26.2033 15.5872 27.17 16.7701 27.753L15.2746 33.2394L12.7415 32.5713C12.4473 32.4937 12.1338 32.5344 11.8701 32.6843C11.6063 32.8343 11.4138 33.0812 11.335 33.3708C11.2563 33.6604 11.2976 33.9689 11.4499 34.2285C11.6023 34.4881 11.8531 34.6776 12.1474 34.7551L19.0363 36.5717C19.1332 36.5968 19.2331 36.6096 19.3333 36.6098C19.6121 36.6101 19.8815 36.5106 20.0912 36.3298C20.3009 36.149 20.4366 35.8993 20.473 35.6272C20.5094 35.3552 20.4439 35.0794 20.2889 34.8513C20.1338 34.6233 19.8998 34.4585 19.6304 34.3878L17.492 33.8228L18.9875 28.3293C19.1037 28.3364 19.2185 28.3406 19.3333 28.3406C20.4724 28.3375 21.5849 28.0019 22.5301 27.3763C23.4754 26.7507 24.2108 25.8632 24.6435 24.8261C24.8129 25.7259 25.0167 26.6371 25.2621 27.5411C25.5906 28.7434 26.3127 29.8056 27.3165 30.5633C28.3203 31.3209 29.5498 31.7318 30.8148 31.7322C30.9296 31.7322 31.0444 31.7322 31.1607 31.7209L32.6562 37.2144L30.5177 37.7794C30.2496 37.8511 30.017 38.0161 29.863 38.2438C29.7091 38.4715 29.6442 38.7463 29.6805 39.0175C29.7168 39.2886 29.8517 39.5376 30.0603 39.7183C30.2689 39.899 30.537 39.999 30.8148 40C30.9151 39.9998 31.0149 39.987 31.1119 39.9619L38.0008 38.1453C38.295 38.0677 38.5459 37.8783 38.6982 37.6187C38.8506 37.3591 38.8919 37.0506 38.8131 36.761C38.7343 36.4714 38.5419 36.2244 38.2781 36.0745C38.0143 35.9246 37.7009 35.8839 37.4066 35.9615ZM29.1242 13.8194C29.5231 14.4833 30.1618 15.5907 30.8751 16.992L26.2222 18.139C26.1619 16.7264 26.1677 15.5611 26.1863 14.7785C26.1863 14.6994 26.1935 14.6203 26.1978 14.5412L29.1242 13.8194ZM21.024 10.4292L23.9475 11.1482C23.9561 11.7528 23.9475 12.6554 23.9173 13.7572C23.9087 13.9281 23.8944 14.2078 23.8843 14.5822C23.8843 14.7234 23.87 14.8647 23.8613 15.0059L19.1453 13.8533C19.9074 12.3333 20.602 11.1312 21.024 10.4292ZM33.2317 11.8968C33.1641 11.764 33.1238 11.6194 33.113 11.4713C33.1023 11.3231 33.1213 11.1744 33.169 11.0335C33.2168 10.8926 33.2922 10.7623 33.3911 10.6501C33.49 10.538 33.6105 10.4461 33.7455 10.3797L36.0418 9.24969C36.1767 9.18328 36.3236 9.14368 36.4741 9.13315C36.6246 9.12262 36.7757 9.14138 36.9189 9.18833C37.062 9.23529 37.1943 9.30954 37.3083 9.40683C37.4223 9.50413 37.5157 9.62257 37.5831 9.75539C37.6506 9.88821 37.6909 10.0328 37.7015 10.1809C37.7122 10.3291 37.6932 10.4778 37.6455 10.6187C37.5978 10.7595 37.5223 10.8898 37.4235 11.002C37.3246 11.1142 37.2043 11.2061 37.0694 11.2725L34.7731 12.4026C34.6381 12.4691 34.4912 12.5087 34.3407 12.5193C34.1902 12.5299 34.039 12.5112 33.8959 12.4642C33.7527 12.4172 33.6204 12.3429 33.5064 12.2456C33.3924 12.1482 33.2991 12.0297 33.2317 11.8968ZM40 15.9114C40 16.2111 39.879 16.4985 39.6637 16.7105C39.4484 16.9224 39.1564 17.0414 38.8519 17.0414H36.5556C36.251 17.0414 35.959 16.9224 35.7437 16.7105C35.5284 16.4985 35.4074 16.2111 35.4074 15.9114C35.4074 15.6117 35.5284 15.3242 35.7437 15.1123C35.959 14.9004 36.251 14.7813 36.5556 14.7813H38.8519C39.1564 14.7813 39.4484 14.9004 39.6637 15.1123C39.879 15.3242 40 15.6117 40 15.9114ZM11.4169 8.62533C11.4843 8.49244 11.5776 8.37394 11.6916 8.27659C11.8055 8.17924 11.9379 8.10496 12.081 8.05799C12.2242 8.01102 12.3754 7.99229 12.5259 8.00287C12.6764 8.01344 12.8233 8.05312 12.9582 8.11963L15.2545 9.24969C15.3895 9.3161 15.5098 9.40802 15.6087 9.5202C15.7075 9.63238 15.783 9.76263 15.8307 9.9035C15.8784 10.0444 15.8974 10.1931 15.8867 10.3412C15.876 10.4894 15.8358 10.634 15.7683 10.7668C15.7009 10.8996 15.6075 11.018 15.4935 11.1153C15.3795 11.2126 15.2472 11.2869 15.104 11.3338C14.815 11.4287 14.4995 11.4066 14.2269 11.2725L11.9306 10.1424C11.7956 10.0761 11.6752 9.98422 11.5763 9.87204C11.4774 9.75987 11.4019 9.62961 11.3542 9.48871C11.3065 9.34781 11.2875 9.19903 11.2982 9.05088C11.309 8.90274 11.3493 8.75813 11.4169 8.62533ZM12.4444 15.9114H10.1481C9.84364 15.9114 9.5516 15.7923 9.33628 15.5804C9.12097 15.3685 9 15.081 9 14.7813C9 14.4816 9.12097 14.1942 9.33628 13.9823C9.5516 13.7703 9.84364 13.6513 10.1481 13.6513H12.4444C12.749 13.6513 13.041 13.7703 13.2563 13.9823C13.4716 14.1942 13.5926 14.4816 13.5926 14.7813C13.5926 15.081 13.4716 15.3685 13.2563 15.5804C13.041 15.7923 12.749 15.9114 12.4444 15.9114Z" fill="#05589C"/>
</svg>
