<svg width="48" height="48" viewBox="0 0 48 48" fill="none" xmlns="http://www.w3.org/2000/svg">
<rect width="48" height="48" rx="8" fill="#05589C" fill-opacity="0.2"/>
<path d="M23.6667 10C21.3067 10 19.2267 11.56 18.56 13.8267C17.8533 13.5067 17.1067 13.3333 16.3333 13.3333C14.9188 13.3333 13.5623 13.8952 12.5621 14.8954C11.5619 15.8956 11 17.2522 11 18.6667C11 21.0933 12.6533 23.2133 15 23.8267V33.3333H32.3333V23.8267C34.68 23.2133 36.3333 21.0933 36.3333 18.6667C36.3333 17.2522 35.7714 15.8956 34.7712 14.8954C33.771 13.8952 32.4145 13.3333 31 13.3333C30.2267 13.3333 29.48 13.5067 28.7733 13.8267C28.1067 11.56 26.0267 10 23.6667 10ZM23 22H24.3333V31.3333H23V22ZM19 24.6667H20.3333V31.3333H19V24.6667ZM27 24.6667H28.3333V31.3333H27V24.6667ZM15 34.6667V36C15 36.3536 15.1405 36.6928 15.3905 36.9428C15.6406 37.1929 15.9797 37.3333 16.3333 37.3333H31C31.3536 37.3333 31.6928 37.1929 31.9428 36.9428C32.1929 36.6928 32.3333 36.3536 32.3333 36V34.6667H15Z" fill="#05589C"/>
</svg>
