<svg width="48" height="48" viewBox="0 0 48 48" fill="none" xmlns="http://www.w3.org/2000/svg">
<rect width="48" height="48" rx="8" fill="#05589C" fill-opacity="0.2"/>
<path d="M23.9535 8.08296C26.7014 8.079 29.2886 8.76756 31.5493 9.98437C36.5592 12.6807 39.9673 17.9702 39.9761 24.0585C39.9888 32.8596 32.8931 40.0109 24.1059 40.0809C24.0708 40.081 24.0357 40.0819 24.0006 40.082C23.9654 40.0821 23.9312 40.0821 23.8961 40.0812C15.1069 40.0384 7.98974 32.9067 7.97705 24.1046C7.96431 15.2684 15.1173 8.09477 23.9535 8.08203L23.9535 8.08296ZM15.792 11.9703C15.0228 12.4918 14.2981 13.0918 13.6271 13.7638C11.616 15.7807 10.2646 18.281 9.68345 21.003C9.73433 21.0381 9.78891 21.0694 9.84626 21.0961C10.1746 21.2537 10.6405 21.3011 11.3094 21.0552C11.258 20.6661 11.5596 20.2183 12.0602 19.9893C12.6403 19.7232 13.2671 19.8499 13.46 20.272C13.6538 20.6941 13.3403 21.2519 12.7612 21.518C12.3039 21.7276 11.8177 21.6931 11.5373 21.4625C11.0182 21.6638 10.5718 21.7217 10.1909 21.6724C10.7156 22.0534 11.4518 22.3786 12.4872 22.5314C12.7483 22.178 13.3359 22.0487 13.9194 22.2456C14.5991 22.4757 15.0141 23.063 14.8465 23.5568C14.679 24.0515 13.9926 24.266 13.3138 24.0359C12.7479 23.8445 12.3646 23.4042 12.3501 22.9771C11.9572 22.9158 11.6021 22.8303 11.2813 22.7245C11.9661 23.3058 12.8893 24.4719 13.6792 26.8C13.67 26.7954 10.4113 25.1271 10.2815 22.2795C10.1223 22.1864 9.97709 22.0886 9.84199 21.9862C9.73651 21.906 9.63841 21.8229 9.54771 21.7389C9.42313 22.5137 9.36049 23.305 9.36164 24.1045C9.36727 28.0078 10.893 31.6759 13.6579 34.4328C14.9667 35.7379 16.4794 36.7645 18.1229 37.483C17.861 37.2163 17.6101 36.931 17.3702 36.6273C15.6979 34.5038 14.7751 31.6972 14.7708 28.7246C14.7686 27.2079 15.004 25.736 15.4697 24.3471C15.5066 24.238 15.5415 24.139 15.5765 24.0438L15.7275 23.6331L15.7128 23.6877L16.346 24.3652C16.4839 24.5129 16.6283 24.656 16.7792 24.7962C16.3752 26.0003 16.1534 27.3279 16.1554 28.7208C16.1589 31.1702 16.8554 33.4115 18.0077 35.1457C17.3158 33.5125 16.9137 31.5767 16.9108 29.5007C16.9086 28.0182 17.1099 26.6065 17.475 25.3258C17.5026 25.2296 17.5311 25.1344 17.5606 25.0401C17.8753 25.3382 18.2306 25.6122 18.6201 25.8612C20.0439 26.7686 21.9228 27.3196 23.9822 27.3166C26.0415 27.3136 27.9189 26.7582 29.34 25.8457C29.7279 25.5956 30.0833 25.3205 30.3962 25.0216C30.4259 25.1158 30.4547 25.21 30.4826 25.3061C30.8514 26.5857 31.0568 27.9968 31.0589 29.4794C31.0619 31.5535 30.6663 33.4877 29.981 35.121C31.1255 33.3845 31.8128 31.1439 31.8092 28.6982C31.8072 27.3062 31.5816 25.9811 31.176 24.7792C31.3265 24.6394 31.4714 24.495 31.6089 24.3469L32.241 23.6685L32.2271 23.6195L32.3756 24.0205C32.4117 24.1202 32.4489 24.2218 32.4841 24.3262C32.952 25.7102 33.1916 27.1813 33.1938 28.6981C33.1981 31.6706 32.2825 34.4799 30.6172 36.6082C30.3792 36.9126 30.1282 37.1986 29.867 37.4661C31.5093 36.7428 33.0191 35.7109 34.3251 34.4021C37.082 31.6373 38.5971 27.9647 38.5915 24.0614C38.5903 23.261 38.5254 22.4708 38.3986 21.6964C38.3082 21.7807 38.2103 21.864 38.105 21.9445C37.9712 22.0473 37.8253 22.1464 37.6664 22.2391C37.5448 25.0861 34.2919 26.7638 34.2817 26.7693C35.0649 24.439 35.9838 23.2693 36.6679 22.687C36.3473 22.7928 35.9916 22.8802 35.5989 22.9427C35.5875 23.3716 35.2055 23.8149 34.6382 24.008C33.9592 24.24 33.2721 24.0275 33.1041 23.5332C32.9352 23.039 33.3493 22.4505 34.0274 22.2194C34.6076 22.0208 35.1947 22.1484 35.4577 22.4974C36.4946 22.3425 37.2308 22.0142 37.7543 21.6308C37.3726 21.6813 36.9261 21.6246 36.4064 21.4248C36.1266 21.6562 35.6405 21.6911 35.1836 21.4829C34.6028 21.2185 34.2886 20.6616 34.4812 20.2389C34.6738 19.8162 35.3003 19.6878 35.8811 19.9522C36.3824 20.1807 36.6853 20.6267 36.6341 21.0168C37.3036 21.2617 37.7703 21.213 38.0973 21.0545C38.1546 21.0267 38.2081 20.9951 38.2598 20.96C37.6708 18.2406 36.3141 15.7442 34.2962 13.7321C33.6233 13.0611 32.8968 12.4642 32.1271 11.9449C32.3107 13.0371 32.3359 14.4596 31.7427 15.8811C32.3514 16.8544 32.7023 17.9659 32.7041 19.1573C32.7065 20.8247 32.0219 22.3443 30.8997 23.5457C30.5545 23.9159 30.1659 24.2566 29.7449 24.5631C28.2001 25.6828 26.1787 26.3521 23.9817 26.3553C21.7847 26.3585 19.7613 25.695 18.2134 24.5807C17.7896 24.2753 17.3991 23.9348 17.0519 23.5638C15.9281 22.3666 15.2392 20.8499 15.2368 19.1834C15.235 17.992 15.5828 16.8795 16.1887 15.9045C15.5914 14.4856 15.6115 13.0622 15.793 11.9694L15.792 11.9703ZM25.6768 34.6586C24.9438 35.2373 24.0096 35.454 23.132 35.129C22.849 35.0268 22.5789 34.8719 22.3059 34.6708C22.8755 36.0981 25.1151 36.0902 25.6768 34.6586ZM27.1725 31.5517L25.4949 31.5541L25.4949 31.5985L25.5754 31.6529L25.5777 33.2242L25.5399 33.2853L25.5399 33.3158L27.1796 33.3134L27.2407 33.3595L27.2693 33.3595L27.2687 32.9325L27.2401 32.9325L27.1792 32.9955L25.924 32.9973L25.9234 32.5906L26.7793 32.5894L26.8228 32.6401L26.8524 32.6401L26.8518 32.2168L26.8259 32.2168L26.7788 32.2658L25.9211 32.2671L25.9205 31.8946L27.1646 31.8928L27.2072 31.939L27.2359 31.9389L27.2353 31.5119L27.2038 31.5119L27.1725 31.5545L27.1725 31.5517ZM23.9513 31.549C23.6814 31.5494 23.4477 31.6283 23.2492 31.7875C23.0396 31.9551 22.9354 32.154 22.9358 32.4128C22.9362 32.6716 23.0317 32.8933 23.2233 33.076C23.4149 33.2588 23.6406 33.35 23.904 33.3496C24.1868 33.3492 24.4307 33.2629 24.6366 33.0897C24.8517 32.9082 24.9595 32.6853 24.9591 32.421C24.9587 32.1696 24.8549 31.9608 24.6486 31.7911C24.4515 31.6305 24.2203 31.5495 23.9522 31.5499L23.9513 31.549ZM21.1711 31.6149L21.2026 31.6518L20.337 33.2429L20.2548 33.3058L20.2548 33.3354L20.765 33.3347L20.765 33.3051L20.7095 33.2701L20.8819 32.9491L21.9762 32.9475L22.1403 33.2523L22.0895 33.3014L22.0896 33.3309L22.6201 33.3302L22.6201 33.3006L22.559 33.2517L21.6305 31.6503L21.6647 31.6133L21.6646 31.5689L21.1701 31.5696L21.1702 31.614L21.1711 31.6149ZM23.9573 31.8725C24.1181 31.8722 24.2578 31.9238 24.3762 32.0271C24.4993 32.1333 24.5614 32.2644 24.5617 32.4169C24.5619 32.5879 24.4993 32.7304 24.3719 32.8442C24.2482 32.9553 24.1004 33.011 23.9275 33.0112L23.9266 33.0112C23.763 33.0115 23.6224 32.9553 23.5076 32.8446C23.392 32.7338 23.3335 32.5999 23.3333 32.44C23.3331 32.2801 23.3957 32.1441 23.5222 32.033C23.645 31.9265 23.7974 31.8727 23.9573 31.8725ZM23.9514 32.2625C23.8987 32.2626 23.847 32.2802 23.8064 32.3154C23.7648 32.3525 23.7436 32.3969 23.7437 32.4505C23.7438 32.5041 23.7633 32.5484 23.8012 32.5853C23.8401 32.6222 23.8863 32.6407 23.9399 32.6406C23.9972 32.6405 24.0462 32.6219 24.0877 32.5849C24.1302 32.547 24.1505 32.4998 24.1504 32.4434C24.1503 32.3926 24.1299 32.3492 24.0892 32.3141C24.0494 32.28 24.0032 32.2625 23.9505 32.2625L23.9514 32.2625ZM21.7826 32.64L21.0478 32.6411L21.412 31.988L21.7826 32.64ZM21.5207 29.2085C20.7877 29.7872 19.8535 30.0039 18.9759 29.6789C18.6929 29.5767 18.4228 29.4218 18.1498 29.2207C18.7194 30.6479 20.959 30.6401 21.5198 29.2085L21.5207 29.2085ZM25.6689 29.2025C24.9359 29.7812 24.0017 29.9979 23.1241 29.6729C22.8411 29.5707 22.571 29.4158 22.2981 29.2147C22.8676 30.642 25.1072 30.6341 25.6689 29.2025ZM29.8181 29.1965C29.085 29.7752 28.1509 29.992 27.2733 29.6669C26.9903 29.5648 26.7202 29.4099 26.4472 29.2088C27.0168 30.636 29.2563 30.6281 29.8181 29.1965ZM25.1512 22.7036C25.1245 23.4301 23.979 24.5123 23.9781 24.5132C23.9753 24.5104 22.8286 23.4344 22.7989 22.7079C22.1225 23.5038 21.2267 24.0365 20.2388 24.1692C21.3303 24.6788 22.6071 24.9746 23.9788 24.9726C25.3504 24.9706 26.6265 24.6711 27.7164 24.1584C26.7281 24.0286 25.8308 23.4984 25.1512 22.7036ZM29.2505 16.3117C28.6378 15.7793 27.8481 15.4754 26.9996 15.5164C26.2648 15.5516 25.5988 15.8419 25.0717 16.3011C24.5529 16.7529 24.1684 17.369 23.9855 18.0736C23.98 18.0921 23.9744 18.1115 23.9698 18.13C23.9652 18.1115 23.9596 18.0921 23.954 18.0737C23.7682 17.3705 23.3828 16.7555 22.8627 16.3043C22.3342 15.8466 21.6674 15.5583 20.9316 15.5251C20.0831 15.4866 19.2932 15.7928 18.683 16.3279L19.5578 17.2001C19.9428 16.9093 20.4222 16.7367 20.9426 16.7359C22.2163 16.7341 23.2502 17.765 23.252 19.0387C23.2539 20.3124 22.2229 21.3463 20.9493 21.3482C20.5943 21.3487 20.2578 21.2687 19.9572 21.1259L19.2479 22.201C19.6577 22.425 20.1191 22.5611 20.6109 22.5835C22.1675 22.6552 23.5237 21.5644 23.9449 20.0341C23.954 19.9981 23.9632 19.962 23.9724 19.9259C23.9808 19.962 23.9901 19.998 24.0003 20.034C24.4258 21.5641 25.7861 22.65 27.3416 22.5738C27.8324 22.55 28.2934 22.4134 28.7025 22.1883L27.9902 21.1152C27.69 21.2589 27.3546 21.3398 26.9997 21.3404C25.726 21.3422 24.6921 20.3112 24.6903 19.0376C24.6884 17.7639 25.7194 16.73 26.993 16.7281C27.5125 16.7274 27.9934 16.8986 28.3792 17.1883L29.2514 16.3136L29.2505 16.3117ZM28.6495 20.6383C28.6107 20.679 28.5692 20.7179 28.5276 20.7549L29.2344 21.8196C29.3904 21.6872 29.5353 21.54 29.6663 21.3809L28.6495 20.6383ZM18.28 21.3973C18.4114 21.557 18.5568 21.7028 18.7132 21.8348L19.4169 20.7681C19.3752 20.7311 19.3345 20.6924 19.2947 20.6527L18.28 21.3973ZM20.9414 17.1962C19.9229 17.1977 19.0986 18.0243 19.1001 19.0429C19.1016 20.0614 19.9282 20.8856 20.9467 20.8842C21.9653 20.8827 22.7895 20.0561 22.788 19.0375C22.7866 18.019 21.96 17.1948 20.9414 17.1962ZM26.9928 17.1875C25.9742 17.189 25.15 18.0156 25.1515 19.0341C25.1529 20.0527 25.9795 20.8769 26.9981 20.8754C28.0167 20.874 28.8409 20.0474 28.8394 19.0288C28.8379 18.0102 28.0113 17.186 26.9928 17.1875ZM29.1042 19.9647C29.0811 20.0165 29.0563 20.0665 29.0304 20.1164L30.0288 20.8443C30.1247 20.6704 30.2067 20.4863 30.2739 20.2958L29.1051 19.9647L29.1042 19.9647ZM17.6711 20.314C17.738 20.5052 17.8205 20.6881 17.9169 20.8627L18.9122 20.1319C18.8853 20.0821 18.8603 20.0322 18.838 19.9805L17.6711 20.3149L17.6711 20.314ZM20.942 17.5937C21.7406 17.5925 22.3895 18.2395 22.3906 19.0381C22.3918 19.8367 21.7448 20.4856 20.9462 20.4867C20.1476 20.4879 19.4987 19.8409 19.4976 19.0423C19.4964 18.2437 20.1434 17.5948 20.942 17.5937ZM26.9933 17.585C27.7919 17.5838 28.4408 18.2308 28.442 19.0294C28.4431 19.828 27.7961 20.4768 26.9975 20.478C26.1989 20.4791 25.5501 19.8321 25.5489 19.0336C25.5478 18.235 26.1948 17.5861 26.9933 17.585ZM29.2962 19.1751C29.2926 19.2315 29.2871 19.2879 29.2798 19.3434L30.431 19.6698C30.4622 19.4785 30.4785 19.2825 30.4792 19.0828L29.2962 19.1751ZM17.4614 19.1016C17.4626 19.3012 17.4796 19.4972 17.5113 19.6875L18.6606 19.3578C18.6531 19.3023 18.6475 19.2469 18.6437 19.1905L17.4614 19.1007L17.4614 19.1016ZM17.6529 17.8868C17.5921 18.0699 17.5443 18.2604 17.5123 18.4573L18.6918 18.5462C18.7037 18.4907 18.7184 18.4361 18.7341 18.3825L17.6529 17.8868ZM29.2035 18.3674C29.2193 18.421 29.2342 18.4755 29.2463 18.531L30.4274 18.4387C30.3948 18.2428 30.3464 18.0515 30.2852 17.8686L29.2045 18.3674L29.2035 18.3674ZM28.8356 17.6424C28.8698 17.6876 28.9022 17.7329 28.9328 17.7809L30.0255 17.2765C29.9291 17.1001 29.8189 16.9348 29.6967 16.7797L28.8356 17.6433L28.8356 17.6424ZM18.2373 16.7962C18.1155 16.9507 18.0057 17.1173 17.9099 17.294L19.0031 17.7952C19.0335 17.748 19.0658 17.7018 19.099 17.6573L18.2364 16.7971L18.2373 16.7962ZM23.9621 13.3699C22.6061 13.3719 21.343 13.6639 20.2605 14.1664C21.9587 14.3442 23.9655 15.737 23.9655 15.737C23.9655 15.737 25.9673 14.3375 27.665 14.1558C26.581 13.6564 25.318 13.368 23.9621 13.3699ZM23.9564 9.46755C21.3019 9.47138 18.7555 10.1784 16.5308 11.5006C16.8172 12.6657 17.4458 13.3793 18.2107 13.7683C18.3539 13.6645 18.5016 13.5645 18.6521 13.4691C20.1287 12.5371 21.971 11.9891 23.9591 11.9862C25.9473 11.9834 27.7911 12.5261 29.2704 13.4538C29.4212 13.5488 29.5692 13.6484 29.7126 13.7517C30.4765 13.3614 31.103 12.6451 31.386 11.4801C29.2084 10.1948 26.7266 9.49683 24.1367 9.46914L23.9546 9.4694L23.9564 9.46755Z" fill="#05589C"/>
</svg>
