<svg width="48" height="48" viewBox="0 0 48 48" fill="none" xmlns="http://www.w3.org/2000/svg">
<rect width="48" height="48" rx="8" fill="#05589C" fill-opacity="0.2"/>
<path d="M36.8 27.9474H11.2V18.4737H19.328L16 22.9421L18.592 24.7895L22.4 19.6737L24 17.5263L25.6 19.6737L29.408 24.7895L32 22.9421L28.672 18.4737H36.8M36.8 35.8421H11.2V32.6842H36.8M19.2 12.1579C19.6243 12.1579 20.0313 12.3242 20.3314 12.6204C20.6314 12.9165 20.8 13.3181 20.8 13.7368C20.8 14.1556 20.6314 14.5572 20.3314 14.8533C20.0313 15.1494 19.6243 15.3158 19.2 15.3158C18.7757 15.3158 18.3687 15.1494 18.0686 14.8533C17.7686 14.5572 17.6 14.1556 17.6 13.7368C17.6 13.3181 17.7686 12.9165 18.0686 12.6204C18.3687 12.3242 18.7757 12.1579 19.2 12.1579ZM28.8 12.1579C29.2243 12.1579 29.6313 12.3242 29.9314 12.6204C30.2314 12.9165 30.4 13.3181 30.4 13.7368C30.4 14.1556 30.2314 14.5572 29.9314 14.8533C29.6313 15.1494 29.2243 15.3158 28.8 15.3158C28.3757 15.3158 27.9687 15.1494 27.6686 14.8533C27.3686 14.5572 27.2 14.1556 27.2 13.7368C27.2 13.3181 27.3686 12.9165 27.6686 12.6204C27.9687 12.3242 28.3757 12.1579 28.8 12.1579ZM36.8 15.3158H33.312C33.488 14.8263 33.6 14.2895 33.6 13.7368C33.6 12.4806 33.0943 11.2757 32.1941 10.3874C31.2939 9.49906 30.073 9 28.8 9C27.12 9 25.664 9.85263 24.8 11.1316L24 12.1579L23.2 11.1158C22.336 9.85263 20.88 9 19.2 9C17.927 9 16.7061 9.49906 15.8059 10.3874C14.9057 11.2757 14.4 12.4806 14.4 13.7368C14.4 14.2895 14.512 14.8263 14.688 15.3158H11.2C9.424 15.3158 8 16.7211 8 18.4737V35.8421C8 37.5947 9.424 39 11.2 39H36.8C38.576 39 40 37.5947 40 35.8421V18.4737C40 16.7211 38.576 15.3158 36.8 15.3158Z" fill="#05589C"/>
</svg>
