<svg width="37" height="56" viewBox="0 0 37 56" fill="none" xmlns="http://www.w3.org/2000/svg">
<g clip-path="url(#clip0_6667_8604)">
<path d="M11.3078 5.65377L10.5001 4.03839L13.7309 5.38454L15.0771 7.80762L14.5386 12.6538L17.2309 9.69223L19.1155 5.11531V0.807617L20.7309 1.34608L22.3463 4.57685V9.15377L21.5386 14.2692L23.154 16.1538L25.8463 15.6153L27.4617 13.4615V11.8461H28.5386L29.6155 13.9999V17.4999L27.4617 21.8076L23.154 23.423L14.5386 23.1538L10.5001 22.0768L9.15398 20.4615L8.34628 17.7692V14.2692L11.3078 8.34608V5.65377Z" fill="#F6F2EC"/>
<path d="M22.9823 23.7034C22.6754 23.7034 22.4266 23.4546 22.4266 23.1477C22.4266 22.8409 22.6754 22.592 22.9823 22.592C25.3397 22.592 27.4532 21.2712 28.2426 19.3057C29.1195 17.119 29.1901 14.4959 28.4099 13.0692C28.2662 12.8069 28.0989 12.5942 27.908 12.4337C27.8551 14.5254 26.6049 15.9764 25.2396 16.5355C23.865 17.0988 22.456 16.7558 21.6481 15.6628C20.8032 14.5186 21.1529 12.7077 21.559 10.6102C22.187 7.36415 22.8907 3.7205 19.5194 1.59518C19.9305 4.68312 18.8569 8.23345 17.4706 10.6026C16.9746 11.45 15.9758 12.912 14.856 13.1844C14.6702 13.2298 14.4734 13.176 14.3364 13.0423C14.1994 12.9087 14.1405 12.7136 14.1809 12.527C14.8391 9.4836 14.6197 7.2019 13.5444 5.92822C13.061 5.35569 12.3943 4.98998 11.5528 4.83445C12.8946 6.97995 11.3838 9.81652 9.54433 13.271C8.39759 15.4249 8.36144 18.0959 9.45605 19.9185C10.5061 21.6672 12.4893 22.592 15.1906 22.592C15.4974 22.592 15.7463 22.8409 15.7463 23.1477C15.7463 23.4546 15.4974 23.7034 15.1906 23.7034C11.2577 23.7034 9.3829 21.9564 8.50351 20.4902C7.19536 18.3119 7.2189 15.2728 8.56404 12.7481C11.0576 8.06699 11.8168 6.15437 9.87725 4.63773C9.69397 4.4948 9.61915 4.25184 9.68977 4.03073C9.76039 3.80878 9.96216 3.65493 10.1942 3.64484C12.0345 3.56329 13.4486 4.09042 14.3944 5.21109C15.5243 6.55035 15.9026 8.68745 15.5067 11.4391C15.8102 11.1112 16.1515 10.6539 16.5105 10.0402C17.9136 7.64244 19.0436 3.69865 18.207 0.704863C18.149 0.497206 18.2163 0.275255 18.3794 0.134856C18.5425 -0.00554303 18.772 -0.0391646 18.9687 0.0474289C24.2761 2.40984 23.3371 7.27083 22.6502 10.8203C22.3089 12.5841 21.9869 14.2505 22.5426 15.0012C23.1437 15.815 24.1131 15.7948 24.8193 15.5056C25.987 15.0273 27.0371 13.6418 26.7504 11.6224C26.7252 11.445 26.7874 11.2659 26.9168 11.1423C27.0463 11.0187 27.2287 10.9649 27.4045 10.9986C28.2384 11.1575 28.9228 11.6888 29.386 12.5345C30.3268 14.2563 30.2814 17.2098 29.275 19.7185C28.3191 22.1019 25.7903 23.7026 22.9831 23.7026L22.9823 23.7034Z" fill="#F17930"/>
<path d="M30.9616 40.6538L28.8078 40.3846L29.077 410.308H7.80778L8.34624 40.3846H5.92316L2.69239 39.0384L1.07701 36.8846L0.538544 33.1153L1.61547 29.8846L4.57701 27.4615L7.26931 26.923L6.19239 23.1538H30.6924L29.3462 26.6538L32.3078 27.4615L35.2693 29.8846L36.3462 32.8461L35.8078 36.8846L33.9232 39.5769L30.9616 40.6538Z" fill="#F6F2EC"/>
<path d="M8.44783 52.6519C8.44279 52.6519 8.43858 52.6519 8.43354 52.6519C8.12667 52.6443 7.88454 52.3896 7.89211 52.0827L7.92197 40.1712C7.92954 39.8643 8.18764 39.6188 8.49114 39.6297C8.798 39.6373 9.04013 39.8921 9.03256 40.1989L9.0027 52.1105C8.99513 52.4123 8.74797 52.6519 8.44783 52.6519Z" fill="#F17930"/>
<path d="M13.155 54.8054H13.1491C12.8422 54.802 12.5959 54.5506 12.5992 54.2438L12.822 40.9317C12.8254 40.6265 13.0734 40.3818 13.3777 40.3818H13.3836C13.6905 40.3852 13.9368 40.6366 13.9335 40.9434L13.7107 54.2556C13.7073 54.5607 13.4593 54.8054 13.155 54.8054Z" fill="#F17930"/>
<path d="M18.4091 52.6516C18.1023 52.6516 17.8534 52.4027 17.8534 52.0958V40.9375C17.8534 40.6307 18.1023 40.3818 18.4091 40.3818C18.716 40.3818 18.9648 40.6307 18.9648 40.9375V52.0958C18.9648 52.4027 18.716 52.6516 18.4091 52.6516Z" fill="#F17930"/>
<path d="M30.2816 41.08C29.0087 41.08 27.8006 40.6941 26.8069 39.9257C25.1557 38.6495 24.505 36.615 25.0666 34.4846C25.5837 32.5232 26.9297 31.2227 28.6683 31.0074C30.2084 30.8166 31.673 31.5463 32.4019 32.8671C32.8828 33.7389 32.818 34.8478 32.2362 35.6936C31.6629 36.5267 30.7045 36.9362 29.6721 36.7915C29.3686 36.7487 29.1567 36.4679 29.1987 36.1635C29.2416 35.86 29.5207 35.6482 29.8268 35.6902C30.4405 35.7768 30.9869 35.5481 31.3207 35.0622C31.6654 34.5611 31.7083 33.9096 31.4283 33.4035C30.9197 32.4829 29.8898 31.9751 28.8044 32.1096C27.5333 32.2677 26.537 33.2605 26.1411 34.7671C25.6972 36.4519 26.1999 38.0518 27.4862 39.0463C29.0331 40.2418 31.256 40.2755 33.2888 39.1329C35.3116 37.9963 36.2456 35.1337 35.5108 32.3265C34.6794 29.1511 32.1597 27.2545 28.7708 27.2545H8.10943C4.72051 27.2545 2.2009 29.1503 1.36943 32.3257C0.63465 35.1328 1.56952 37.9955 3.59143 39.1321C5.62344 40.2738 7.84713 40.241 9.3932 39.0455C10.6795 38.0509 11.1822 36.4511 10.7383 34.7663C10.3415 33.2597 9.34613 32.2668 8.07497 32.1088C6.98877 31.9743 5.95888 32.482 5.45109 33.4026C5.17198 33.9087 5.21401 34.5603 5.55871 35.0614C5.89331 35.5473 6.4381 35.776 7.05266 35.6894C7.357 35.6465 7.63779 35.8584 7.68067 36.1627C7.72354 36.467 7.51168 36.7478 7.20735 36.7907C6.17411 36.9353 5.21654 36.525 4.64317 35.6927C4.06139 34.8478 3.99666 33.7381 4.47755 32.8663C5.20645 31.5455 6.67182 30.8158 8.21116 31.0066C9.94976 31.2227 11.2957 32.5224 11.8128 34.4838C12.3735 36.6142 11.7228 38.6487 10.0725 39.9249C8.1666 41.3987 5.47379 41.4659 3.04581 40.1014C0.550573 38.6991 -0.581868 35.3859 0.293316 32.0449C1.03987 29.1915 3.4855 26.1431 8.10859 26.1431H28.77C33.3931 26.1431 35.8387 29.1915 36.5853 32.0449C37.4596 35.3859 36.328 38.6991 33.8328 40.1014C32.6709 40.7547 31.4485 41.0792 30.2807 41.0792L30.2816 41.08Z" fill="#F17930"/>
<path d="M24.7703 31.2071H12.1159C11.809 31.2071 11.5602 30.9583 11.5602 30.6514C11.5602 30.3446 11.809 30.0957 12.1159 30.0957H24.7703C25.0771 30.0957 25.326 30.3446 25.326 30.6514C25.326 30.9583 25.0771 31.2071 24.7703 31.2071Z" fill="#F17930"/>
<path d="M14.0672 35.8182C13.7603 35.8182 13.5114 35.5693 13.5114 35.2625V33.5928C13.5114 33.286 13.7603 33.0371 14.0672 33.0371C14.374 33.0371 14.6229 33.286 14.6229 33.5928V35.2625C14.6229 35.5693 14.374 35.8182 14.0672 35.8182Z" fill="#F17930"/>
<path d="M17.0019 35.8182C16.695 35.8182 16.4462 35.5693 16.4462 35.2625V33.5928C16.4462 33.286 16.695 33.0371 17.0019 33.0371C17.3087 33.0371 17.5576 33.286 17.5576 33.5928V35.2625C17.5576 35.5693 17.3087 35.8182 17.0019 35.8182Z" fill="#F17930"/>
<path d="M19.8819 35.8182C19.5751 35.8182 19.3262 35.5693 19.3262 35.2625V33.5928C19.3262 33.286 19.5751 33.0371 19.8819 33.0371C20.1888 33.0371 20.4377 33.286 20.4377 33.5928V35.2625C20.4377 35.5693 20.1888 35.8182 19.8819 35.8182Z" fill="#F17930"/>
<path d="M22.8201 35.8182C22.5133 35.8182 22.2644 35.5693 22.2644 35.2625V33.5928C22.2644 33.286 22.5133 33.0371 22.8201 33.0371C23.127 33.0371 23.3759 33.286 23.3759 33.5928V35.2625C23.3759 35.5693 23.127 35.8182 22.8201 35.8182Z" fill="#F17930"/>
<path d="M25.8624 38.4576H11.0263C10.7195 38.4576 10.4706 38.2088 10.4706 37.9019C10.4706 37.595 10.7195 37.3462 11.0263 37.3462H25.8624C26.1693 37.3462 26.4181 37.595 26.4181 37.9019C26.4181 38.2088 26.1693 38.4576 25.8624 38.4576Z" fill="#F17930"/>
<path d="M28.4378 52.6519C28.1376 52.6519 27.8896 52.4123 27.8829 52.1105L27.853 40.1989C27.8455 39.8921 28.0876 39.6373 28.3945 39.6297C28.7022 39.6188 28.9561 39.8643 28.9636 40.1712L28.9935 52.0827C29.0011 52.3896 28.7589 52.6443 28.4521 52.6519C28.447 52.6519 28.4428 52.6519 28.4378 52.6519Z" fill="#F17930"/>
<path d="M23.7305 54.8055C23.4262 54.8055 23.1782 54.56 23.1748 54.2556L22.952 40.9435C22.9486 40.6367 23.195 40.3853 23.5018 40.3819C23.8095 40.3761 24.0601 40.6249 24.0634 40.9318L24.2862 54.2439C24.2896 54.5507 24.0433 54.8021 23.7364 54.8055H23.7305Z" fill="#F17930"/>
<path d="M29.3664 27.2551C29.3059 27.2551 29.2436 27.245 29.1831 27.224C28.8931 27.1231 28.7409 26.8062 28.8418 26.5161L29.8153 23.7267H6.99246L7.96601 26.5161C8.06689 26.8062 7.91388 27.1231 7.62467 27.224C7.33463 27.3249 7.01768 27.1719 6.9168 26.8827L5.68515 23.3542C5.62546 23.1844 5.65236 22.9961 5.75661 22.849C5.86086 22.7018 6.02984 22.6152 6.20975 22.6152H30.598C30.7779 22.6152 30.9469 22.7027 31.0512 22.849C31.1554 22.9961 31.1823 23.1844 31.1226 23.3542L29.891 26.8827C29.8111 27.1114 29.5959 27.2551 29.3664 27.2551Z" fill="#F17930"/>
</g>
<defs>
<clipPath id="clip0_6667_8604">
<rect width="36.6154" height="56" fill="white"/>
</clipPath>
</defs>
</svg>
