<svg width="56" height="56" viewBox="0 0 56 56" fill="none" xmlns="http://www.w3.org/2000/svg">
<path d="M19.6684 45.2991C21.4932 44.7304 22.3054 47.7472 24.0056 46.6748C27.0108 44.7846 23.6807 37.9657 17.9194 40.5763C11.5246 43.4739 14.6868 56.5159 24.2926 53.4341C28.9114 51.9501 31.8787 43.9397 35.7664 40.4246C42.2804 34.5319 50.2401 34.1744 54.2036 42.916C60.0949 55.9147 39.4593 59.8035 37.6345 48.6788C35.8098 37.5541 52.0973 35.0464 49.8069 46.5448C49.0975 50.1032 42.1937 50.2549 43.45 45.2937C44.2568 44.4488 48.15 49.3179 48.8539 44.9904C50.1643 36.9529 35.6636 39.6718 39.0965 49.3721C42.1829 58.0974 57.4363 53.2554 53.4402 44.2051C53.4835 50.0057 48.0092 54.4524 42.7136 51.154C35.5119 46.6694 46.179 37.6299 47.2349 43.9343C47.5922 46.0791 45.0365 43.3168 44.2568 43.3114C41.1054 43.2952 39.8654 50.9536 46.4227 50.7423C55.3787 50.4607 53.3373 33.4324 41.4465 38.1553C33.8442 41.1829 29.5124 53.8403 24.6879 54.9182C18.4122 56.3155 12.6238 52.3347 13.2032 45.6349C13.8584 38.0253 25.7167 36.8392 25.9603 44.0318C26.1336 49.1717 19.1107 51.1594 19.6684 45.3045L19.6684 45.2991Z" fill="#F17930"/>
<path d="M14.0681 20.2389C10.0395 24.3118 1.04564 26.9007 1.25681 33.6546C1.43008 39.1032 6.62824 41.7138 11.5827 40.1919C16.3531 38.7241 16.3477 30.1287 11.2849 30.1341C5.57236 30.1395 10.4727 35.0845 9.93124 35.5665C4.46234 36.3627 5.89725 29.7225 10.3482 29.1809C17.1924 28.3468 18.1887 39.2007 11.2578 41.4863C4.32697 43.7719 -2.07867 36.9097 0.704508 29.8471C2.70255 24.783 14.0356 21.4088 17.0679 13.7775C21.757 1.95949 4.76557 -0.15822 4.484 8.80004C4.37029 12.3801 7.11557 14.774 10.4781 13.1329C13.4183 11.6977 10.9059 9.83452 10.4781 8.80004C9.93665 7.46768 12.2812 7.79264 12.8985 9.08168C15.6546 14.8282 3.83423 17.6771 3.02202 9.73162C2.54552 5.07375 6.08676 2.0299 10.4673 1.78617C8.06315 -0.472349 3.7855 2.28445 2.44264 4.57006C-1.80252 11.8006 5.71315 20.0818 12.6061 15.2777C17.0625 12.1743 14.9778 4.91127 9.77421 6.48195C6.1355 7.58142 10.8626 10.9015 9.92582 11.7843C5.41534 13.03 4.7764 6.68234 8.32306 5.60995C19.889 2.12739 17.6743 19.9464 6.11384 17.4875C-4.79146 15.1694 -0.259318 -5.51476 13.0014 1.41246C21.8112 6.01074 20.1489 14.0916 14.0681 20.2443L14.0681 20.2389Z" fill="#F17930"/>
<path d="M19.1189 33.9416L17.5053 33.9416C18.2146 25.4925 4.41785 25.4437 4.5099 33.14C4.5857 39.3361 12.789 38.2474 11.8198 34.4128C11.5707 33.4217 10.2766 32.9451 10.4769 31.7806C11.6899 31.7806 12.9407 32.4522 13.1789 33.6654C14.9874 42.8024 -1.26764 38.9786 4.0713 29.9662C7.79665 23.6781 19.8824 25.6171 19.1189 33.9416Z" fill="#F17930"/>
<path d="M17.6589 42.7533C18.8123 41.8272 21.0594 41.838 22.4023 42.2876L22.9004 44.7519C16.7005 39.5632 15.4226 51.3596 22.5809 50.6988C27.9632 50.2005 29.566 42.033 25.3533 38.7942C24.1241 37.8518 21.7362 37.7488 21.2922 36.9093C20.5883 35.5824 23.4473 36.189 24.005 36.3623C31.7752 38.7725 29.7988 51.8957 22.0178 52.1341C17.0687 52.2857 14.3722 45.4072 17.6644 42.7533L17.6589 42.7533Z" fill="#F17930"/>
<path d="M0.206179 39.8881C3.43878 41.1771 0.996732 52.578 1.82519 53.4121C5.91874 54.0891 12.3244 51.7819 15.3404 55.0315L0.206179 55.0315L0.206179 39.8935L0.206179 39.8881Z" fill="#F17930"/>
<path d="M28.314 55.0267C31.2433 52.2699 32.5916 48.1699 35.8784 45.8355C35.3856 49.5185 37.0534 52.2428 39.1272 55.0267L28.3194 55.0267L28.314 55.0267ZM33.7287 49.6268L31.5628 53.9489L36.4198 53.9489C36.1274 53.3043 34.7413 48.6573 33.7287 49.6268Z" fill="#F17930"/>
<path d="M0.206179 16.1008C2.91355 18.381 5.7238 19.8813 9.395 19.3505C7.06125 22.6381 2.96228 23.9867 0.206179 26.9168L0.206179 16.1062L0.206179 16.1008ZM1.28913 18.8089L1.28913 23.6671L5.60468 21.4953C6.51977 20.4283 1.98222 19.1447 1.28913 18.8035L1.28913 18.8089Z" fill="#F17930"/>
<path d="M3.45032 42.5909C6.52589 42.3796 4.40332 49.4964 5.06933 50.1626L11.7349 50.2547L12.6391 51.782L3.45032 51.782L3.45032 42.5909Z" fill="#F17930"/>
<path d="M6.69434 43.6747C8.95229 43.1656 8.37291 44.9746 9.23385 45.8682C10.0948 46.7619 12.147 46.4098 11.5568 48.5384L7.19791 48.3055L6.69434 43.6747Z" fill="#F17930"/>
</svg>
