<svg width="68" height="68" viewBox="0 0 68 68" fill="none" xmlns="http://www.w3.org/2000/svg">
<rect width="67.2" height="67.2" rx="16" fill="#FEF2EA"/>
<g clip-path="url(#clip0_6660_8790)">
<path d="M28.6306 47.2817C27.5382 47.2817 25.7589 46.9034 24.0422 45.8422C22.0766 44.6268 20.6459 42.8058 19.9037 40.5758C18.4602 36.2372 19.2337 29.8013 22.2019 21.4454C22.2999 21.1691 22.6035 21.0245 22.8799 21.1225C23.1562 21.2205 23.3008 21.5241 23.2028 21.8005C20.3158 29.9274 19.5446 36.132 20.9118 40.2401C22.3609 44.5955 26.4152 46.219 28.6306 46.219C28.9238 46.219 29.1616 46.4567 29.1616 46.7499C29.1616 47.0432 28.9238 47.2809 28.6306 47.2809V47.2817Z" fill="#F17930"/>
<path d="M22.7018 22.1553C22.6423 22.1553 22.5821 22.1448 22.5226 22.1239C22.2463 22.0251 22.1025 21.7215 22.2021 21.4452C22.4375 20.7873 22.7162 20.2025 22.9612 19.6867C23.6866 18.1629 23.7284 17.8408 23.2408 17.5347C22.8938 17.317 22.5837 17.46 22.4664 17.5323C22.2423 17.6697 22.1041 17.901 22.1226 18.1075C22.1491 18.3999 21.933 18.6577 21.6414 18.6834C21.3482 18.7115 21.0912 18.4939 21.0655 18.2023C21.0108 17.5942 21.3434 16.9756 21.9129 16.627C22.5082 16.2623 23.2167 16.2647 23.8071 16.6358C25.1815 17.4986 24.5405 18.8433 23.922 20.1438C23.6874 20.637 23.4207 21.1961 23.203 21.8042C23.1251 22.0211 22.9211 22.1561 22.7034 22.1561L22.7018 22.1553Z" fill="#F17930"/>
<path d="M33.9616 43.1554C28.9812 43.1554 25.5069 41.4629 23.6336 38.1236C21.0141 33.4532 23.8513 24.4403 25.7768 19.4831C25.927 19.0807 26.0042 18.6469 26.0042 18.2011C26.0042 16.6652 24.6498 15.4627 22.9219 15.4627C21.1941 15.4627 19.8622 16.727 19.8622 18.2806C19.8622 19.8342 21.1225 21.003 22.7324 21.0937C23.0247 21.1098 23.2489 21.3612 23.2328 21.6536C23.2167 21.946 22.9685 22.175 22.6729 22.1541C20.5016 22.032 18.8002 20.3306 18.8002 18.2806C18.8002 16.2306 20.6494 14.3999 22.9227 14.3999C25.196 14.3999 27.0677 16.0691 27.0677 18.2003C27.0677 18.7738 26.9681 19.3321 26.7705 19.8607C23.6079 28.0053 22.8038 34.4702 24.5615 37.6038C26.2556 40.6242 29.3314 42.0926 33.9632 42.0926C38.595 42.0926 41.67 40.6242 43.3641 37.6038C45.1218 34.4702 44.3176 28.0061 41.1575 19.8671C40.9575 19.3329 40.8579 18.7738 40.8579 18.2003C40.8579 16.0691 42.6781 14.3999 45.0029 14.3999C47.3276 14.3999 49.1246 16.1406 49.1246 18.2806C49.1246 20.4206 47.4232 22.032 45.2519 22.1541C44.9579 22.171 44.708 21.9468 44.692 21.6536C44.6751 21.3604 44.8992 21.1098 45.1924 21.0937C46.8022 21.003 48.0626 19.7675 48.0626 18.2806C48.0626 16.7937 46.6898 15.4627 45.0029 15.4627C43.3159 15.4627 41.9198 16.666 41.9198 18.2011C41.9198 18.6477 41.9969 19.0807 42.1496 19.4896C44.0718 24.4403 46.9099 33.4532 44.2895 38.1236C42.4171 41.4621 38.942 43.1554 33.9616 43.1554Z" fill="#F17930"/>
<path d="M39.2921 47.2819C38.9989 47.2819 38.7611 47.0441 38.7611 46.7509C38.7611 46.4577 38.9989 46.2199 39.2921 46.2199C41.5076 46.2199 45.5618 44.5965 47.0109 40.241C48.3781 36.133 47.607 29.9292 44.7199 21.8014C44.6219 21.5251 44.7665 21.2215 45.0429 21.1234C45.3192 21.0254 45.6228 21.17 45.7208 21.4464C48.689 29.8022 49.4626 36.2382 48.0191 40.5768C47.2768 42.8068 45.8462 44.6278 43.8805 45.8432C42.1639 46.9044 40.3846 47.2827 39.2921 47.2827V47.2819Z" fill="#F17930"/>
<path d="M45.2213 22.155C45.0036 22.155 44.7988 22.02 44.7217 21.8031C44.504 21.1958 44.2381 20.6368 44.0027 20.1427C43.3834 18.8422 42.7432 17.4975 44.1176 16.6347C44.6976 16.2709 45.3964 16.262 45.9869 16.6115C46.554 16.9472 46.897 17.5537 46.8616 18.157C46.844 18.4494 46.5909 18.6719 46.3001 18.6558C46.0077 18.6382 45.7844 18.3867 45.8013 18.0943C45.8133 17.8879 45.6704 17.6589 45.4454 17.5256C45.3017 17.4405 45.0109 17.328 44.6815 17.5344C44.1939 17.8405 44.2357 18.1626 44.9611 19.6865C45.2069 20.2022 45.4848 20.787 45.7202 21.4449C45.819 21.7212 45.6752 22.0248 45.3996 22.1237C45.3402 22.1445 45.28 22.155 45.2205 22.155H45.2213Z" fill="#F17930"/>
<path d="M39.2929 50.2841H28.63C28.3368 50.2841 28.0991 50.0463 28.0991 49.7531V46.7512C28.0991 46.458 28.3368 46.2202 28.63 46.2202H39.2929C39.5861 46.2202 39.8239 46.458 39.8239 46.7512V49.7531C39.8239 50.0463 39.5861 50.2841 39.2929 50.2841ZM29.1602 49.2221H38.7612V47.2822H29.1602V49.2221Z" fill="#F17930"/>
<path d="M42.24 53.3909H25.6825C25.3893 53.3909 25.1516 53.1532 25.1516 52.86V50.8092C25.1516 49.9344 25.8978 49.2227 26.8144 49.2227H28.629C28.9222 49.2227 29.16 49.4604 29.16 49.7536C29.16 50.0468 28.9222 50.2846 28.629 50.2846H26.8144C26.4826 50.2846 26.2135 50.52 26.2135 50.8092V52.329H41.709V50.8092C41.709 50.52 41.4391 50.2846 41.1082 50.2846H39.2935C39.0003 50.2846 38.7626 50.0468 38.7626 49.7536C38.7626 49.4604 39.0003 49.2227 39.2935 49.2227H41.1082C42.0255 49.2227 42.771 49.9344 42.771 50.8092V52.86C42.771 53.1532 42.5332 53.3909 42.24 53.3909Z" fill="#F17930"/>
<path d="M42.2085 21.6933H25.7152C25.422 21.6933 25.1843 21.4555 25.1843 21.1623C25.1843 20.8691 25.422 20.6313 25.7152 20.6313H42.2085C42.5017 20.6313 42.7394 20.8691 42.7394 21.1623C42.7394 21.4555 42.5017 21.6933 42.2085 21.6933Z" fill="#F17930"/>
<path d="M33.9613 43.1554C33.6681 43.1554 33.4303 42.9176 33.4303 42.6244V20.2414C33.4303 19.9482 33.6681 19.7104 33.9613 19.7104C34.2545 19.7104 34.4922 19.9482 34.4922 20.2414V42.6244C34.4922 42.9176 34.2545 43.1554 33.9613 43.1554Z" fill="#F17930"/>
<path d="M31.294 42.9738C31.0008 42.9738 30.7631 42.7361 30.7631 42.4429V20.2414C30.7631 19.9482 31.0008 19.7104 31.294 19.7104C31.5872 19.7104 31.825 19.9482 31.825 20.2414V42.4421C31.825 42.7353 31.5872 42.973 31.294 42.973V42.9738Z" fill="#F17930"/>
<path d="M28.63 42.2902C28.3368 42.2902 28.0991 42.0525 28.0991 41.7593V20.2414C28.0991 19.9482 28.3368 19.7104 28.63 19.7104C28.9232 19.7104 29.161 19.9482 29.161 20.2414V41.7593C29.161 42.0525 28.9232 42.2902 28.63 42.2902Z" fill="#F17930"/>
<path d="M39.2921 42.2902C38.9989 42.2902 38.7611 42.0525 38.7611 41.7593V20.2414C38.7611 19.9482 38.9989 19.7104 39.2921 19.7104C39.5853 19.7104 39.8231 19.9482 39.8231 20.2414V41.7593C39.8231 42.0525 39.5853 42.2902 39.2921 42.2902Z" fill="#F17930"/>
<path d="M36.6285 42.9738C36.3353 42.9738 36.0975 42.7361 36.0975 42.4429V20.2414C36.0975 19.9482 36.3353 19.7104 36.6285 19.7104C36.9217 19.7104 37.1595 19.9482 37.1595 20.2414V42.4421C37.1595 42.7353 36.9217 42.973 36.6285 42.973V42.9738Z" fill="#F17930"/>
</g>
<defs>
<clipPath id="clip0_6660_8790">
<rect width="38.4" height="38.4" fill="white" transform="translate(14.4 14.3999)"/>
</clipPath>
</defs>
</svg>
