<svg width="68" height="68" viewBox="0 0 68 68" fill="none" xmlns="http://www.w3.org/2000/svg">
<path d="M21.1808 25.0774L25.8742 23.5129L25.092 16.212L23.5275 9.95415L20.1378 5.78223H47.2553L45.6908 8.38968L43.0834 14.6476L42.5619 23.7737L45.6908 24.8166L50.645 27.4241L54.2954 32.639L55.8599 37.8539L55.3384 44.3725L52.9917 49.3267L48.559 53.4986L43.6049 55.5846L45.9516 62.364H22.2238L24.049 55.5846L17.5303 51.6734L13.8799 46.4585L12.3154 40.9828L12.8369 34.4642L15.9659 29.2493L21.1808 25.0774Z" fill="white"/>
<path d="M34.0011 56.7732H28.4781C19.0763 56.7732 11.4263 49.1232 11.4263 39.7214C11.4263 30.3196 19.0763 22.6696 28.4781 22.6696C28.9142 22.6696 29.2679 23.0233 29.2679 23.4595C29.2679 23.8956 28.9142 24.2493 28.4781 24.2493C19.9462 24.2493 13.006 31.1895 13.006 39.7214C13.006 48.2533 19.9462 55.1935 28.4781 55.1935H34.0011C34.4372 55.1935 34.7909 55.5472 34.7909 55.9834C34.7909 56.4195 34.4372 56.7732 34.0011 56.7732Z" fill="#AB5622"/>
<path d="M12.8936 35.8522C12.6988 35.8522 12.5052 35.7805 12.3522 35.6371L9.69948 33.1385C8.19983 31.8587 7.28569 30.0735 7.12438 28.1066C6.96306 26.1337 7.57845 24.2159 8.85943 22.7067C11.5026 19.5914 16.188 19.2067 19.3044 21.8499L22.2428 24.3127C22.5773 24.5923 22.6215 25.0906 22.3407 25.4251C22.0611 25.7597 21.5616 25.8039 21.2283 25.5231L18.2863 23.0568C15.8307 20.974 12.1443 21.2763 10.0639 23.7283C9.05658 24.9161 8.57144 26.4241 8.6993 27.9763C8.82716 29.5286 9.5513 30.9386 10.7379 31.9459C10.7486 31.9543 10.7582 31.9639 10.7689 31.9734L13.436 34.4852C13.7539 34.7839 13.7682 35.2846 13.4695 35.6013C13.3141 35.7662 13.1051 35.8498 12.8947 35.8498L12.8936 35.8522Z" fill="#AB5622"/>
<path d="M39.5243 56.7732H34.0013C33.5651 56.7732 33.2114 56.4195 33.2114 55.9834C33.2114 55.5472 33.5651 55.1935 34.0013 55.1935H39.5243C48.0562 55.1935 54.9964 48.2533 54.9964 39.7214C54.9964 31.1895 48.0562 24.2493 39.5243 24.2493C39.0881 24.2493 38.7344 23.8956 38.7344 23.4595C38.7344 23.0233 39.0881 22.6696 39.5243 22.6696C48.9273 22.6696 56.5761 30.3196 56.5761 39.7214C56.5761 49.1232 48.9261 56.7732 39.5243 56.7732Z" fill="#AB5622"/>
<path d="M42.4069 24.5038C41.9707 24.5038 41.617 24.1501 41.617 23.714C41.617 15.6637 43.0808 9.80844 45.871 6.57971H22.1323C24.9237 9.80844 26.3863 15.6637 26.3863 23.714C26.3863 24.1501 26.0326 24.5038 25.5964 24.5038C25.1603 24.5038 24.8066 24.1501 24.8066 23.714C24.8066 14.8093 23.0249 8.83337 19.654 6.43393C19.3744 6.23437 19.2549 5.87709 19.3601 5.54968C19.4652 5.22226 19.7687 5 20.1129 5H47.8893C48.2334 5 48.5369 5.22226 48.6421 5.54968C48.7472 5.87709 48.6277 6.23437 48.3481 6.43393C44.9772 8.83456 43.1955 14.8093 43.1955 23.714C43.1955 24.1501 42.8418 24.5038 42.4057 24.5038H42.4069Z" fill="#AB5622"/>
<path d="M55.1084 35.8521C54.8981 35.8521 54.689 35.7685 54.5336 35.6036C54.2349 35.2857 54.2492 34.7863 54.5671 34.4875L57.2342 31.9757C57.2437 31.9662 57.2545 31.9578 57.2653 31.9483C59.7173 29.8679 60.0196 26.1815 57.9392 23.7307C55.8588 21.2786 52.1724 20.9763 49.7204 23.0567L46.7749 25.5255C46.4403 25.8063 45.942 25.7621 45.6624 25.4275C45.3816 25.0929 45.4258 24.5946 45.7604 24.315L48.7023 21.8486C51.8139 19.2078 56.5005 19.5926 59.1437 22.7078C61.7833 25.8182 61.4045 30.4928 58.3025 33.1384L55.6497 35.637C55.4967 35.7804 55.302 35.8521 55.1084 35.8521Z" fill="#AB5622"/>
<path d="M45.7672 63H22.2352C21.9867 63 21.7537 62.8829 21.6043 62.6845C21.4549 62.4862 21.4083 62.2293 21.4765 61.9903L23.4398 55.1935C23.5604 54.774 23.999 54.5326 24.4172 54.6533C24.8366 54.774 25.078 55.2126 24.9573 55.6308L23.2856 61.4179H44.7168L43.0451 55.6308C42.9244 55.2114 43.1658 54.774 43.5852 54.6533C44.0035 54.5326 44.442 54.774 44.5627 55.1935L46.526 61.9903C46.5953 62.2293 46.5475 62.4862 46.3981 62.6845C46.2488 62.8829 46.0157 63 45.7672 63Z" fill="#AB5622"/>
<path d="M44.1501 46.2542H23.8529C23.4167 46.2542 23.063 45.9005 23.063 45.4644V35.0636C23.063 34.6274 23.4167 34.2737 23.8529 34.2737H32.0967C32.5329 34.2737 32.8866 34.6274 32.8866 35.0636V41.3812C32.8866 41.8174 32.5329 42.1711 32.0967 42.1711H27.9742C27.5381 42.1711 27.1843 41.8174 27.1843 41.3812V39.1085C27.1843 38.6723 27.5381 38.3186 27.9742 38.3186C28.4104 38.3186 28.764 38.6723 28.764 39.1085V40.5914H31.3057V35.8535H24.6415V44.6745H43.3591V35.8535H36.6949V40.5914H39.2365V39.1085C39.2365 38.6723 39.5902 38.3186 40.0264 38.3186C40.4625 38.3186 40.8162 38.6723 40.8162 39.1085V41.3812C40.8162 41.8174 40.4625 42.1711 40.0264 42.1711H35.905C35.4689 42.1711 35.1152 41.8174 35.1152 41.3812V35.0636C35.1152 34.6274 35.4689 34.2737 35.905 34.2737H44.1489C44.5851 34.2737 44.9388 34.6274 44.9388 35.0636V45.4644C44.9388 45.9005 44.5851 46.2542 44.1489 46.2542H44.1501Z" fill="#AB5622"/>
<path d="M19.7602 46.2542H13.3147C12.8786 46.2542 12.5248 45.9005 12.5248 45.4644C12.5248 45.0282 12.8786 44.6745 13.3147 44.6745H18.9692V35.8535H12.8929C12.4567 35.8535 12.103 35.4997 12.103 35.0636C12.103 34.6274 12.4567 34.2737 12.8929 34.2737H19.759C20.1952 34.2737 20.5489 34.6274 20.5489 35.0636V45.4644C20.5489 45.9005 20.1952 46.2542 19.759 46.2542H19.7602Z" fill="#AB5622"/>
<path d="M15.6388 42.171H12.3001C11.864 42.171 11.5103 41.8173 11.5103 41.3812C11.5103 40.945 11.864 40.5913 12.3001 40.5913H14.8477V39.1084C14.8477 38.6722 15.2014 38.3185 15.6376 38.3185C16.0737 38.3185 16.4274 38.6722 16.4274 39.1084V41.3812C16.4274 41.8173 16.0737 42.171 15.6376 42.171H15.6388Z" fill="#AB5622"/>
<path d="M54.743 46.2542H48.2425C47.8063 46.2542 47.4526 45.9005 47.4526 45.4644V35.0636C47.4526 34.6274 47.8063 34.2737 48.2425 34.2737H55.1086C55.5448 34.2737 55.8985 34.6274 55.8985 35.0636C55.8985 35.4997 55.5448 35.8535 55.1086 35.8535H49.0323V44.6745H54.743C55.1791 44.6745 55.5328 45.0282 55.5328 45.4644C55.5328 45.9005 55.1791 46.2542 54.743 46.2542Z" fill="#AB5622"/>
<path d="M55.7027 42.171H52.3641C51.9279 42.171 51.5742 41.8173 51.5742 41.3812V39.1084C51.5742 38.6722 51.9279 38.3185 52.3641 38.3185C52.8002 38.3185 53.1539 38.6722 53.1539 39.1084V40.5913H55.7027C56.1389 40.5913 56.4926 40.945 56.4926 41.3812C56.4926 41.8173 56.1389 42.171 55.7027 42.171Z" fill="#AB5622"/>
<path d="M43.1821 15.5418H24.8206C24.3844 15.5418 24.0308 15.1881 24.0308 14.7519C24.0308 14.3157 24.3844 13.962 24.8206 13.962H43.1821C43.6182 13.962 43.9719 14.3157 43.9719 14.7519C43.9719 15.1881 43.6182 15.5418 43.1821 15.5418Z" fill="#AB5622"/>
</svg>
