<svg width="56" height="56" viewBox="0 0 56 56" fill="none" xmlns="http://www.w3.org/2000/svg">
<path d="M35.5897 45.2991C33.7649 44.7304 32.9527 47.7472 31.2525 46.6748C28.2473 44.7846 31.5773 37.9657 37.3386 40.5763C43.7334 43.4739 40.5712 56.5159 30.9655 53.4341C26.3467 51.9501 23.3794 43.9397 19.4916 40.4246C12.9777 34.5319 5.01802 34.1744 1.05442 42.916C-4.83682 55.9147 15.7988 59.8035 17.6235 48.6788C19.4483 37.5541 3.16076 35.0464 5.45119 46.5448C6.16052 50.1032 13.0643 50.2549 11.8081 45.2937C11.0013 44.4488 7.1081 49.3179 6.40419 44.9904C5.09382 36.9529 19.5945 39.6718 16.1616 49.3721C13.0752 58.0974 -2.17818 53.2554 1.8179 44.2051C1.77458 50.0057 7.24889 54.4524 12.5445 51.154C19.7461 46.6694 9.07907 37.6299 8.0232 43.9343C7.66583 46.0791 10.2216 43.3168 11.0013 43.3114C14.1527 43.2952 15.3927 50.9536 8.83541 50.7423C-0.120582 50.4607 1.92078 33.4324 13.8116 38.1553C21.4139 41.1829 25.7457 53.8403 30.5702 54.9182C36.8459 56.3155 42.6343 52.3347 42.0549 45.6349C41.3997 38.0253 29.5414 36.8392 29.2977 44.0318C29.1245 49.1717 36.1474 51.1594 35.5897 45.3045L35.5897 45.2991Z" fill="#F17930"/>
<path d="M41.19 20.2389C45.2185 24.3118 54.2124 26.9007 54.0013 33.6546C53.828 39.1032 48.6298 41.7138 43.6753 40.1919C38.9049 38.7241 38.9104 30.1287 43.9731 30.1341C49.6857 30.1395 44.7854 35.0845 45.3268 35.5665C50.7957 36.3627 49.3608 29.7225 44.9099 29.1809C38.0657 28.3468 37.0693 39.2007 44.0002 41.4863C50.9311 43.7719 57.3367 36.9097 54.5536 29.8471C52.5555 24.783 41.2225 21.4088 38.1902 13.7775C33.501 1.95949 50.4925 -0.15822 50.7741 8.80004C50.8878 12.3801 48.1425 14.774 44.7799 13.1329C41.8397 11.6977 44.3522 9.83452 44.7799 8.80004C45.3214 7.46768 42.9768 7.79264 42.3596 9.08168C39.6034 14.8282 51.4238 17.6771 52.2361 9.73162C52.7125 5.07375 49.1713 2.0299 44.7908 1.78617C47.1949 -0.472349 51.4726 2.28445 52.8154 4.57006C57.0606 11.8006 49.5449 20.0818 42.652 15.2777C38.1956 12.1743 40.2803 4.91127 45.4839 6.48195C49.1226 7.58142 44.3955 10.9015 45.3323 11.7843C49.8427 13.03 50.4817 6.68234 46.935 5.60995C35.3691 2.12739 37.5837 19.9464 49.1442 17.4875C60.0495 15.1694 55.5174 -5.51476 42.2567 1.41246C33.4469 6.01074 35.1092 14.0916 41.19 20.2443L41.19 20.2389Z" fill="#F17930"/>
<path d="M36.1391 33.9416L37.7527 33.9416C37.0433 25.4925 50.8401 25.4437 50.7481 33.14C50.6722 39.3361 42.4689 38.2474 43.4381 34.4128C43.6872 33.4217 44.9813 32.9451 44.781 31.7806C43.5681 31.7806 42.3173 32.4522 42.079 33.6654C40.2705 42.8024 56.5256 38.9786 51.1866 29.9662C47.4613 23.6781 35.3756 25.6171 36.1391 33.9416Z" fill="#F17930"/>
<path d="M37.5991 42.7533C36.4458 41.8272 34.1987 41.838 32.8558 42.2876L32.3577 44.7519C38.5575 39.5632 39.8354 51.3596 32.6771 50.6988C27.2949 50.2005 25.6921 42.033 29.9048 38.7942C31.1339 37.8518 33.5218 37.7488 33.9658 36.9093C34.6698 35.5824 31.8108 36.189 31.2531 36.3623C23.4829 38.7725 25.4593 51.8957 33.2403 52.1341C38.1893 52.2857 40.8859 45.4072 37.5937 42.7533L37.5991 42.7533Z" fill="#F17930"/>
<path d="M55.0518 39.8881C51.8192 41.1771 54.2613 52.578 53.4328 53.4121C49.3393 54.0891 42.9336 51.7819 39.9176 55.0315L55.0518 55.0315L55.0518 39.8935L55.0518 39.8881Z" fill="#F17930"/>
<path d="M26.9441 55.0267C24.0147 52.2699 22.6665 48.1699 19.3797 45.8355C19.8724 49.5185 18.2047 52.2428 16.1309 55.0267L26.9387 55.0267L26.9441 55.0267ZM21.5294 49.6268L23.6953 53.9489L18.8382 53.9489C19.1306 53.3043 20.5168 48.6573 21.5294 49.6268Z" fill="#F17930"/>
<path d="M55.0518 16.1008C52.3445 18.381 49.5342 19.8813 45.863 19.3505C48.1968 22.6381 52.2957 23.9867 55.0518 26.9168L55.0518 16.1062L55.0518 16.1008ZM53.9689 18.8089L53.9689 23.6671L49.6533 21.4953C48.7382 20.4283 53.2758 19.1447 53.9689 18.8035L53.9689 18.8089Z" fill="#F17930"/>
<path d="M51.8078 42.5909C48.7322 42.3796 50.8548 49.4964 50.1888 50.1626L43.5232 50.2547L42.619 51.782L51.8078 51.782L51.8078 42.5909Z" fill="#F17930"/>
<path d="M48.5637 43.6747C46.3058 43.1656 46.8852 44.9746 46.0242 45.8682C45.1633 46.7619 43.1111 46.4098 43.7013 48.5384L48.0602 48.3055L48.5637 43.6747Z" fill="#F17930"/>
</svg>
