<svg width="68" height="68" viewBox="0 0 68 68" fill="none" xmlns="http://www.w3.org/2000/svg">
<g clip-path="url(#clip0_6690_6188)">
<path d="M26.9996 11.6539L26.1919 10.0385L29.4227 11.3847L30.7689 13.8077L30.2304 18.6539L32.9227 15.6924L34.8073 11.1154V6.80774L36.4227 7.3462L38.0381 10.577V15.1539L37.2304 20.2693L38.8458 22.1539L41.5381 21.6154L43.1535 19.4616V17.8462H44.2304L45.3073 20V23.5L43.1535 27.8077L38.8458 29.4231L30.2304 29.1539L26.1919 28.077L24.8458 26.4616L24.0381 23.7693V20.2693L26.9996 14.3462V11.6539Z" fill="white"/>
<path d="M38.6742 29.7034C38.3674 29.7034 38.1185 29.4546 38.1185 29.1477C38.1185 28.8409 38.3674 28.592 38.6742 28.592C41.0316 28.592 43.1451 27.2712 43.9346 25.3057C44.8114 23.119 44.882 20.4959 44.1019 19.0692C43.9581 18.8069 43.7908 18.5942 43.6 18.4337C43.547 20.5254 42.2969 21.9764 40.9315 22.5355C39.557 23.0988 38.1479 22.7558 37.34 21.6628C36.4951 20.5186 36.8448 18.7077 37.2509 16.6102C37.8789 13.3642 38.5826 9.7205 35.2113 7.59518C35.6224 10.6831 34.5488 14.2335 33.1625 16.6026C32.6665 17.45 31.6677 18.912 30.5479 19.1844C30.3621 19.2298 30.1654 19.176 30.0283 19.0423C29.8913 18.9087 29.8324 18.7136 29.8728 18.527C30.5311 15.4836 30.3116 13.2019 29.2364 11.9282C28.7529 11.3557 28.0863 10.99 27.2447 10.8344C28.5865 12.98 27.0757 15.8165 25.2363 19.271C24.0895 21.4249 24.0534 24.0959 25.148 25.9185C26.198 27.6672 28.1813 28.592 30.8825 28.592C31.1893 28.592 31.4382 28.8409 31.4382 29.1477C31.4382 29.4546 31.1893 29.7034 30.8825 29.7034C26.9496 29.7034 25.0748 27.9564 24.1954 26.4902C22.8873 24.3119 22.9108 21.2728 24.256 18.7481C26.7495 14.067 27.5087 12.1544 25.5692 10.6377C25.3859 10.4948 25.3111 10.2518 25.3817 10.0307C25.4523 9.80878 25.6541 9.65493 25.8861 9.64484C27.7264 9.56329 29.1405 10.0904 30.0863 11.2111C31.2162 12.5503 31.5946 14.6874 31.1986 17.4391C31.5021 17.1112 31.8434 16.6539 32.2024 16.0402C33.6055 13.6424 34.7355 9.69865 33.899 6.70486C33.841 6.49721 33.9082 6.27526 34.0713 6.13486C34.2344 5.99446 34.4639 5.96084 34.6606 6.04743C39.9681 8.40984 39.029 13.2708 38.3421 16.8203C38.0008 18.5841 37.6788 20.2505 38.2345 21.0012C38.8356 21.815 39.805 21.7948 40.5112 21.5056C41.6789 21.0273 42.729 19.6418 42.4423 17.6224C42.4171 17.445 42.4793 17.2659 42.6088 17.1423C42.7382 17.0187 42.9207 16.9649 43.0964 16.9986C43.9304 17.1575 44.6147 17.6888 45.0779 18.5345C46.0187 20.2563 45.9733 23.2098 44.967 25.7185C44.0111 28.1019 41.4822 29.7026 38.6751 29.7026L38.6742 29.7034Z" fill="#05589C"/>
<path d="M46.6535 46.6538L44.4997 46.3846L44.7689 416.308H23.4997L24.0382 46.3846H21.6151L18.3843 45.0384L16.7689 42.8846L16.2305 39.1153L17.3074 35.8846L20.2689 33.4615L22.9612 32.923L21.8843 29.1538H46.3843L45.0382 32.6538L47.9997 33.4615L50.9612 35.8846L52.0382 38.8461L51.4997 42.8846L49.6151 45.5769L46.6535 46.6538Z" fill="white"/>
<path d="M24.1399 58.652C24.1348 58.652 24.1306 58.652 24.1256 58.652C23.8187 58.6444 23.5766 58.3897 23.5842 58.0829L23.614 46.1713C23.6216 45.8644 23.8797 45.6189 24.1832 45.6299C24.49 45.6374 24.7322 45.8922 24.7246 46.199L24.6947 58.1106C24.6872 58.4124 24.44 58.652 24.1399 58.652Z" fill="#05589C"/>
<path d="M28.8477 60.8056H28.8419C28.535 60.8022 28.2887 60.5508 28.292 60.244L28.5148 46.9318C28.5182 46.6267 28.7662 46.382 29.0705 46.382H29.0764C29.3833 46.3854 29.6296 46.6368 29.6262 46.9436L29.4034 60.2558C29.4001 60.5609 29.1521 60.8056 28.8477 60.8056Z" fill="#05589C"/>
<path d="M34.1016 58.6517C33.7947 58.6517 33.5459 58.4029 33.5459 58.096V46.9377C33.5459 46.6309 33.7947 46.382 34.1016 46.382C34.4085 46.382 34.6573 46.6309 34.6573 46.9377V58.096C34.6573 58.4029 34.4085 58.6517 34.1016 58.6517Z" fill="#05589C"/>
<path d="M45.9738 47.0802C44.701 47.0802 43.4929 46.6943 42.4992 45.9259C40.848 44.6497 40.1973 42.6152 40.7589 40.4848C41.2759 38.5234 42.6219 37.2228 44.3605 37.0076C45.9007 36.8168 47.3652 37.5465 48.0941 38.8673C48.575 39.7391 48.5103 40.848 47.9285 41.6938C47.3551 42.5269 46.3967 42.9363 45.3643 42.7917C45.0608 42.7489 44.849 42.4681 44.891 42.1637C44.9339 41.8602 45.213 41.6484 45.519 41.6904C46.1327 41.777 46.6792 41.5483 47.013 41.0624C47.3577 40.5613 47.4005 39.9098 47.1206 39.4037C46.6119 38.4831 45.5821 37.9753 44.4967 38.1098C43.2255 38.2678 42.2293 39.2607 41.8333 40.7673C41.3894 42.4521 41.8922 44.052 43.1785 45.0465C44.7254 46.242 46.9482 46.2757 48.9811 45.1331C51.0038 43.9965 51.9379 41.1338 51.2031 38.3267C50.3716 35.1513 47.852 33.2547 44.4631 33.2547H23.8017C20.4128 33.2547 17.8932 35.1505 17.0617 38.3259C16.3269 41.133 17.2618 43.9956 19.2837 45.1323C21.3157 46.274 23.5394 46.2412 25.0855 45.0457C26.3718 44.0511 26.8745 42.4512 26.4306 40.7665C26.0338 39.2599 25.0384 38.267 23.7672 38.109C22.681 37.9744 21.6511 38.4822 21.1434 39.4028C20.8642 39.9089 20.9063 40.5605 21.251 41.0615C21.5856 41.5475 22.1304 41.7761 22.7449 41.6896C23.0493 41.6467 23.3301 41.8585 23.3729 42.1629C23.4158 42.4672 23.2039 42.748 22.8996 42.7909C21.8664 42.9355 20.9088 42.5252 20.3354 41.6929C19.7537 40.848 19.6889 39.7383 20.1698 38.8664C20.8987 37.5457 22.3641 36.8159 23.9034 37.0068C25.642 37.2228 26.988 38.5226 27.505 40.484C28.0658 42.6143 27.4151 44.6489 25.7648 45.9251C23.8589 47.3988 21.1661 47.4661 18.7381 46.1016C16.2428 44.6993 15.1104 41.3861 15.9856 38.0451C16.7321 35.1917 19.1778 32.1432 23.8008 32.1432H44.4622C49.0853 32.1432 51.531 35.1917 52.2775 38.0451C53.1519 41.3861 52.0203 44.6993 49.525 46.1016C48.3632 46.7549 47.1408 47.0794 45.973 47.0794L45.9738 47.0802Z" fill="#05589C"/>
<path d="M40.4631 37.2069H27.8086C27.5018 37.2069 27.2529 36.958 27.2529 36.6512C27.2529 36.3443 27.5018 36.0955 27.8086 36.0955H40.4631C40.7699 36.0955 41.0188 36.3443 41.0188 36.6512C41.0188 36.958 40.7699 37.2069 40.4631 37.2069Z" fill="#05589C"/>
<path d="M29.7598 41.8182C29.453 41.8182 29.2041 41.5693 29.2041 41.2625V39.5928C29.2041 39.286 29.453 39.0371 29.7598 39.0371C30.0667 39.0371 30.3155 39.286 30.3155 39.5928V41.2625C30.3155 41.5693 30.0667 41.8182 29.7598 41.8182Z" fill="#05589C"/>
<path d="M32.6944 41.8182C32.3875 41.8182 32.1387 41.5693 32.1387 41.2625V39.5928C32.1387 39.286 32.3875 39.0371 32.6944 39.0371C33.0012 39.0371 33.2501 39.286 33.2501 39.5928V41.2625C33.2501 41.5693 33.0012 41.8182 32.6944 41.8182Z" fill="#05589C"/>
<path d="M35.5743 41.8182C35.2674 41.8182 35.0186 41.5693 35.0186 41.2625V39.5928C35.0186 39.286 35.2674 39.0371 35.5743 39.0371C35.8811 39.0371 36.13 39.286 36.13 39.5928V41.2625C36.13 41.5693 35.8811 41.8182 35.5743 41.8182Z" fill="#05589C"/>
<path d="M38.5127 41.8182C38.2059 41.8182 37.957 41.5693 37.957 41.2625V39.5928C37.957 39.286 38.2059 39.0371 38.5127 39.0371C38.8196 39.0371 39.0685 39.286 39.0685 39.5928V41.2625C39.0685 41.5693 38.8196 41.8182 38.5127 41.8182Z" fill="#05589C"/>
<path d="M41.5549 44.4577H26.7188C26.4119 44.4577 26.1631 44.2089 26.1631 43.902C26.1631 43.5952 26.4119 43.3463 26.7188 43.3463H41.5549C41.8617 43.3463 42.1106 43.5952 42.1106 43.902C42.1106 44.2089 41.8617 44.4577 41.5549 44.4577Z" fill="#05589C"/>
<path d="M44.1298 58.652C43.8297 58.652 43.5817 58.4124 43.575 58.1106L43.5451 46.199C43.5375 45.8922 43.7796 45.6374 44.0865 45.6299C44.3942 45.6189 44.6481 45.8644 44.6557 46.1713L44.6855 58.0829C44.6931 58.3897 44.451 58.6444 44.1441 58.652C44.1391 58.652 44.1349 58.652 44.1298 58.652Z" fill="#05589C"/>
<path d="M39.4231 60.8056C39.1187 60.8056 38.8707 60.5602 38.8674 60.2558L38.6446 46.9437C38.6412 46.6369 38.8875 46.3855 39.1944 46.3821C39.5021 46.3762 39.7526 46.6251 39.756 46.9319L39.9788 60.2441C39.9821 60.5509 39.7358 60.8023 39.429 60.8056H39.4231Z" fill="#05589C"/>
<path d="M45.0592 33.2553C44.9986 33.2553 44.9364 33.2452 44.8759 33.2242C44.5858 33.1233 44.4337 32.8064 44.5345 32.5163L45.5081 29.7268H22.6852L23.6588 32.5163C23.7597 32.8064 23.6067 33.1233 23.3175 33.2242C23.0274 33.3251 22.7105 33.1721 22.6096 32.8829L21.3779 29.3544C21.3182 29.1846 21.3451 28.9963 21.4494 28.8491C21.5536 28.702 21.7226 28.6154 21.9025 28.6154H46.2908C46.4707 28.6154 46.6397 28.7029 46.7439 28.8491C46.8482 28.9963 46.8751 29.1846 46.8154 29.3544L45.5838 32.8829C45.5039 33.1116 45.2887 33.2553 45.0592 33.2553Z" fill="#05589C"/>
</g>
<defs>
<clipPath id="clip0_6690_6188">
<rect width="36.6154" height="56" fill="white" transform="translate(15.6924 6)"/>
</clipPath>
</defs>
</svg>
