<svg width="101" height="68" viewBox="0 0 101 68" fill="none" xmlns="http://www.w3.org/2000/svg">
<path d="M29.658 59.7493C28.1374 59.2754 27.4605 61.7893 26.0437 60.8957C23.5393 59.3205 26.3144 53.6381 31.1155 55.8136C36.4445 58.2282 33.8093 69.0966 25.8045 66.5285C21.9555 65.2918 19.4828 58.6164 16.243 55.6872C10.8147 50.7766 4.18163 50.4787 0.878632 57.7634C-4.03074 68.5956 13.1656 71.8362 14.6862 62.5657C16.2069 53.2951 2.63391 51.2053 4.54261 60.7874C5.13372 63.7527 10.8869 63.8791 9.84003 59.7448C9.1677 59.0407 5.92337 63.0982 5.33677 59.492C4.2448 52.7941 16.3287 55.0598 13.4679 63.1434C10.8959 70.4145 -1.8152 66.3795 1.51486 58.8376C1.47876 63.6714 6.04069 67.377 10.4537 64.6283C16.455 60.8912 7.56584 53.3583 6.68594 58.6119C6.38813 60.3992 8.51793 58.0974 9.1677 58.0928C11.7939 58.0793 12.8272 64.4613 7.36279 64.2853C-0.100536 64.0506 1.6006 49.8603 11.5096 53.7961C17.8448 56.3191 21.4547 66.867 25.4751 67.7651C30.7049 68.9296 35.5285 65.6122 35.0457 60.0291C34.4997 53.6877 24.6178 52.6993 24.4147 58.6931C24.2703 62.9764 30.1228 64.6328 29.658 59.7538L29.658 59.7493Z" fill="#05589C" fill-opacity="0.2"/>
<path d="M34.325 38.8656C37.6821 42.2597 45.177 44.4171 45.001 50.0454C44.8566 54.5859 40.5248 56.7614 36.3961 55.4931C32.4208 54.2699 32.4253 47.1071 36.6443 47.1116C41.4047 47.1161 37.3211 51.2369 37.7723 51.6386C42.3298 52.3021 41.134 46.7686 37.4249 46.3173C31.7214 45.6222 30.8911 54.6671 36.6668 56.5718C42.4426 58.4765 47.7806 52.7579 45.4613 46.8724C43.7962 42.6524 34.352 39.8405 31.8251 33.4811C27.9175 23.6328 42.0771 21.868 42.3117 29.3332C42.4065 32.3166 40.1187 34.3115 37.3166 32.944C34.8664 31.7479 36.9601 30.1953 37.3166 29.3332C37.7678 28.2229 35.814 28.4937 35.2996 29.5679C33.0029 34.3567 42.8532 36.7307 43.53 30.1095C43.9271 26.228 40.9761 23.6914 37.3256 23.4883C39.3291 21.6062 42.8938 23.9036 44.0128 25.8082C47.5505 31.8337 41.2874 38.7347 35.5433 34.7313C31.8297 32.1451 33.5669 26.0926 37.9032 27.4015C40.9355 28.3177 36.9962 31.0844 37.7769 31.8201C41.5356 32.8582 42.068 27.5685 39.1125 26.6748C29.4742 23.7727 31.3198 38.6219 40.9535 36.5728C50.0413 34.641 46.2645 17.4042 35.2139 23.1769C27.8724 27.0088 29.2577 33.7428 34.325 38.8701L34.325 38.8656Z" fill="#05589C" fill-opacity="0.2"/>
<path d="M30.1159 50.285L31.4606 50.285C30.8695 43.244 42.3668 43.2034 42.2901 49.617C42.2269 54.7804 35.3908 53.8732 36.1985 50.6776C36.4061 49.8517 37.4845 49.4545 37.3175 48.4841C36.3068 48.4841 35.2645 49.0438 35.0659 50.0548C33.5588 57.669 47.1047 54.4825 42.6556 46.9721C39.5511 41.732 29.4797 43.3478 30.1159 50.285Z" fill="#05589C" fill-opacity="0.2"/>
<path d="M31.3326 57.628C30.3715 56.8562 28.4989 56.8652 27.3799 57.2398L26.9647 59.2935C32.1313 54.9696 33.1962 64.7998 27.231 64.2492C22.7458 63.834 21.4101 57.0277 24.9207 54.3287C25.945 53.5433 27.9349 53.4576 28.3049 52.758C28.8915 51.6522 26.509 52.1577 26.0442 52.3022C19.5691 54.3106 21.2161 65.2467 27.7003 65.4453C31.8245 65.5716 34.0716 59.8396 31.3281 57.628L31.3326 57.628Z" fill="#05589C" fill-opacity="0.2"/>
<path d="M45.8766 55.2405C43.1828 56.3147 45.2178 65.8154 44.5274 66.5105C41.1161 67.0747 35.7781 65.152 33.2647 67.86L45.8766 67.86L45.8766 55.245L45.8766 55.2405Z" fill="#05589C" fill-opacity="0.2"/>
<path d="M22.4533 67.8554C20.0122 65.5581 18.8886 62.1414 16.1497 60.1961C16.5603 63.2652 15.1705 65.5355 13.4423 67.8554L22.4488 67.8554L22.4533 67.8554ZM17.941 63.3555L19.746 66.9572L15.6984 66.9572C15.9421 66.4201 17.0972 62.5476 17.941 63.3555Z" fill="#05589C" fill-opacity="0.2"/>
<path d="M45.8766 35.4175C43.6204 37.3177 41.2786 38.5679 38.2192 38.1256C40.164 40.8652 43.5798 41.9891 45.8766 44.4308L45.8766 35.422L45.8766 35.4175ZM44.9741 37.6742L44.9741 41.7228L41.3778 39.9129C40.6153 39.0238 44.3966 37.9541 44.9741 37.6697L44.9741 37.6742Z" fill="#05589C" fill-opacity="0.2"/>
<path d="M43.1731 57.4926C40.6101 57.3166 42.3789 63.2472 41.8239 63.8024L36.2693 63.8791L35.5157 65.1519L43.1731 65.1519L43.1731 57.4926Z" fill="#05589C" fill-opacity="0.2"/>
<path d="M40.4697 58.3955C38.5881 57.9713 39.0709 59.4787 38.3535 60.2235C37.636 60.9682 35.9259 60.6748 36.4177 62.4486L40.0501 62.2545L40.4697 58.3955Z" fill="#05589C" fill-opacity="0.2"/>
<path d="M70.4387 59.7493C71.9594 59.2754 72.6362 61.7893 74.0531 60.8957C76.5574 59.3205 73.7823 53.6381 68.9813 55.8136C63.6522 58.2282 66.2874 69.0966 74.2922 66.5285C78.1412 65.2918 80.6139 58.6164 83.8538 55.6872C89.282 50.7766 95.9151 50.4787 99.2181 57.7634C104.127 68.5956 86.9311 71.8362 85.4105 62.5657C83.8898 53.2951 97.4628 51.2053 95.5541 60.7874C94.963 63.7527 89.2098 63.8791 90.2567 59.7448C90.929 59.0407 94.1734 63.0982 94.76 59.492C95.8519 52.7941 83.768 55.0598 86.6288 63.1434C89.2008 70.4145 101.912 66.3795 98.5819 58.8376C98.618 63.6714 94.056 67.377 89.643 64.6283C83.6417 60.8912 92.5309 53.3583 93.4108 58.6119C93.7086 60.3992 91.5788 58.0974 90.929 58.0928C88.3029 58.0793 87.2696 64.4613 92.7339 64.2853C100.197 64.0506 98.4961 49.8603 88.5871 53.7961C82.2519 56.3191 78.6421 66.867 74.6216 67.7651C69.3919 68.9296 64.5682 65.6122 65.051 60.0291C65.597 53.6877 75.4789 52.6993 75.682 58.6931C75.8264 62.9764 69.974 64.6328 70.4387 59.7538L70.4387 59.7493Z" fill="#05589C" fill-opacity="0.2"/>
<path d="M65.7718 38.8656C62.4146 42.2597 54.9197 44.4171 55.0957 50.0454C55.2401 54.5859 59.5719 56.7614 63.7006 55.4931C67.676 54.2699 67.6714 47.1071 63.4525 47.1116C58.692 47.1161 62.7756 51.2369 62.3244 51.6386C57.767 52.3021 58.9627 46.7686 62.6718 46.3173C68.3754 45.6222 69.2056 54.6671 63.4299 56.5718C57.6542 58.4765 52.3161 52.7579 54.6354 46.8724C56.3005 42.6524 65.7447 39.8405 68.2716 33.4811C72.1792 23.6328 58.0197 21.868 57.785 29.3332C57.6903 32.3166 59.978 34.3115 62.7801 32.944C65.2303 31.7479 63.1366 30.1953 62.7801 29.3332C62.3289 28.2229 64.2827 28.4937 64.7971 29.5679C67.0939 34.3567 57.2435 36.7307 56.5667 30.1095C56.1696 26.228 59.1207 23.6914 62.7711 23.4883C60.7676 21.6062 57.2029 23.9036 56.0839 25.8082C52.5463 31.8337 58.8093 38.7347 64.5535 34.7313C68.2671 32.1451 66.5298 26.0926 62.1935 27.4015C59.1613 28.3177 63.1005 31.0844 62.3199 31.8201C58.5611 32.8582 58.0287 27.5685 60.9842 26.6748C70.6225 23.7727 68.777 38.6219 59.1432 36.5728C50.0555 34.641 53.8323 17.4042 64.8828 23.1769C72.2243 27.0088 70.8391 33.7428 65.7718 38.8701L65.7718 38.8656Z" fill="#05589C" fill-opacity="0.2"/>
<path d="M69.9808 50.285L68.6361 50.285C69.2272 43.244 57.7299 43.2034 57.8066 49.617C57.8698 54.7804 64.7059 53.8732 63.8982 50.6776C63.6907 49.8517 62.6122 49.4545 62.7792 48.4841C63.7899 48.4841 64.8323 49.0438 65.0308 50.0548C66.5379 57.669 52.992 54.4825 57.4411 46.9721C60.5456 41.732 70.617 43.3478 69.9808 50.285Z" fill="#05589C" fill-opacity="0.2"/>
<path d="M68.7641 57.628C69.7252 56.8562 71.5978 56.8652 72.7168 57.2398L73.132 59.2935C67.9654 54.9696 66.9005 64.7998 72.8658 64.2492C77.351 63.834 78.6866 57.0277 75.176 54.3287C74.1518 53.5433 72.1618 53.4576 71.7918 52.758C71.2052 51.6522 73.5877 52.1577 74.0525 52.3022C80.5276 54.3106 78.8806 65.2467 72.3965 65.4453C68.2722 65.5716 66.0251 59.8396 68.7686 57.628L68.7641 57.628Z" fill="#05589C" fill-opacity="0.2"/>
<path d="M54.2201 55.2405C56.914 56.3147 54.8789 65.8154 55.5693 66.5105C58.9806 67.0747 64.3186 65.152 66.832 67.86L54.2201 67.86L54.2201 55.245L54.2201 55.2405Z" fill="#05589C" fill-opacity="0.2"/>
<path d="M77.6434 67.8554C80.0845 65.5581 81.2081 62.1414 83.9471 60.1961C83.5364 63.2652 84.9262 65.5355 86.6544 67.8554L77.6479 67.8554L77.6434 67.8554ZM82.1557 63.3555L80.3508 66.9572L84.3983 66.9572C84.1546 66.4201 82.9995 62.5476 82.1557 63.3555Z" fill="#05589C" fill-opacity="0.2"/>
<path d="M54.2201 35.4175C56.4763 37.3177 58.8182 38.5679 61.8775 38.1256C59.9327 40.8652 56.5169 41.9891 54.2201 44.4308L54.2201 35.422L54.2201 35.4175ZM55.1226 37.6742L55.1226 41.7228L58.7189 39.9129C59.4815 39.0238 55.7002 37.9541 55.1226 37.6697L55.1226 37.6742Z" fill="#05589C" fill-opacity="0.2"/>
<path d="M56.9236 57.4926C59.4866 57.3166 57.7178 63.2472 58.2728 63.8024L63.8274 63.8791L64.581 65.1519L56.9236 65.1519L56.9236 57.4926Z" fill="#05589C" fill-opacity="0.2"/>
<path d="M59.627 58.3955C61.5086 57.9713 61.0258 59.4787 61.7433 60.2235C62.4607 60.9682 64.1709 60.6748 63.679 62.4486L60.0466 62.2545L59.627 58.3955Z" fill="#05589C" fill-opacity="0.2"/>
</svg>
