<svg width="68" height="68" viewBox="0 0 68 68" fill="none" xmlns="http://www.w3.org/2000/svg">
<path d="M21.1817 25.0774L25.8752 23.5129L25.0929 16.212L23.5285 9.95415L20.1388 5.78223H47.2563L45.6918 8.38968L43.0844 14.6476L42.5629 23.7737L45.6918 24.8166L50.646 27.4241L54.2964 32.639L55.8609 37.8539L55.3394 44.3725L52.9927 49.3267L48.56 53.4986L43.6058 55.5846L45.9526 62.364H22.2247L24.0499 55.5846L17.5313 51.6734L13.8809 46.4585L12.3164 40.9828L12.8379 34.4642L15.9668 29.2493L21.1817 25.0774Z" fill="white"/>
<path d="M34.0016 56.7732H28.4785C19.0768 56.7732 11.4268 49.1232 11.4268 39.7214C11.4268 30.3196 19.0768 22.6696 28.4785 22.6696C28.9147 22.6696 29.2684 23.0233 29.2684 23.4595C29.2684 23.8956 28.9147 24.2493 28.4785 24.2493C19.9467 24.2493 13.0065 31.1895 13.0065 39.7214C13.0065 48.2533 19.9467 55.1935 28.4785 55.1935H34.0016C34.4377 55.1935 34.7914 55.5472 34.7914 55.9834C34.7914 56.4195 34.4377 56.7732 34.0016 56.7732Z" fill="#9A7137"/>
<path d="M12.894 35.8522C12.6993 35.8522 12.5057 35.7805 12.3527 35.6371L9.69997 33.1385C8.20032 31.8587 7.28618 30.0735 7.12486 28.1066C6.96355 26.1337 7.57894 24.2159 8.85992 22.7067C11.5031 19.5914 16.1885 19.2067 19.3049 21.8499L22.2433 24.3127C22.5778 24.5923 22.622 25.0906 22.3412 25.4251C22.0616 25.7597 21.5621 25.8039 21.2287 25.5231L18.2868 23.0568C15.8312 20.974 12.1448 21.2763 10.0644 23.7283C9.05706 24.9161 8.57193 26.4241 8.69979 27.9763C8.82765 29.5286 9.55179 30.9386 10.7384 31.9459C10.7491 31.9543 10.7587 31.9639 10.7694 31.9734L13.4365 34.4852C13.7544 34.7839 13.7687 35.2846 13.47 35.6013C13.3146 35.7662 13.1055 35.8498 12.8952 35.8498L12.894 35.8522Z" fill="#9A7137"/>
<path d="M39.5248 56.7732H34.0018C33.5656 56.7732 33.2119 56.4195 33.2119 55.9834C33.2119 55.5472 33.5656 55.1935 34.0018 55.1935H39.5248C48.0566 55.1935 54.9969 48.2533 54.9969 39.7214C54.9969 31.1895 48.0566 24.2493 39.5248 24.2493C39.0886 24.2493 38.7349 23.8956 38.7349 23.4595C38.7349 23.0233 39.0886 22.6696 39.5248 22.6696C48.9278 22.6696 56.5766 30.3196 56.5766 39.7214C56.5766 49.1232 48.9266 56.7732 39.5248 56.7732Z" fill="#9A7137"/>
<path d="M42.4069 24.5038C41.9707 24.5038 41.617 24.1501 41.617 23.714C41.617 15.6637 43.0808 9.80844 45.871 6.57971H22.1323C24.9237 9.80844 26.3863 15.6637 26.3863 23.714C26.3863 24.1501 26.0326 24.5038 25.5964 24.5038C25.1603 24.5038 24.8066 24.1501 24.8066 23.714C24.8066 14.8093 23.0249 8.83337 19.654 6.43393C19.3744 6.23437 19.2549 5.87709 19.3601 5.54968C19.4652 5.22226 19.7687 5 20.1129 5H47.8893C48.2334 5 48.5369 5.22226 48.6421 5.54968C48.7472 5.87709 48.6277 6.23437 48.3481 6.43393C44.9772 8.83456 43.1955 14.8093 43.1955 23.714C43.1955 24.1501 42.8418 24.5038 42.4057 24.5038H42.4069Z" fill="#9A7137"/>
<path d="M55.1084 35.8521C54.8981 35.8521 54.689 35.7685 54.5336 35.6036C54.2349 35.2857 54.2492 34.7863 54.5671 34.4875L57.2342 31.9757C57.2437 31.9662 57.2545 31.9578 57.2653 31.9483C59.7173 29.8679 60.0196 26.1815 57.9392 23.7307C55.8588 21.2786 52.1724 20.9763 49.7204 23.0567L46.7749 25.5255C46.4403 25.8063 45.942 25.7621 45.6624 25.4275C45.3816 25.0929 45.4258 24.5946 45.7604 24.315L48.7023 21.8486C51.8139 19.2078 56.5005 19.5926 59.1437 22.7078C61.7833 25.8182 61.4045 30.4928 58.3025 33.1384L55.6497 35.637C55.4967 35.7804 55.302 35.8521 55.1084 35.8521Z" fill="#9A7137"/>
<path d="M45.7677 63H22.2357C21.9872 63 21.7542 62.8829 21.6048 62.6845C21.4554 62.4862 21.4088 62.2293 21.4769 61.9903L23.4402 55.1935C23.5609 54.774 23.9995 54.5326 24.4177 54.6533C24.8371 54.774 25.0785 55.2126 24.9578 55.6308L23.2861 61.4179H44.7173L43.0456 55.6308C42.9249 55.2114 43.1663 54.774 43.5857 54.6533C44.004 54.5326 44.4425 54.774 44.5632 55.1935L46.5265 61.9903C46.5958 62.2293 46.548 62.4862 46.3986 62.6845C46.2493 62.8829 46.0162 63 45.7677 63Z" fill="#9A7137"/>
<path d="M44.1506 46.2542H23.8533C23.4172 46.2542 23.0635 45.9005 23.0635 45.4644V35.0636C23.0635 34.6274 23.4172 34.2737 23.8533 34.2737H32.0972C32.5334 34.2737 32.8871 34.6274 32.8871 35.0636V41.3812C32.8871 41.8174 32.5334 42.1711 32.0972 42.1711H27.9747C27.5385 42.1711 27.1848 41.8174 27.1848 41.3812V39.1085C27.1848 38.6723 27.5385 38.3186 27.9747 38.3186C28.4108 38.3186 28.7645 38.6723 28.7645 39.1085V40.5914H31.3062V35.8535H24.642V44.6745H43.3596V35.8535H36.6954V40.5914H39.237V39.1085C39.237 38.6723 39.5907 38.3186 40.0268 38.3186C40.463 38.3186 40.8167 38.6723 40.8167 39.1085V41.3812C40.8167 41.8174 40.463 42.1711 40.0268 42.1711H35.9055C35.4693 42.1711 35.1157 41.8174 35.1157 41.3812V35.0636C35.1157 34.6274 35.4693 34.2737 35.9055 34.2737H44.1494C44.5855 34.2737 44.9393 34.6274 44.9393 35.0636V45.4644C44.9393 45.9005 44.5855 46.2542 44.1494 46.2542H44.1506Z" fill="#9A7137"/>
<path d="M19.7607 46.2542H13.3152C12.879 46.2542 12.5253 45.9005 12.5253 45.4644C12.5253 45.0282 12.879 44.6745 13.3152 44.6745H18.9696V35.8535H12.8934C12.4572 35.8535 12.1035 35.4997 12.1035 35.0636C12.1035 34.6274 12.4572 34.2737 12.8934 34.2737H19.7595C20.1957 34.2737 20.5493 34.6274 20.5493 35.0636V45.4644C20.5493 45.9005 20.1957 46.2542 19.7595 46.2542H19.7607Z" fill="#9A7137"/>
<path d="M15.6393 42.171H12.3006C11.8645 42.171 11.5107 41.8173 11.5107 41.3812C11.5107 40.945 11.8645 40.5913 12.3006 40.5913H14.8482V39.1084C14.8482 38.6722 15.2019 38.3185 15.6381 38.3185C16.0742 38.3185 16.4279 38.6722 16.4279 39.1084V41.3812C16.4279 41.8173 16.0742 42.171 15.6381 42.171H15.6393Z" fill="#9A7137"/>
<path d="M54.7435 46.2542H48.243C47.8068 46.2542 47.4531 45.9005 47.4531 45.4644V35.0636C47.4531 34.6274 47.8068 34.2737 48.243 34.2737H55.1091C55.5453 34.2737 55.899 34.6274 55.899 35.0636C55.899 35.4997 55.5453 35.8535 55.1091 35.8535H49.0328V44.6745H54.7435C55.1796 44.6745 55.5333 45.0282 55.5333 45.4644C55.5333 45.9005 55.1796 46.2542 54.7435 46.2542Z" fill="#9A7137"/>
<path d="M55.7037 42.171H52.365C51.9289 42.171 51.5752 41.8173 51.5752 41.3812V39.1084C51.5752 38.6722 51.9289 38.3185 52.365 38.3185C52.8012 38.3185 53.1549 38.6722 53.1549 39.1084V40.5913H55.7037C56.1399 40.5913 56.4936 40.945 56.4936 41.3812C56.4936 41.8173 56.1399 42.171 55.7037 42.171Z" fill="#9A7137"/>
<path d="M43.1826 15.5418H24.8211C24.3849 15.5418 24.0312 15.1881 24.0312 14.7519C24.0312 14.3157 24.3849 13.962 24.8211 13.962H43.1826C43.6187 13.962 43.9724 14.3157 43.9724 14.7519C43.9724 15.1881 43.6187 15.5418 43.1826 15.5418Z" fill="#9A7137"/>
</svg>
