<svg width="68" height="68" viewBox="0 0 68 68" fill="none" xmlns="http://www.w3.org/2000/svg">
<path d="M21.1811 25.0774L25.8746 23.5129L25.0923 16.212L23.5278 9.95415L20.1382 5.78223H47.2557L45.6912 8.38968L43.0837 14.6476L42.5623 23.7737L45.6912 24.8166L50.6454 27.4241L54.2958 32.639L55.8603 37.8539L55.3388 44.3725L52.9921 49.3267L48.5594 53.4986L43.6052 55.5846L45.9519 62.364H22.2241L24.0493 55.5846L17.5307 51.6734L13.8803 46.4585L12.3158 40.9828L12.8373 34.4642L15.9662 29.2493L21.1811 25.0774Z" fill="#3779B0" fill-opacity="0.2"/>
<path d="M34.0013 56.7733H28.4782C19.0765 56.7733 11.4265 49.1233 11.4265 39.7215C11.4265 30.3197 19.0765 22.6697 28.4782 22.6697C28.9144 22.6697 29.2681 23.0234 29.2681 23.4595C29.2681 23.8957 28.9144 24.2494 28.4782 24.2494C19.9464 24.2494 13.0062 31.1896 13.0062 39.7215C13.0062 48.2534 19.9464 55.1936 28.4782 55.1936H34.0013C34.4374 55.1936 34.7911 55.5473 34.7911 55.9834C34.7911 56.4196 34.4374 56.7733 34.0013 56.7733Z" fill="#8CB2D1"/>
<path d="M12.8939 35.8521C12.6991 35.8521 12.5056 35.7804 12.3526 35.637L9.69984 33.1384C8.20019 31.8586 7.28606 30.0734 7.12474 28.1065C6.96342 26.1337 7.57882 24.2158 8.8598 22.7066C11.503 19.5914 16.1884 19.2066 19.3048 21.8498L22.2431 24.3126C22.5777 24.5922 22.6219 25.0905 22.3411 25.4251C22.0615 25.7597 21.562 25.8039 21.2286 25.5231L18.2867 23.0567C15.8311 20.9739 12.1447 21.2763 10.0643 23.7283C9.05694 24.916 8.57181 26.4241 8.69966 27.9763C8.82752 29.5285 9.55166 30.9385 10.7382 31.9459C10.749 31.9542 10.7586 31.9638 10.7693 31.9734L13.4364 34.4851C13.7543 34.7839 13.7686 35.2845 13.4699 35.6012C13.3145 35.7661 13.1054 35.8497 12.8951 35.8497L12.8939 35.8521Z" fill="#8CB2D1"/>
<path d="M39.5245 56.7733H34.0015C33.5654 56.7733 33.2117 56.4196 33.2117 55.9834C33.2117 55.5473 33.5654 55.1936 34.0015 55.1936H39.5245C48.0564 55.1936 54.9966 48.2534 54.9966 39.7215C54.9966 31.1896 48.0564 24.2494 39.5245 24.2494C39.0884 24.2494 38.7347 23.8957 38.7347 23.4595C38.7347 23.0234 39.0884 22.6697 39.5245 22.6697C48.9275 22.6697 56.5763 30.3197 56.5763 39.7215C56.5763 49.1233 48.9263 56.7733 39.5245 56.7733Z" fill="#8CB2D1"/>
<path d="M42.407 24.5038C41.9709 24.5038 41.6171 24.1501 41.6171 23.714C41.6171 15.6637 43.0809 9.80844 45.8711 6.57971H22.1324C24.9238 9.80844 26.3864 15.6637 26.3864 23.714C26.3864 24.1501 26.0327 24.5038 25.5966 24.5038C25.1604 24.5038 24.8067 24.1501 24.8067 23.714C24.8067 14.8093 23.0251 8.83337 19.6541 6.43393C19.3745 6.23437 19.255 5.87709 19.3602 5.54968C19.4653 5.22226 19.7689 5 20.113 5H47.8894C48.2335 5 48.537 5.22226 48.6422 5.54968C48.7474 5.87709 48.6279 6.23437 48.3482 6.43393C44.9773 8.83456 43.1956 14.8093 43.1956 23.714C43.1956 24.1501 42.842 24.5038 42.4058 24.5038H42.407Z" fill="#8CB2D1"/>
<path d="M55.1085 35.8521C54.8982 35.8521 54.689 35.7684 54.5337 35.6035C54.235 35.2857 54.2493 34.7862 54.5672 34.4875L57.2342 31.9757C57.2438 31.9661 57.2546 31.9578 57.2653 31.9482C59.7173 29.8678 60.0197 26.1814 57.9393 23.7306C55.8589 21.2786 52.1725 20.9763 49.7205 23.0567L46.7749 25.5254C46.4403 25.8062 45.9421 25.762 45.6625 25.4274C45.3817 25.0928 45.4258 24.5945 45.7604 24.3149L48.7024 21.8486C51.814 19.2077 56.5006 19.5925 59.1438 22.7077C61.7834 25.8182 61.4046 30.4928 58.3025 33.1384L55.6498 35.637C55.4968 35.7804 55.3021 35.8521 55.1085 35.8521Z" fill="#8CB2D1"/>
<path d="M45.7676 63.0001H22.2356C21.9871 63.0001 21.7541 62.883 21.6047 62.6846C21.4553 62.4862 21.4087 62.2293 21.4768 61.9903L23.4401 55.1935C23.5608 54.7741 23.9993 54.5327 24.4176 54.6534C24.837 54.7741 25.0784 55.2126 24.9577 55.6309L23.286 61.418H44.7172L43.0455 55.6309C42.9248 55.2114 43.1662 54.7741 43.5856 54.6534C44.0038 54.5327 44.4424 54.7741 44.5631 55.1935L46.5264 61.9903C46.5957 62.2293 46.5479 62.4862 46.3985 62.6846C46.2491 62.883 46.0161 63.0001 45.7676 63.0001Z" fill="#8CB2D1"/>
<path d="M44.1502 46.2542H23.853C23.4168 46.2542 23.0631 45.9005 23.0631 45.4643V35.0635C23.0631 34.6274 23.4168 34.2737 23.853 34.2737H32.0969C32.533 34.2737 32.8867 34.6274 32.8867 35.0635V41.3812C32.8867 41.8173 32.533 42.171 32.0969 42.171H27.9743C27.5382 42.171 27.1845 41.8173 27.1845 41.3812V39.1084C27.1845 38.6723 27.5382 38.3186 27.9743 38.3186C28.4105 38.3186 28.7642 38.6723 28.7642 39.1084V40.5913H31.3058V35.8534H24.6416V44.6744H43.3592V35.8534H36.695V40.5913H39.2366V39.1084C39.2366 38.6723 39.5903 38.3186 40.0265 38.3186C40.4626 38.3186 40.8163 38.6723 40.8163 39.1084V41.3812C40.8163 41.8173 40.4626 42.171 40.0265 42.171H35.9051C35.469 42.171 35.1153 41.8173 35.1153 41.3812V35.0635C35.1153 34.6274 35.469 34.2737 35.9051 34.2737H44.149C44.5852 34.2737 44.9389 34.6274 44.9389 35.0635V45.4643C44.9389 45.9005 44.5852 46.2542 44.149 46.2542H44.1502Z" fill="#8CB2D1"/>
<path d="M19.7605 46.2542H13.315C12.8788 46.2542 12.5251 45.9005 12.5251 45.4643C12.5251 45.0281 12.8788 44.6744 13.315 44.6744H18.9694V35.8534H12.8931C12.457 35.8534 12.1033 35.4997 12.1033 35.0635C12.1033 34.6274 12.457 34.2737 12.8931 34.2737H19.7593C20.1954 34.2737 20.5491 34.6274 20.5491 35.0635V45.4643C20.5491 45.9005 20.1954 46.2542 19.7593 46.2542H19.7605Z" fill="#8CB2D1"/>
<path d="M15.639 42.1711H12.3004C11.8642 42.1711 11.5105 41.8174 11.5105 41.3812C11.5105 40.9451 11.8642 40.5914 12.3004 40.5914H14.848V39.1085C14.848 38.6723 15.2017 38.3186 15.6378 38.3186C16.074 38.3186 16.4277 38.6723 16.4277 39.1085V41.3812C16.4277 41.8174 16.074 42.1711 15.6378 42.1711H15.639Z" fill="#8CB2D1"/>
<path d="M54.7433 46.2542H48.2428C47.8067 46.2542 47.453 45.9005 47.453 45.4643V35.0635C47.453 34.6274 47.8067 34.2737 48.2428 34.2737H55.109C55.5451 34.2737 55.8988 34.6274 55.8988 35.0635C55.8988 35.4997 55.5451 35.8534 55.109 35.8534H49.0327V44.6744H54.7433C55.1795 44.6744 55.5332 45.0281 55.5332 45.4643C55.5332 45.9005 55.1795 46.2542 54.7433 46.2542Z" fill="#8CB2D1"/>
<path d="M55.7031 42.1711H52.3644C51.9283 42.1711 51.5746 41.8174 51.5746 41.3812V39.1085C51.5746 38.6723 51.9283 38.3186 52.3644 38.3186C52.8006 38.3186 53.1543 38.6723 53.1543 39.1085V40.5914H55.7031C56.1393 40.5914 56.4929 40.9451 56.4929 41.3812C56.4929 41.8174 56.1393 42.1711 55.7031 42.1711Z" fill="#8CB2D1"/>
<path d="M43.1826 15.5419H24.8211C24.3849 15.5419 24.0312 15.1882 24.0312 14.752C24.0312 14.3159 24.3849 13.9622 24.8211 13.9622H43.1826C43.6187 13.9622 43.9724 14.3159 43.9724 14.752C43.9724 15.1882 43.6187 15.5419 43.1826 15.5419Z" fill="#8CB2D1"/>
</svg>
