<svg width="232" height="68" viewBox="0 0 232 68" fill="none" xmlns="http://www.w3.org/2000/svg">
<g clip-path="url(#clip0_6817_22950)">
<path d="M8.32143 31.6112L15.449 33.4605L20.4438 30.2747L9.67132 22.5261C0.498538 28.648 1.33551 36.9366 11.6895 41.0404C27.7267 47.3986 51.4382 23.0931 64.9511 36.9974L58.2216 35.6542L54.1853 39.6905L61.3129 46.9396C69.7433 46.7574 74.4815 38.9818 68.2179 32.4616C53.3619 16.9982 22.4552 50.9152 8.33492 31.6112L8.32143 31.6112Z" fill="#B2CBE0"/>
<path d="M134.455 30.8997C137.756 38.7901 140.752 26.7082 144.532 32.9179C125.829 50.3658 98.1149 12.5272 81.5175 36.9947L89.2324 47.4364L98.6684 41.0242L94.0043 36.2523L88.5776 39.0061C88.0782 29.3136 100.558 32.6547 106.106 33.8291C119.356 36.6437 141.664 50.8248 149.527 33.5929L141.853 22.5437C138.424 23.5831 132.552 26.3505 134.455 30.8997Z" fill="#B2CBE0"/>
<path d="M218.09 32.9326C221.89 34.3162 222.679 34.6335 222.092 38.96L216.672 36.2129C206.98 39.8172 218.326 48.0585 221.424 47.3363C229.335 45.4869 231.116 36.7799 223.51 31.0224C212.805 22.9093 194.655 35.3084 182.985 37.1376C177.349 38.0218 167.069 39.9589 168.162 30.8874L173.582 33.6345L178.253 28.8558L168.837 22.4368C158.207 28.6803 159.833 37.1376 170.856 41.6126C181.216 45.8177 205.92 28.498 218.083 32.9258L218.09 32.9326Z" fill="#B2CBE0"/>
</g>
<defs>
<clipPath id="clip0_6817_22950">
<rect width="231.955" height="42" fill="white" transform="translate(0.0227356 13)"/>
</clipPath>
</defs>
</svg>
