<svg width="68" height="68" viewBox="0 0 68 68" fill="none" xmlns="http://www.w3.org/2000/svg">
<rect width="67.2" height="67.2" rx="16" fill="#FEF2EA"/>
<g clip-path="url(#clip0_6660_9182)">
<path d="M38.0808 36.7057C37.7921 36.7057 37.5579 36.4715 37.5579 36.1828C37.5579 35.894 37.7921 35.6598 38.0808 35.6598C40.2992 35.6598 42.2881 34.417 43.0309 32.5673C43.8561 30.5096 43.9225 28.0413 43.1884 26.6988C43.0531 26.4519 42.8956 26.2518 42.7161 26.1007C42.6662 28.069 41.4898 29.4345 40.205 29.9606C38.9115 30.4906 37.5856 30.1678 36.8253 29.1394C36.0303 28.0627 36.3594 26.3586 36.7415 24.3847C37.3324 21.3302 37.9946 17.9014 34.8222 15.9015C35.2091 18.8073 34.1988 22.1482 32.8942 24.3776C32.4275 25.175 31.4876 26.5508 30.4338 26.8071C30.259 26.8499 30.0739 26.7992 29.9449 26.6734C29.816 26.5476 29.7606 26.3641 29.7986 26.1885C30.418 23.3246 30.2115 21.1775 29.1997 19.9789C28.7448 19.4402 28.1174 19.096 27.3255 18.9497C28.5881 20.9686 27.1665 23.6379 25.4355 26.8886C24.3564 28.9155 24.3224 31.4289 25.3524 33.1441C26.3406 34.7896 28.2068 35.6598 30.7487 35.6598C31.0375 35.6598 31.2716 35.894 31.2716 36.1828C31.2716 36.4715 31.0375 36.7057 30.7487 36.7057C27.0478 36.7057 25.2836 35.0617 24.4561 33.682C23.2251 31.6322 23.2472 28.7723 24.513 26.3965C26.8595 21.9916 27.5739 20.1918 25.7488 18.7646C25.5763 18.6301 25.5059 18.4014 25.5724 18.1934C25.6388 17.9845 25.8287 17.8397 26.047 17.8302C27.7788 17.7535 29.1095 18.2495 29.9995 19.3041C31.0628 20.5644 31.4188 22.5754 31.0462 25.1648C31.3318 24.8562 31.653 24.4259 31.9908 23.8483C33.3112 21.592 34.3744 17.8809 33.5873 15.0637C33.5327 14.8683 33.596 14.6594 33.7494 14.5273C33.9029 14.3952 34.1189 14.3635 34.304 14.445C39.2984 16.6681 38.4147 21.2424 37.7684 24.5825C37.4472 26.2423 37.1442 27.8103 37.6671 28.5168C38.2327 29.2826 39.1449 29.2636 39.8095 28.9914C40.9083 28.5413 41.8964 27.2375 41.6267 25.3372C41.6029 25.1703 41.6615 25.0018 41.7833 24.8855C41.9051 24.7692 42.0768 24.7186 42.2422 24.7502C43.027 24.8997 43.6709 25.3997 44.1069 26.1956C44.9921 27.8158 44.9494 30.595 44.0024 32.9558C43.1029 35.1986 40.7232 36.7049 38.0816 36.7049L38.0808 36.7057Z" fill="#F17930"/>
<path d="M36.5468 47.4416H31.7415C30.5999 47.4416 29.6719 46.5128 29.6719 45.372V42.7368C29.6719 42.448 29.9061 42.2139 30.1948 42.2139H38.0942C38.383 42.2139 38.6171 42.448 38.6171 42.7368V45.372C38.6171 46.5136 37.6884 47.4416 36.5476 47.4416H36.5468ZM30.717 43.2589V45.3712C30.717 45.9361 31.1766 46.395 31.7407 46.395H36.546C37.1108 46.395 37.5697 45.9353 37.5697 45.3712V43.2589H30.7162H30.717Z" fill="#F17930"/>
<path d="M31.6655 52.8C31.3767 52.8 31.1425 52.5658 31.1425 52.277V46.918C31.1425 46.6292 31.3767 46.395 31.6655 46.395C31.9543 46.395 32.1884 46.6292 32.1884 46.918V52.277C32.1884 52.5658 31.9543 52.8 31.6655 52.8Z" fill="#F17930"/>
<path d="M36.6237 52.8C36.3349 52.8 36.1007 52.5658 36.1007 52.277V46.918C36.1007 46.6292 36.3349 46.395 36.6237 46.395C36.9124 46.395 37.1466 46.6292 37.1466 46.918V52.277C37.1466 52.5658 36.9124 52.8 36.6237 52.8Z" fill="#F17930"/>
<path d="M38.094 43.2584C37.9263 43.2584 37.7618 43.1785 37.6605 43.029C37.4983 42.7901 37.5608 42.4649 37.7997 42.3028L46.0472 36.7055H22.2446L30.4921 42.3028C30.731 42.4649 30.7935 42.7901 30.6313 43.029C30.4692 43.2679 30.144 43.3304 29.9051 43.1682L20.2486 36.6154C20.0588 36.4864 19.9749 36.2483 20.0421 36.0291C20.1094 35.81 20.3127 35.6597 20.5421 35.6597H47.7481C47.9776 35.6597 48.1809 35.8092 48.2481 36.0291C48.3154 36.2491 48.2323 36.4864 48.0416 36.6154L38.3852 43.1682C38.295 43.2292 38.1929 43.2584 38.0917 43.2584H38.094Z" fill="#F17930"/>
</g>
<defs>
<clipPath id="clip0_6660_9182">
<rect width="38.4" height="38.4" fill="white" transform="translate(14.4 14.3999)"/>
</clipPath>
</defs>
</svg>
