<svg width="80" height="16" viewBox="0 0 80 16" fill="none" xmlns="http://www.w3.org/2000/svg">
<path d="M3.88325 13.9998L4.96659 9.31646L1.33325 6.16646L6.13325 5.7498L7.99992 1.33313L9.86659 5.7498L14.6666 6.16646L11.0333 9.31646L12.1166 13.9998L7.99992 11.5165L3.88325 13.9998Z" fill="#F2CD30"/>
<path d="M19.8833 13.9998L20.9666 9.31646L17.3333 6.16646L22.1333 5.7498L23.9999 1.33313L25.8666 5.7498L30.6666 6.16646L27.0333 9.31646L28.1166 13.9998L23.9999 11.5165L19.8833 13.9998Z" fill="#F2CD30"/>
<path d="M35.8833 13.9998L36.9666 9.31646L33.3333 6.16646L38.1333 5.7498L39.9999 1.33313L41.8666 5.7498L46.6666 6.16646L43.0333 9.31646L44.1166 13.9998L39.9999 11.5165L35.8833 13.9998Z" fill="#F2CD30"/>
<path d="M51.8833 13.9998L52.9666 9.31646L49.3333 6.16646L54.1333 5.7498L55.9999 1.33313L57.8666 5.7498L62.6666 6.16646L59.0333 9.31646L60.1166 13.9998L55.9999 11.5165L51.8833 13.9998Z" fill="#F2CD30"/>
<path d="M67.8833 13.9998L68.9666 9.31646L65.3333 6.16646L70.1333 5.7498L71.9999 1.33313L73.8666 5.7498L78.6666 6.16646L75.0333 9.31646L76.1166 13.9998L71.9999 11.5165L67.8833 13.9998Z" fill="#F2CD30"/>
</svg>
