<svg width="68" height="68" viewBox="0 0 68 68" fill="none" xmlns="http://www.w3.org/2000/svg">
<path d="M21.181 25.0774L25.8744 23.5129L25.0922 16.2121L23.5277 9.95418L20.138 5.78226H47.2556L45.6911 8.38971L43.0836 14.6476L42.5621 23.7737L45.6911 24.8167L50.6452 27.4241L54.2957 32.639L55.8601 37.8539L55.3387 44.3726L52.9919 49.3267L48.5593 53.4987L43.6051 55.5846L45.9518 62.364H22.224L24.0492 55.5846L17.5306 51.6734L13.8801 46.4585L12.3157 40.9829L12.8372 34.4642L15.9661 29.2493L21.181 25.0774Z" fill="#3779B0" fill-opacity="0.2"/>
<path d="M34.0013 56.7732H28.4783C19.0765 56.7732 11.4265 49.1232 11.4265 39.7214C11.4265 30.3196 19.0765 22.6696 28.4783 22.6696C28.9145 22.6696 29.2682 23.0233 29.2682 23.4595C29.2682 23.8956 28.9145 24.2493 28.4783 24.2493C19.9464 24.2493 13.0062 31.1895 13.0062 39.7214C13.0062 48.2533 19.9464 55.1935 28.4783 55.1935H34.0013C34.4375 55.1935 34.7912 55.5472 34.7912 55.9834C34.7912 56.4195 34.4375 56.7732 34.0013 56.7732Z" fill="#B2CBE0"/>
<path d="M12.8938 35.8522C12.699 35.8522 12.5054 35.7805 12.3525 35.6371L9.69972 33.1385C8.20007 31.8587 7.28594 30.0735 7.12462 28.1066C6.9633 26.1338 7.5787 24.2159 8.85968 22.7067C11.5029 19.5915 16.1882 19.2067 19.3046 21.8499L22.243 24.3127C22.5776 24.5923 22.6218 25.0906 22.341 25.4252C22.0614 25.7598 21.5619 25.804 21.2285 25.5232L18.2865 23.0568C15.8309 20.974 12.1445 21.2763 10.0642 23.7284C9.05682 24.9161 8.57168 26.4241 8.69954 27.9764C8.8274 29.5286 9.55154 30.9386 10.7381 31.946C10.7489 31.9543 10.7584 31.9639 10.7692 31.9735L13.4363 34.4852C13.7541 34.7839 13.7685 35.2846 13.4697 35.6013C13.3144 35.7662 13.1053 35.8498 12.895 35.8498L12.8938 35.8522Z" fill="#B2CBE0"/>
<path d="M39.5245 56.7732H34.0015C33.5654 56.7732 33.2117 56.4195 33.2117 55.9834C33.2117 55.5472 33.5654 55.1935 34.0015 55.1935H39.5245C48.0564 55.1935 54.9966 48.2533 54.9966 39.7214C54.9966 31.1895 48.0564 24.2493 39.5245 24.2493C39.0884 24.2493 38.7347 23.8956 38.7347 23.4595C38.7347 23.0233 39.0884 22.6696 39.5245 22.6696C48.9275 22.6696 56.5763 30.3196 56.5763 39.7214C56.5763 49.1232 48.9263 56.7732 39.5245 56.7732Z" fill="#B2CBE0"/>
<path d="M42.4069 24.5038C41.9707 24.5038 41.617 24.1501 41.617 23.714C41.617 15.6637 43.0808 9.80844 45.871 6.57971H22.1323C24.9237 9.80844 26.3863 15.6637 26.3863 23.714C26.3863 24.1501 26.0326 24.5038 25.5964 24.5038C25.1603 24.5038 24.8066 24.1501 24.8066 23.714C24.8066 14.8093 23.0249 8.83337 19.654 6.43393C19.3744 6.23437 19.2549 5.87709 19.3601 5.54968C19.4652 5.22226 19.7687 5 20.1129 5H47.8893C48.2334 5 48.5369 5.22226 48.6421 5.54968C48.7472 5.87709 48.6277 6.23437 48.3481 6.43393C44.9772 8.83456 43.1955 14.8093 43.1955 23.714C43.1955 24.1501 42.8418 24.5038 42.4057 24.5038H42.4069Z" fill="#B2CBE0"/>
<path d="M55.1084 35.8521C54.8981 35.8521 54.689 35.7685 54.5336 35.6036C54.2349 35.2857 54.2492 34.7862 54.5671 34.4875L57.2342 31.9757C57.2437 31.9662 57.2545 31.9578 57.2653 31.9482C59.7173 29.8678 60.0196 26.1815 57.9392 23.7306C55.8588 21.2786 52.1724 20.9763 49.7204 23.0567L46.7749 25.5254C46.4403 25.8062 45.942 25.762 45.6624 25.4274C45.3816 25.0929 45.4258 24.5946 45.7604 24.315L48.7023 21.8486C51.8139 19.2078 56.5005 19.5926 59.1437 22.7078C61.7833 25.8182 61.4045 30.4928 58.3025 33.1384L55.6497 35.637C55.4967 35.7804 55.302 35.8521 55.1084 35.8521Z" fill="#B2CBE0"/>
<path d="M45.7674 63H22.2355C21.9869 63 21.7539 62.8829 21.6046 62.6845C21.4552 62.4862 21.4086 62.2293 21.4767 61.9903L23.44 55.1935C23.5607 54.774 23.9992 54.5326 24.4175 54.6533C24.8369 54.774 25.0783 55.2126 24.9576 55.6308L23.2859 61.4179H44.7171L43.0454 55.6308C42.9247 55.2114 43.1661 54.774 43.5855 54.6533C44.0037 54.5326 44.4423 54.774 44.563 55.1935L46.5262 61.9903C46.5956 62.2293 46.5477 62.4862 46.3984 62.6845C46.249 62.8829 46.016 63 45.7674 63Z" fill="#B2CBE0"/>
<path d="M44.1501 46.2542H23.8529C23.4167 46.2542 23.063 45.9005 23.063 45.4643V35.0636C23.063 34.6274 23.4167 34.2737 23.8529 34.2737H32.0967C32.5329 34.2737 32.8866 34.6274 32.8866 35.0636V41.3812C32.8866 41.8174 32.5329 42.1711 32.0967 42.1711H27.9742C27.5381 42.1711 27.1843 41.8174 27.1843 41.3812V39.1084C27.1843 38.6723 27.5381 38.3186 27.9742 38.3186C28.4104 38.3186 28.764 38.6723 28.764 39.1084V40.5914H31.3057V35.8534H24.6415V44.6745H43.3591V35.8534H36.6949V40.5914H39.2365V39.1084C39.2365 38.6723 39.5902 38.3186 40.0264 38.3186C40.4625 38.3186 40.8162 38.6723 40.8162 39.1084V41.3812C40.8162 41.8174 40.4625 42.1711 40.0264 42.1711H35.905C35.4689 42.1711 35.1152 41.8174 35.1152 41.3812V35.0636C35.1152 34.6274 35.4689 34.2737 35.905 34.2737H44.1489C44.5851 34.2737 44.9388 34.6274 44.9388 35.0636V45.4643C44.9388 45.9005 44.5851 46.2542 44.1489 46.2542H44.1501Z" fill="#B2CBE0"/>
<path d="M19.7605 46.2542H13.315C12.8788 46.2542 12.5251 45.9005 12.5251 45.4643C12.5251 45.0282 12.8788 44.6745 13.315 44.6745H18.9694V35.8534H12.8931C12.457 35.8534 12.1033 35.4997 12.1033 35.0636C12.1033 34.6274 12.457 34.2737 12.8931 34.2737H19.7593C20.1954 34.2737 20.5491 34.6274 20.5491 35.0636V45.4643C20.5491 45.9005 20.1954 46.2542 19.7593 46.2542H19.7605Z" fill="#B2CBE0"/>
<path d="M15.639 42.171H12.3004C11.8642 42.171 11.5105 41.8173 11.5105 41.3812C11.5105 40.945 11.8642 40.5913 12.3004 40.5913H14.848V39.1084C14.848 38.6722 15.2017 38.3185 15.6378 38.3185C16.074 38.3185 16.4277 38.6722 16.4277 39.1084V41.3812C16.4277 41.8173 16.074 42.171 15.6378 42.171H15.639Z" fill="#B2CBE0"/>
<path d="M54.7432 46.2542H48.2427C47.8066 46.2542 47.4529 45.9005 47.4529 45.4643V35.0636C47.4529 34.6274 47.8066 34.2737 48.2427 34.2737H55.1089C55.545 34.2737 55.8987 34.6274 55.8987 35.0636C55.8987 35.4997 55.545 35.8534 55.1089 35.8534H49.0326V44.6745H54.7432C55.1794 44.6745 55.5331 45.0282 55.5331 45.4643C55.5331 45.9005 55.1794 46.2542 54.7432 46.2542Z" fill="#B2CBE0"/>
<path d="M55.703 42.171H52.3643C51.9281 42.171 51.5745 41.8173 51.5745 41.3812V39.1084C51.5745 38.6722 51.9281 38.3185 52.3643 38.3185C52.8005 38.3185 53.1542 38.6722 53.1542 39.1084V40.5913H55.703C56.1391 40.5913 56.4928 40.945 56.4928 41.3812C56.4928 41.8173 56.1391 42.171 55.703 42.171Z" fill="#B2CBE0"/>
<path d="M43.1826 15.5418H24.8211C24.3849 15.5418 24.0312 15.1881 24.0312 14.7519C24.0312 14.3158 24.3849 13.9621 24.8211 13.9621H43.1826C43.6187 13.9621 43.9724 14.3158 43.9724 14.7519C43.9724 15.1881 43.6187 15.5418 43.1826 15.5418Z" fill="#B2CBE0"/>
</svg>
