<svg width="111" height="56" viewBox="0 0 111 56" fill="none" xmlns="http://www.w3.org/2000/svg">
<path d="M35.5897 45.2993C33.7649 44.7306 32.9527 47.7474 31.2525 46.675C28.2473 44.7848 31.5774 37.9659 37.3387 40.5765C43.7335 43.4741 40.5713 56.5161 30.9655 53.4343C26.3467 51.9503 23.3795 43.9399 19.4917 40.4248C12.9777 34.5321 5.01807 34.1746 1.05447 42.9162C-4.83677 55.9149 15.7988 59.8037 17.6236 48.679C19.4484 37.5543 3.16081 35.0466 5.45124 46.545C6.16057 50.1034 13.0644 50.2551 11.8082 45.2939C11.0014 44.449 7.10816 49.3181 6.40424 44.9906C5.09387 36.9531 19.5946 39.672 16.1616 49.3722C13.0752 58.0976 -2.17813 53.2556 1.81795 44.2053C1.77463 50.0059 7.24894 54.4526 12.5446 51.1542C19.7462 46.6696 9.07912 37.6301 8.02325 43.9345C7.66587 46.0792 10.2216 43.317 11.0014 43.3116C14.1527 43.2954 15.3927 50.9538 8.83546 50.7425C-0.120532 50.4609 1.92083 33.4326 13.8116 38.1555C21.4139 41.1831 25.7457 53.8405 30.5702 54.9184C36.8459 56.3157 42.6343 52.3349 42.0549 45.6351C41.3997 38.0255 29.5414 36.8394 29.2978 44.032C29.1245 49.1719 36.1474 51.1596 35.5897 45.3047L35.5897 45.2993Z" fill="#F17930"/>
<path d="M41.19 20.2391C45.2186 24.312 54.2125 26.9009 54.0013 33.6548C53.828 39.1034 48.6299 41.714 43.6754 40.1921C38.905 38.7243 38.9104 30.1289 43.9732 30.1343C49.6858 30.1397 44.7854 35.0847 45.3269 35.5667C50.7958 36.3629 49.3609 29.7227 44.9099 29.1811C38.0657 28.347 37.0694 39.2009 44.0003 41.4865C50.9311 43.7721 57.3368 36.9099 54.5536 29.8473C52.5556 24.7832 41.2225 21.409 38.1903 13.7777C33.5011 1.95968 50.4926 -0.158023 50.7741 8.80024C50.8878 12.3803 48.1426 14.7742 44.78 13.1331C41.8398 11.6979 44.3522 9.83472 44.78 8.80024C45.3215 7.46787 42.9769 7.79284 42.3596 9.08187C39.6035 14.8284 51.4239 17.6773 52.2361 9.73181C52.7126 5.07395 49.1714 2.03009 44.7908 1.78637C47.195 -0.472154 51.4726 2.28465 52.8155 4.57025C57.0606 11.8008 49.545 20.082 42.652 15.2779C38.1957 12.1745 40.2803 4.91147 45.4839 6.48214C49.1226 7.58161 44.3955 10.9017 45.3323 11.7845C49.8428 13.0302 50.4817 6.68254 46.9351 5.61015C35.3692 2.12758 37.5838 19.9466 49.1443 17.4877C60.0496 15.1696 55.5174 -5.51456 42.2567 1.41265C33.4469 6.01094 35.1093 14.0918 41.19 20.2445L41.19 20.2391Z" fill="#F17930"/>
<path d="M36.1391 33.9418L37.7527 33.9418C37.0434 25.4927 50.8402 25.4439 50.7481 33.1402C50.6723 39.3363 42.469 38.2476 43.4382 34.413C43.6873 33.4219 44.9814 32.9453 44.7811 31.7808C43.5681 31.7808 42.3173 32.4524 42.0791 33.6656C40.2706 42.8026 56.5256 38.9788 51.1867 29.9664C47.4614 23.6783 35.3756 25.6172 36.1391 33.9418Z" fill="#F17930"/>
<path d="M37.5992 42.7535C36.4458 41.8274 34.1987 41.8382 32.8559 42.2877L32.3577 44.7521C38.5576 39.5634 39.8355 51.3597 32.6772 50.699C27.2949 50.2007 25.6922 42.0332 29.9048 38.7944C31.134 37.8519 33.5219 37.749 33.9659 36.9095C34.6698 35.5826 31.8108 36.1892 31.2531 36.3625C23.4829 38.7727 25.4593 51.8959 33.2403 52.1343C38.1894 52.2859 40.8859 45.4074 37.5938 42.7535L37.5992 42.7535Z" fill="#F17930"/>
<path d="M55.0518 39.8883C51.8192 41.1773 54.2613 52.5782 53.4328 53.4123C49.3393 54.0893 42.9336 51.7821 39.9176 55.0317L55.0518 55.0317L55.0518 39.8937L55.0518 39.8883Z" fill="#F17930"/>
<path d="M26.9442 55.0269C24.0148 52.2701 22.6665 48.17 19.3798 45.8357C19.8725 49.5187 18.2048 52.243 16.1309 55.0269L26.9387 55.0269L26.9442 55.0269ZM21.5294 49.627L23.6953 53.949L18.8383 53.949C19.1307 53.3045 20.5168 48.6575 21.5294 49.627Z" fill="#F17930"/>
<path d="M55.0518 16.101C52.3444 18.3812 49.5342 19.8815 45.863 19.3507C48.1968 22.6383 52.2957 23.9869 55.0518 26.917L55.0518 16.1064L55.0518 16.101ZM53.9689 18.8091L53.9689 23.6673L49.6533 21.4955C48.7382 20.4285 53.2758 19.1449 53.9689 18.8036L53.9689 18.8091Z" fill="#F17930"/>
<path d="M51.8078 42.5911C48.7322 42.3798 50.8548 49.4966 50.1888 50.1628L43.5232 50.2549L42.619 51.7822L51.8078 51.7822L51.8078 42.5911Z" fill="#F17930"/>
<path d="M48.5638 43.6749C46.3058 43.1658 46.8852 44.9748 46.0243 45.8684C45.1633 46.7621 43.1111 46.41 43.7013 48.5386L48.0602 48.3057L48.5638 43.6749Z" fill="#F17930"/>
<path d="M74.9264 45.2993C76.7512 44.7306 77.5634 47.7474 79.2636 46.675C82.2688 44.7848 78.9387 37.9659 73.1774 40.5765C66.7826 43.4741 69.9448 56.5161 79.5506 53.4343C84.1694 51.9503 87.1366 43.9399 91.0244 40.4248C97.5384 34.5321 105.498 34.1746 109.462 42.9162C115.353 55.9149 94.7173 59.8037 92.8925 48.679C91.0678 37.5543 107.355 35.0466 105.065 46.545C104.356 50.1034 97.4517 50.2551 98.708 45.2939C99.5148 44.449 103.408 49.3181 104.112 44.9906C105.422 36.9531 90.9216 39.672 94.3545 49.3722C97.4409 58.0976 112.694 53.2556 108.698 44.2053C108.741 50.0059 103.267 54.4526 97.9716 51.1542C90.7699 46.6696 101.437 37.6301 102.493 43.9345C102.85 46.0792 100.294 43.317 99.5148 43.3116C96.3634 43.2954 95.1234 50.9538 101.681 50.7425C110.637 50.4609 108.595 33.4326 96.7045 38.1555C89.1022 41.1831 84.7704 53.8405 79.9459 54.9184C73.6702 56.3157 67.8818 52.3349 68.4612 45.6351C69.1164 38.0255 80.9747 36.8394 81.2183 44.032C81.3916 49.1719 74.3687 51.1596 74.9264 45.3047L74.9264 45.2993Z" fill="#F17930"/>
<path d="M69.3261 20.2391C65.2975 24.312 56.3036 26.9009 56.5148 33.6548C56.6881 39.1034 61.8862 41.714 66.8407 40.1921C71.6111 38.7243 71.6057 30.1289 66.5429 30.1343C60.8304 30.1397 65.7307 35.0847 65.1892 35.5667C59.7203 36.3629 61.1552 29.7227 65.6062 29.1811C72.4504 28.347 73.4467 39.2009 66.5158 41.4865C59.585 43.7721 53.1793 36.9099 55.9625 29.8473C57.9605 24.7832 69.2936 21.409 72.3259 13.7777C77.015 1.95968 60.0236 -0.158023 59.742 8.80024C59.6283 12.3803 62.3736 14.7742 65.7361 13.1331C68.6763 11.6979 66.1639 9.83472 65.7361 8.80024C65.1946 7.46787 67.5392 7.79284 68.1565 9.08187C70.9126 14.8284 59.0922 17.6773 58.28 9.73181C57.8035 5.07395 61.3448 2.03009 65.7253 1.78637C63.3211 -0.472154 59.0435 2.28465 57.7006 4.57025C53.4555 11.8008 60.9711 20.082 67.8641 15.2779C72.3204 12.1745 70.2358 4.91147 65.0322 6.48214C61.3935 7.58161 66.1206 10.9017 65.1838 11.7845C60.6733 13.0302 60.0344 6.68254 63.581 5.61015C75.1469 2.12758 72.9323 19.9466 61.3718 17.4877C50.4665 15.1696 54.9987 -5.51456 68.2594 1.41265C77.0692 6.01094 75.4069 14.0918 69.3261 20.2445L69.3261 20.2391Z" fill="#F17930"/>
<path d="M74.3769 33.9418L72.7633 33.9418C73.4726 25.4927 59.6758 25.4439 59.7679 33.1402C59.8437 39.3363 68.047 38.2476 67.0778 34.413C66.8287 33.4219 65.5346 32.9453 65.7349 31.7808C66.9478 31.7808 68.1986 32.4524 68.4369 33.6656C70.2454 42.8026 53.9904 38.9788 59.3293 29.9664C63.0546 23.6783 75.1404 25.6172 74.3769 33.9418Z" fill="#F17930"/>
<path d="M72.9169 42.7535C74.0703 41.8274 76.3174 41.8382 77.6602 42.2877L78.1584 44.7521C71.9585 39.5634 70.6806 51.3597 77.8389 50.699C83.2212 50.2007 84.824 42.0332 80.6113 38.7944C79.3821 37.8519 76.9942 37.749 76.5502 36.9095C75.8463 35.5826 78.7053 36.1892 79.263 36.3625C87.0332 38.7727 85.0568 51.8959 77.2758 52.1343C72.3267 52.2859 69.6302 45.4074 72.9223 42.7535L72.9169 42.7535Z" fill="#F17930"/>
<path d="M55.4641 39.8883C58.6967 41.1773 56.2547 52.5782 57.0831 53.4123C61.1767 54.0893 67.5823 51.7821 70.5983 55.0317L55.4641 55.0317L55.4641 39.8937L55.4641 39.8883Z" fill="#F17930"/>
<path d="M83.572 55.0269C86.5013 52.2701 87.8496 48.17 91.1364 45.8357C90.6436 49.5187 92.3114 52.243 94.3852 55.0269L83.5774 55.0269L83.572 55.0269ZM88.9867 49.627L86.8208 53.949L91.6778 53.949C91.3854 53.3045 89.9993 48.6575 88.9867 49.627Z" fill="#F17930"/>
<path d="M55.4641 16.101C58.1715 18.3812 60.9817 19.8815 64.6529 19.3507C62.3192 22.6383 58.2202 23.9869 55.4641 26.917L55.4641 16.1064L55.4641 16.101ZM56.5471 18.8091L56.5471 23.6673L60.8626 21.4955C61.7777 20.4285 57.2401 19.1449 56.5471 18.8036L56.5471 18.8091Z" fill="#F17930"/>
<path d="M58.7083 42.5911C61.7839 42.3798 59.6613 49.4966 60.3273 50.1628L66.9929 50.2549L67.8971 51.7822L58.7083 51.7822L58.7083 42.5911Z" fill="#F17930"/>
<path d="M61.9523 43.6749C64.2103 43.1658 63.6309 44.9748 64.4918 45.8684C65.3528 46.7621 67.405 46.41 66.8148 48.5386L62.4559 48.3057L61.9523 43.6749Z" fill="#F17930"/>
</svg>
