<svg width="101" height="68" viewBox="0 0 101 68" fill="none" xmlns="http://www.w3.org/2000/svg">
<path d="M29.658 59.7493C28.1374 59.2754 27.4605 61.7893 26.0437 60.8957C23.5393 59.3205 26.3144 53.6381 31.1155 55.8136C36.4445 58.2282 33.8093 69.0966 25.8045 66.5285C21.9555 65.2918 19.4828 58.6164 16.243 55.6872C10.8147 50.7766 4.18163 50.4787 0.878636 57.7634C-4.03074 68.5956 13.1656 71.8362 14.6862 62.5657C16.2069 53.2951 2.63392 51.2053 4.54261 60.7874C5.13372 63.7527 10.8869 63.8791 9.84004 59.7448C9.16771 59.0407 5.92337 63.0982 5.33678 59.492C4.2448 52.7941 16.3287 55.0598 13.4679 63.1434C10.8959 70.4145 -1.8152 66.3795 1.51487 58.8376C1.47877 63.6714 6.04069 67.377 10.4537 64.6283C16.4551 60.8912 7.56584 53.3583 6.68595 58.6119C6.38814 60.3992 8.51794 58.0974 9.16771 58.0928C11.7939 58.0793 12.8272 64.4613 7.36279 64.2853C-0.100532 64.0506 1.6006 49.8603 11.5096 53.7961C17.8448 56.3191 21.4547 66.867 25.4751 67.7651C30.7049 68.9296 35.5285 65.6122 35.0457 60.0291C34.4997 53.6877 24.6178 52.6993 24.4147 58.6931C24.2703 62.9764 30.1228 64.6328 29.658 59.7538L29.658 59.7493Z" fill="#9A7137"/>
<path d="M34.3254 38.8656C37.6826 42.2597 45.1775 44.4171 45.0015 50.0454C44.8571 54.5859 40.5253 56.7614 36.3966 55.4931C32.4212 54.2699 32.4257 47.1071 36.6447 47.1116C41.4052 47.1161 37.3216 51.2369 37.7728 51.6386C42.3302 52.3021 41.1345 46.7686 37.4254 46.3173C31.7218 45.6222 30.8916 54.6671 36.6673 56.5718C42.443 58.4765 47.7811 52.7579 45.4617 46.8724C43.7967 42.6524 34.3525 39.8405 31.8256 33.4811C27.918 23.6328 42.0775 21.868 42.3122 29.3332C42.4069 32.3166 40.1192 34.3115 37.3171 32.944C34.8669 31.7479 36.9606 30.1953 37.3171 29.3332C37.7683 28.2229 35.8145 28.4937 35.3001 29.5679C33.0033 34.3567 42.8536 36.7307 43.5305 30.1095C43.9276 26.228 40.9765 23.6914 37.3261 23.4883C39.3295 21.6062 42.8942 23.9036 44.0133 25.8082C47.5509 31.8337 41.2879 38.7347 35.5437 34.7313C31.8301 32.1451 33.5673 26.0926 37.9037 27.4015C40.9359 28.3177 36.9967 31.0844 37.7773 31.8201C41.536 32.8582 42.0685 27.5685 39.113 26.6748C29.4747 23.7727 31.3202 38.6219 40.954 36.5728C50.0417 34.641 46.2649 17.4042 35.2143 23.1769C27.8728 27.0088 29.2581 33.7428 34.3254 38.8701L34.3254 38.8656Z" fill="#9A7137"/>
<path d="M30.1166 50.285L31.4612 50.285C30.8701 43.244 42.3674 43.2034 42.2907 49.617C42.2276 54.7804 35.3914 53.8732 36.1991 50.6776C36.4067 49.8517 37.4851 49.4545 37.3182 48.4841C36.3074 48.4841 35.2651 49.0438 35.0666 50.0548C33.5594 57.669 47.1053 54.4825 42.6562 46.9721C39.5518 41.732 29.4803 43.3478 30.1166 50.285Z" fill="#9A7137"/>
<path d="M31.3328 57.628C30.3717 56.8562 28.4991 56.8652 27.38 57.2398L26.9649 59.2935C32.1315 54.9696 33.1964 64.7998 27.2311 64.2492C22.7459 63.834 21.4103 57.0277 24.9208 54.3287C25.9451 53.5433 27.9351 53.4576 28.3051 52.758C28.8917 51.6522 26.5092 52.1577 26.0444 52.3022C19.5693 54.3106 21.2163 65.2467 27.7004 65.4453C31.8246 65.5716 34.0718 59.8396 31.3283 57.628L31.3328 57.628Z" fill="#9A7137"/>
<path d="M45.877 55.2405C43.1831 56.3147 45.2182 65.8155 44.5278 66.5105C41.1165 67.0747 35.7785 65.152 33.2651 67.86L45.877 67.86L45.877 55.245L45.877 55.2405Z" fill="#9A7137"/>
<path d="M22.4541 67.8554C20.013 65.5581 18.8894 62.1414 16.1504 60.1961C16.5611 63.2652 15.1713 65.5355 13.4431 67.8554L22.4496 67.8554L22.4541 67.8554ZM17.9418 63.3555L19.7467 66.9572L15.6992 66.9572C15.9429 66.4201 17.098 62.5476 17.9418 63.3555Z" fill="#9A7137"/>
<path d="M45.877 35.4175C43.6208 37.3177 41.2789 38.5679 38.2196 38.1256C40.1644 40.8652 43.5802 41.9891 45.877 44.4308L45.877 35.422L45.877 35.4175ZM44.9745 37.6742L44.9745 41.7228L41.3782 39.9129C40.6156 39.0238 44.3969 37.9541 44.9745 37.6697L44.9745 37.6742Z" fill="#9A7137"/>
<path d="M43.1738 57.4926C40.6108 57.3166 42.3797 63.2472 41.8247 63.8024L36.27 63.8791L35.5165 65.1519L43.1738 65.1519L43.1738 57.4926Z" fill="#9A7137"/>
<path d="M40.4697 58.3955C38.5881 57.9713 39.0709 59.4788 38.3535 60.2235C37.636 60.9682 35.9259 60.6748 36.4177 62.4486L40.0501 62.2545L40.4697 58.3955Z" fill="#9A7137"/>
<path d="M70.4397 59.7493C71.9603 59.2754 72.6371 61.7893 74.054 60.8957C76.5583 59.3205 73.7833 53.6381 68.9822 55.8136C63.6532 58.2282 66.2883 69.0966 74.2931 66.5285C78.1421 65.2918 80.6149 58.6164 83.8547 55.6872C89.283 50.7766 95.916 50.4787 99.219 57.7634C104.128 68.5956 86.9321 71.8362 85.4114 62.5657C83.8908 53.2951 97.4637 51.2053 95.555 60.7874C94.9639 63.7527 89.2108 63.8791 90.2576 59.7448C90.93 59.0407 94.1743 63.0982 94.7609 59.492C95.8529 52.7941 83.7689 55.0598 86.6297 63.1434C89.2017 70.4145 101.913 66.3795 98.5828 58.8376C98.6189 63.6714 94.057 67.377 89.6439 64.6283C83.6426 60.8912 92.5318 53.3583 93.4117 58.6119C93.7095 60.3992 91.5797 58.0974 90.9299 58.0928C88.3038 58.0793 87.2705 64.4613 92.7349 64.2853C100.198 64.0506 98.4971 49.8603 88.5881 53.7961C82.2528 56.3191 78.643 66.867 74.6225 67.7651C69.3928 68.9296 64.5692 65.6122 65.052 60.0291C65.598 53.6877 75.4799 52.6993 75.6829 58.6931C75.8273 62.9764 69.9749 64.6328 70.4397 59.7538L70.4397 59.7493Z" fill="#9A7137"/>
<path d="M65.7722 38.8656C62.4151 42.2597 54.9202 44.4171 55.0962 50.0454C55.2406 54.5859 59.5724 56.7614 63.7011 55.4931C67.6764 54.2699 67.6719 47.1071 63.4529 47.1116C58.6925 47.1161 62.7761 51.2369 62.3249 51.6386C57.7674 52.3021 58.9632 46.7686 62.6723 46.3173C68.3758 45.6222 69.2061 54.6671 63.4304 56.5718C57.6546 58.4765 52.3166 52.7579 54.6359 46.8724C56.301 42.6524 65.7452 39.8405 68.2721 33.4811C72.1797 23.6328 58.0201 21.868 57.7855 29.3332C57.6907 32.3166 59.9785 34.3115 62.7806 32.944C65.2308 31.7479 63.1371 30.1953 62.7806 29.3332C62.3294 28.2229 64.2832 28.4937 64.7976 29.5679C67.0943 34.3567 57.244 36.7307 56.5672 30.1095C56.1701 26.228 59.1211 23.6914 62.7716 23.4883C60.7681 21.6062 57.2034 23.9036 56.0844 25.8082C52.5467 31.8337 58.8098 38.7347 64.5539 34.7313C68.2675 32.1451 66.5303 26.0926 62.194 27.4015C59.1617 28.3177 63.101 31.0844 62.3203 31.8201C58.5616 32.8582 58.0292 27.5685 60.9847 26.6748C70.623 23.7727 68.7774 38.6219 59.1437 36.5728C50.0559 34.641 53.8327 17.4042 64.8833 23.1769C72.2248 27.0088 70.8395 33.7428 65.7722 38.8701L65.7722 38.8656Z" fill="#9A7137"/>
<path d="M69.9811 50.285L68.6364 50.285C69.2275 43.244 57.7302 43.2034 57.8069 49.617C57.8701 54.7804 64.7062 53.8732 63.8985 50.6776C63.691 49.8517 62.6125 49.4545 62.7795 48.4841C63.7902 48.4841 64.8326 49.0438 65.0311 50.0548C66.5382 57.669 52.9923 54.4825 57.4414 46.9721C60.5459 41.732 70.6173 43.3478 69.9811 50.285Z" fill="#9A7137"/>
<path d="M68.7649 57.628C69.726 56.8562 71.5986 56.8652 72.7176 57.2398L73.1327 59.2935C67.9662 54.9696 66.9013 64.7998 72.8665 64.2492C77.3517 63.834 78.6874 57.0277 75.1768 54.3287C74.1525 53.5433 72.1626 53.4576 71.7926 52.758C71.206 51.6522 73.5885 52.1577 74.0533 52.3022C80.5284 54.3106 78.8814 65.2467 72.3972 65.4453C68.273 65.5716 66.0259 59.8396 68.7694 57.628L68.7649 57.628Z" fill="#9A7137"/>
<path d="M54.2207 55.2405C56.9145 56.3147 54.8795 65.8155 55.5699 66.5105C58.9812 67.0747 64.3192 65.152 66.8325 67.86L54.2207 67.86L54.2207 55.245L54.2207 55.2405Z" fill="#9A7137"/>
<path d="M77.6436 67.8554C80.0847 65.5581 81.2083 62.1414 83.9472 60.1961C83.5366 63.2652 84.9264 65.5355 86.6546 67.8554L77.6481 67.8554L77.6436 67.8554ZM82.1558 63.3555L80.3509 66.9572L84.3985 66.9572C84.1548 66.4201 82.9996 62.5476 82.1558 63.3555Z" fill="#9A7137"/>
<path d="M54.2207 35.4175C56.4768 37.3177 58.8187 38.5679 61.8781 38.1256C59.9333 40.8652 56.5175 41.9891 54.2207 44.4308L54.2207 35.422L54.2207 35.4175ZM55.1232 37.6742L55.1232 41.7228L58.7195 39.9129C59.482 39.0238 55.7007 37.9541 55.1232 37.6697L55.1232 37.6742Z" fill="#9A7137"/>
<path d="M56.9238 57.4926C59.4868 57.3166 57.718 63.2472 58.273 63.8024L63.8276 63.8791L64.5812 65.1519L56.9238 65.1519L56.9238 57.4926Z" fill="#9A7137"/>
<path d="M59.6279 58.3955C61.5096 57.9713 61.0267 59.4788 61.7442 60.2235C62.4616 60.9682 64.1718 60.6748 63.68 62.4486L60.0476 62.2545L59.6279 58.3955Z" fill="#9A7137"/>
</svg>
