<svg width="68" height="68" viewBox="0 0 68 68" fill="none" xmlns="http://www.w3.org/2000/svg">
<g filter="url(#filter0_d_6690_14189)">
<path d="M43.3301 32.8131C45.3783 33.6393 47.429 33.9792 49.6039 33.2215C53.3417 32.9792 55.5743 34.6047 59 31.923C57.3449 31.4308 55.3364 32.2993 53.8046 31.8175C51.7547 30.5147 49.4815 30.5251 47.3127 31.4836C44.8085 31.622 42.45 30.0441 40.3803 31.3183C39.52 32.1479 39.4174 31.6479 39.8631 30.7993C41.0294 28.2958 44.5654 29.8953 46.5006 28.4637C50.2815 24.8486 52.8874 27.795 55.8105 23.0138C57.2122 21.4438 52.1478 24.5138 51.5478 24.4005C47.9618 23.449 46.0627 27.0536 42.7948 27.2526C40.9992 27.5208 39.2967 28.2266 38.3554 29.8469C37.9451 28.8062 38.1812 27.9221 38.9157 27.0796C42.0586 25.9645 43.706 23.6185 45.5516 21.0649C47.4109 19.8841 49.4539 18.9092 49.6901 16.4386C50.0479 14.9922 50.5944 14.2318 48.9143 15.9195C48.0221 16.5978 47.7066 17.9256 46.5006 18.3417C43.6534 18.9265 42.5802 21.2016 41.0708 23.4464C39.1071 24.8183 36.7925 25.8365 36.3296 28.4637C34.1435 25.6566 38.3769 23.9792 38.8295 21.4567C38.7631 17.7388 42.5215 15.5035 41.8466 11.8547C41.6888 8.0026 40.6191 12.8244 39.9501 14.2768C39.2648 15.4697 37.9528 15.9948 37.364 17.391C37.2744 22.5441 33.3255 23.6107 34.1737 27.9438C31.3764 26.7353 33.466 23.6332 33.747 21.5026C33.4918 18.808 32.6867 16.8426 33.6315 14.2941C34.109 12.2007 32.7953 10.6384 32.0186 9C31.1928 10.6107 32.5919 12.7552 31.76 14.4498C29.7075 17.0294 31.7988 19.5337 31.4187 22.2846C31.3842 22.5372 31.2894 22.776 31.1704 23.0009C30.1127 25.0052 32.6307 29.4671 30.7256 28.0311C28.4059 26.8097 29.9394 23.3157 28.4835 21.3702C25.5086 18.5986 27.0448 13.9991 22.9424 11.9957C22.9424 11.9957 23.4587 14.3555 23.9147 14.8815C25.013 16.8772 23.7303 18.827 25.1216 20.7638C25.2259 21.0242 26.4465 22.1401 26.9767 23.5381C27.5749 25.1151 26.8146 26.3002 27.9671 28.1168C28.268 28.5908 29.1369 29.308 29.8627 29.5009C29.074 30.2284 27.6559 29.6652 27.1042 28.8088C25.5948 25.6176 24.1535 24.4663 21.2804 22.545C19.9193 19.9715 17.928 17.8728 15.1212 17.9957C15.6841 19.1453 16.9668 19.692 17.834 20.5061C19.0443 21.718 18.8805 24.0329 20.552 24.9161C24.1613 25.9818 24.6397 31.0156 28.3093 31.3183C28.274 31.4429 28.7067 31.4628 28.4783 31.6168C26.0077 33.628 24.2854 30.2033 22.101 29.2855C17.4349 28.8573 15.0635 25.0528 10.2068 26.2145C11.3499 27.4991 13.4584 27.186 14.7342 28.2007C16.2108 30.1981 18.1357 31.1341 20.5511 31.1436C23.126 31.7353 24.9724 34.8884 27.9637 33.7388C26.918 36.4715 23.6604 34.442 21.7726 34.1566C19.4555 33.9775 17.2565 35.4369 14.948 34.5173C13.0748 33.4931 10.6025 35.1704 9 35.9888C10.2905 36.3227 11.6637 36.0917 12.9231 35.904C15.2919 36.2855 17.7763 38.0493 20.2744 36.5311C23.0157 36.0104 25.9379 38.2638 28.3533 36.0753C28.2766 40.122 22.4778 37.449 19.5167 40.8339C15.4591 42.4784 14.5644 41.2682 11.6723 45.4187C13.5127 45.154 14.5368 43.9723 16.2936 43.5251C17.7944 43.3702 18.59 43.8798 20.2055 43.1687C21.5864 42.5277 22.4803 41.0138 24.1708 40.833C26.3103 40.5476 28.6067 39.9637 29.6877 38.0649C30.8446 40.7085 27.0577 41.8417 25.6362 42.7362C24.4027 43.7933 23.6561 45.455 22.6191 46.7154C20.0744 47.9031 18.5202 49.6531 17.9651 52.4247C16.9789 54.077 19.7865 51.5251 19.9468 51.0407C20.6718 49.5251 22.2838 49.3279 23.6536 48.705C25.2914 47.7137 25.8017 45.6548 27.1017 44.2933C29.0102 43.1773 31.3833 41.9844 31.498 39.449C33.9306 41.7621 30.1636 43.7803 29.3429 45.8503C28.7619 48.1695 28.6136 50.5069 26.8422 52.3382C25.1802 55.4057 26.3638 61.263 27.7042 54.1548C30.4498 51.1073 30.8808 50.2768 31.4963 46.2829C32.8746 44.3564 34.5642 42.5363 33.8384 39.974C35.2926 40.5078 35.6305 42.1791 35.0314 43.5156C33.9996 45.8019 34.2478 47.9723 34.9461 50.5225C35.0564 52.596 33.3444 54.8901 34.9461 56.7509C35.0745 57.0779 35.7512 58.346 35.8943 59C36.8813 56.7803 35.053 54.6349 36.7563 52.5986C37.9709 50.0017 36.3227 48.5156 36.5244 45.7483C36.8399 43.9083 37.3468 42.9948 36.9279 41.0069C35.6607 39.3261 36.7684 39.2509 38.0485 40.4014C39.0407 42.0329 38.3812 44.1202 39.1691 45.8512C42.106 48.7933 41.0501 53.7933 45.0309 55.8858C46.342 57.1375 43.7672 52.5138 43.5879 51.9273C43.8551 49.2569 43.0888 46.9386 41.1518 44.9862C40.4941 37.8633 36.1451 38.2016 39.5493 38.1592C41.5156 38.532 41.5923 41.0727 42.7034 42.218C43.6698 43.5121 45.0964 43.9957 46.3239 44.9862C48.0687 47.7664 49.7177 49.5779 53.0063 50.2612C52.484 48.4394 50.2005 48.077 49.472 46.3685C48.9221 43.942 47.2144 42.4092 44.9447 41.526C42.8698 39.2881 42.9612 37.1548 39.6001 36.5086C39.3605 36.3953 39.507 36.3201 39.5932 36.1687C41.9371 34.6133 43.5482 37.2725 45.374 38.3694C48.4592 39.0796 51.0521 40.0026 53.5796 41.8131C57.3535 42.0839 59.606 41.4196 54.339 40.2725C52.3219 39.3875 51.3271 36.8642 48.866 36.8547C46.9808 37.154 45.4421 35.891 43.9887 34.8279C42.6922 33.987 41.4552 33.7855 39.9441 34.1721C40.6846 32.6704 41.7716 32.4092 43.3249 32.8123L43.3301 32.8131ZM11.3542 26.3054C11.3766 26.301 11.4042 26.301 11.4266 26.301C11.4016 26.3019 11.3775 26.3036 11.3542 26.3054ZM38.0519 29.0683C38.0519 29.0683 38.0476 29.0631 38.0519 29.0614V29.0683Z" fill="#B2CBE0"/>
</g>
<defs>
<filter id="filter0_d_6690_14189" x="8.91494" y="9" width="50.6805" height="51.0207" filterUnits="userSpaceOnUse" color-interpolation-filters="sRGB">
<feFlood flood-opacity="0" result="BackgroundImageFix"/>
<feColorMatrix in="SourceAlpha" type="matrix" values="0 0 0 0 0 0 0 0 0 0 0 0 0 0 0 0 0 0 127 0" result="hardAlpha"/>
<feOffset dx="0.255177" dy="0.680472"/>
<feGaussianBlur stdDeviation="0.170118"/>
<feComposite in2="hardAlpha" operator="out"/>
<feColorMatrix type="matrix" values="0 0 0 0 0 0 0 0 0 0 0 0 0 0 0 0 0 0 0.5 0"/>
<feBlend mode="normal" in2="BackgroundImageFix" result="effect1_dropShadow_6690_14189"/>
<feBlend mode="normal" in="SourceGraphic" in2="effect1_dropShadow_6690_14189" result="shape"/>
</filter>
</defs>
</svg>
