<svg width="232" height="68" viewBox="0 0 232 68" fill="none" xmlns="http://www.w3.org/2000/svg">
<g clip-path="url(#clip0_6682_14280)">
<path d="M8.32114 31.6111L15.4488 33.4604L20.4435 30.2746L9.67103 22.526C0.498248 28.648 1.33522 36.9365 11.6892 41.0403C27.7264 47.3985 51.438 23.093 64.9508 36.9973L58.2213 35.6541L54.185 39.6904L61.3127 46.9395C69.743 46.7573 74.4813 38.9817 68.2176 32.4615C53.3616 16.9981 22.4549 50.9151 8.33463 31.6111L8.32114 31.6111Z" fill="#B2CBE0"/>
<path d="M134.455 30.8997C137.756 38.79 140.752 26.7082 144.532 32.9179C125.829 50.3657 98.1148 12.5271 81.5174 36.9946L89.2323 47.4363L98.6683 41.0242L94.0043 36.2522L88.5776 39.0061C88.0781 29.3136 100.558 32.6546 106.106 33.829C119.356 36.6437 141.664 50.8247 149.527 33.5928L141.853 22.5436C138.424 23.583 132.552 26.3504 134.455 30.8997Z" fill="#B2CBE0"/>
<path d="M218.09 32.9324C221.89 34.3161 222.679 34.6333 222.092 38.9599L216.672 36.2127C206.98 39.8171 218.326 48.0584 221.424 47.3362C229.335 45.4867 231.116 36.7797 223.51 31.0223C212.805 22.9092 194.655 35.3083 182.985 37.1374C177.349 38.0216 167.069 39.9588 168.162 30.8873L173.582 33.6344L178.253 28.8556L168.837 22.4367C158.207 28.6801 159.833 37.1375 170.856 41.6125C181.216 45.8175 205.92 28.4979 218.083 32.9257L218.09 32.9324Z" fill="#B2CBE0"/>
</g>
<defs>
<clipPath id="clip0_6682_14280">
<rect width="231.955" height="42" fill="white" transform="translate(0.0224609 13)"/>
</clipPath>
</defs>
</svg>
