<svg width="48" height="48" viewBox="0 0 48 48" fill="none" xmlns="http://www.w3.org/2000/svg">
<rect width="48" height="48" rx="8" fill="#05589C" fill-opacity="0.2"/>
<g clip-path="url(#clip0_6610_7541)">
<path d="M23.9586 8.10593C26.7055 8.10593 29.2906 8.79795 31.5486 10.0175C36.5526 12.72 39.9517 18.0122 39.9517 24.0981C39.9517 32.8956 32.8486 40.0339 24.0649 40.0911C24.0298 40.0911 23.9947 40.0921 23.9596 40.0921C23.9245 40.0921 23.8903 40.0921 23.8552 40.0911C15.0696 40.0357 7.96558 32.8966 7.96558 24.0981C7.96558 15.2654 15.126 8.10501 23.9586 8.10501L23.9586 8.10593ZM15.7949 11.9799C15.0253 12.5001 14.3 13.0988 13.6283 13.7696C11.6151 15.7828 10.2606 18.2801 9.67575 21.0002C9.72657 21.0353 9.78108 21.0667 9.83836 21.0935C10.1664 21.2515 10.632 21.2995 11.3009 21.0547C11.2501 20.6657 11.5522 20.2185 12.053 19.9903C12.6332 19.7252 13.2596 19.8527 13.4518 20.2749C13.6449 20.6971 13.3308 21.2542 12.7515 21.5194C12.2941 21.7282 11.8082 21.6931 11.5282 21.4621C11.009 21.6626 10.5627 21.7199 10.1821 21.67C10.7059 22.0516 11.4414 22.3777 12.4762 22.532C12.7376 22.1791 13.3252 22.0507 13.9082 22.2484C14.5873 22.4794 15.0012 23.067 14.8331 23.5604C14.6649 24.0546 13.9784 24.2681 13.3003 24.0371C12.7349 23.8449 12.3523 23.4042 12.3385 22.9774C11.9458 22.9155 11.591 22.8295 11.2704 22.7233C11.9541 23.3054 12.8753 24.4723 13.6615 26.8005C13.6523 26.7959 10.3973 25.1236 10.2717 22.277C10.1128 22.1837 9.96771 22.0858 9.83282 21.9832C9.72749 21.9028 9.62956 21.8197 9.53901 21.7356C9.41336 22.5099 9.34961 23.3007 9.34961 24.0999C9.34961 28.0016 10.8695 31.6705 13.6292 34.4303C14.9356 35.7367 16.4462 36.765 18.088 37.4857C17.8266 37.2187 17.5762 36.9332 17.3369 36.6292C15.6683 34.5042 14.7499 31.6973 14.7499 28.726C14.7499 27.2098 14.9874 25.739 15.4549 24.3512C15.4918 24.2422 15.5269 24.1433 15.562 24.0482L15.7136 23.638L15.6988 23.6925L16.3308 24.3706C16.4684 24.5185 16.6125 24.6617 16.7631 24.8021C16.3575 26.005 16.134 27.3318 16.134 28.7241C16.134 31.1725 16.8269 33.414 17.9763 35.1491C17.287 33.5156 16.8879 31.58 16.8879 29.5049C16.8879 28.0229 17.0911 26.6121 17.4579 25.3324C17.4857 25.2363 17.5143 25.1412 17.5439 25.0469C17.858 25.3454 18.2128 25.6198 18.6017 25.8692C20.0237 26.7784 21.9011 27.3318 23.9596 27.3318C26.0181 27.3318 27.8955 26.7793 29.3174 25.8692C29.7054 25.6198 30.0611 25.3454 30.3743 25.0469C30.4039 25.1412 30.4325 25.2354 30.4603 25.3315C30.8271 26.6111 31.0303 28.022 31.0303 29.5039C31.0303 31.5772 30.6321 33.5101 29.9447 35.1417C31.0913 33.4075 31.7815 31.1688 31.7815 28.7241C31.7815 27.3327 31.5579 26.0078 31.1541 24.8058C31.3047 24.6663 31.4498 24.5222 31.5874 24.3743L32.2203 23.6971L32.2065 23.6481L32.3543 24.0491C32.3903 24.1489 32.4273 24.2505 32.4624 24.3549C32.9281 25.739 33.1655 27.2098 33.1655 28.726C33.1655 31.6973 32.2462 34.5042 30.5785 36.6292C30.3402 36.9332 30.0888 37.2187 29.8274 37.4857C31.4701 36.765 32.9807 35.7358 34.2881 34.4294C37.0478 31.6696 38.5677 28.0007 38.5677 24.099C38.5677 23.2989 38.5039 22.5089 38.3783 21.7347C38.2877 21.8188 38.1898 21.9019 38.0845 21.9823C37.9505 22.0849 37.8045 22.1837 37.6456 22.2761C37.5199 25.1218 34.2659 26.7941 34.2557 26.7996C35.042 24.4713 35.9622 23.3035 36.6468 22.7224C36.3262 22.8277 35.9705 22.9145 35.5779 22.9764C35.5658 23.4051 35.1833 23.8477 34.6161 24.0399C33.937 24.2708 33.2505 24.0574 33.0833 23.5631C32.9151 23.0688 33.33 22.4812 34.0081 22.2512C34.5883 22.0534 35.175 22.1819 35.4374 22.5311C36.4741 22.3777 37.2104 22.0507 37.7343 21.6682C37.3527 21.7181 36.9065 21.6608 36.3872 21.4603C36.1073 21.6913 35.6213 21.7254 35.1649 21.5166C34.5846 21.2515 34.2714 20.6944 34.4645 20.2721C34.6576 19.8499 35.2841 19.7224 35.8643 19.9876C36.365 20.2167 36.6672 20.6629 36.6154 21.0528C37.2843 21.2986 37.7509 21.2506 38.078 21.0926C38.1353 21.0648 38.1889 21.0334 38.2406 20.9983C37.6558 18.2792 36.3031 15.7819 34.289 13.7677C33.6173 13.096 32.892 12.4983 32.1233 11.9781C32.3053 13.0702 32.3284 14.4921 31.7334 15.9121C32.3404 16.886 32.6897 17.9974 32.6897 19.1884C32.6897 20.8551 32.0032 22.3731 30.8797 23.5724C30.5342 23.9419 30.1452 24.2819 29.7239 24.5878C28.1782 25.7048 26.1566 26.3709 23.9605 26.3709C21.7643 26.3709 19.7428 25.7048 18.1971 24.5887C17.7739 24.2829 17.384 23.9419 17.0375 23.5705C15.9159 22.3722 15.2294 20.8551 15.2294 19.1893C15.2294 17.9984 15.5787 16.8869 16.1857 15.9131C15.5907 14.4939 15.6129 13.0711 15.7958 11.979L15.7949 11.9799ZM25.6429 34.6733C24.9094 35.2507 23.9753 35.466 23.0985 35.1398C22.8157 35.0373 22.546 34.8821 22.2734 34.6807C22.8407 36.1081 25.0794 36.1035 25.6429 34.6733ZM27.1425 31.5698L25.4656 31.5698L25.4656 31.6142L25.5459 31.6687L25.5459 33.2393L25.5081 33.3003L25.5081 33.3308L27.1471 33.3308L27.2081 33.377L27.2367 33.377L27.2367 32.9502L27.2081 32.9502L27.1471 33.013L25.8924 33.013L25.8924 32.6065L26.748 32.6065L26.7914 32.6573L26.8209 32.6573L26.8209 32.2341L26.7951 32.2341L26.748 32.2831L25.8906 32.2831L25.8906 31.9107L27.1342 31.9107L27.1767 31.9569L27.2053 31.9569L27.2053 31.5301L27.1739 31.5301L27.1425 31.5726L27.1425 31.5698ZM23.9226 31.5624C23.6528 31.5624 23.4191 31.641 23.2204 31.7999C23.0107 31.9671 22.9063 32.1657 22.9063 32.4244C22.9063 32.6831 23.0015 32.9049 23.1927 33.0878C23.384 33.2708 23.6094 33.3622 23.8727 33.3622C24.1554 33.3622 24.3993 33.2763 24.6054 33.1035C24.8207 32.9224 24.9288 32.6998 24.9288 32.4355C24.9288 32.1842 24.8253 31.9754 24.6192 31.8054C24.4224 31.6447 24.1915 31.5634 23.9235 31.5634L23.9226 31.5624ZM21.1435 31.6243L21.1749 31.6613L20.3073 33.2504L20.2251 33.3133L20.2251 33.3428L20.7351 33.3428L20.7351 33.3133L20.6796 33.2781L20.8524 32.9575L21.9463 32.9575L22.1099 33.2624L22.0591 33.3114L22.0591 33.341L22.5894 33.341L22.5894 33.3114L22.5284 33.2624L21.6026 31.6604L21.6368 31.6234L21.6368 31.5791L21.1425 31.5791L21.1425 31.6234L21.1435 31.6243ZM23.9281 31.8858C24.0889 31.8858 24.2284 31.9375 24.3467 32.041C24.4696 32.1473 24.5315 32.2785 24.5315 32.4309C24.5315 32.6018 24.4686 32.7441 24.3411 32.8578C24.2173 32.9686 24.0695 33.0241 23.8967 33.0241L23.8958 33.0241C23.7323 33.0241 23.5918 32.9677 23.4773 32.8568C23.3618 32.746 23.3036 32.612 23.3036 32.4522C23.3036 32.2923 23.3664 32.1565 23.493 32.0456C23.6159 31.9394 23.7683 31.8858 23.9281 31.8858ZM23.9217 32.2757C23.869 32.2757 23.8173 32.2932 23.7766 32.3284C23.735 32.3653 23.7138 32.4097 23.7138 32.4632C23.7138 32.5168 23.7332 32.5612 23.7711 32.5981C23.8099 32.6351 23.8561 32.6536 23.9097 32.6536C23.967 32.6536 24.0159 32.6351 24.0575 32.5981C24.1 32.5603 24.1203 32.5131 24.1203 32.4568C24.1203 32.406 24.1 32.3625 24.0593 32.3274C24.0196 32.2932 23.9734 32.2757 23.9208 32.2757L23.9217 32.2757ZM21.7532 32.6499L21.0187 32.6499L21.3837 31.9976L21.7532 32.6499ZM21.4964 29.2194C20.7628 29.7968 19.8287 30.0121 18.9519 29.6859C18.6692 29.5834 18.3994 29.4282 18.1269 29.2268C18.6941 30.6542 20.9328 30.6496 21.4955 29.2194L21.4964 29.2194ZM25.6429 29.2194C24.9094 29.7968 23.9753 30.0121 23.0985 29.6859C22.8157 29.5834 22.546 29.4282 22.2734 29.2268C22.8407 30.6542 25.0794 30.6496 25.6429 29.2194ZM29.7904 29.2194C29.0568 29.7968 28.1227 30.0121 27.2459 29.6859C26.9632 29.5834 26.6934 29.4282 26.4209 29.2268C26.9882 30.6542 29.2268 30.6496 29.7904 29.2194ZM25.1348 22.7224C25.1071 23.4486 23.9605 24.5286 23.9596 24.5295C23.9568 24.5268 22.8121 23.4495 22.7834 22.7233C22.1062 23.5179 21.21 24.0491 20.2223 24.1803C21.3125 24.6912 22.5885 24.9887 23.9596 24.9887C25.3307 24.9887 26.6066 24.6912 27.6968 24.1803C26.7091 24.0491 25.8129 23.5179 25.1348 22.7224ZM29.2416 16.339C28.63 15.8059 27.841 15.501 26.9928 15.5407C26.2583 15.5749 25.5921 15.8641 25.0646 16.3224C24.5453 16.7732 24.1601 17.3886 23.9762 18.0926C23.9706 18.1111 23.9651 18.1305 23.9605 18.1489C23.9559 18.1305 23.9503 18.1111 23.9448 18.0926C23.76 17.3895 23.3756 16.7742 22.8564 16.3224C22.3288 15.8641 21.6627 15.5749 20.9273 15.5407C20.0791 15.501 19.2891 15.8059 18.6784 16.3399L19.5515 17.213C19.9368 16.9229 20.4163 16.7511 20.9365 16.7511C22.2097 16.7511 23.2417 17.7831 23.2417 19.0562C23.2417 20.3294 22.2097 21.3614 20.9365 21.3614C20.5817 21.3614 20.2454 21.281 19.9451 21.1378L19.2346 22.2114C19.6439 22.4359 20.105 22.5727 20.5965 22.5958C22.1524 22.6697 23.5096 21.5813 23.9328 20.0522C23.942 20.0162 23.9512 19.9802 23.9605 19.9441C23.9688 19.9802 23.978 20.0162 23.9882 20.0522C24.4114 21.5822 25.7695 22.6697 27.3245 22.5958C27.8151 22.5727 28.2761 22.4369 28.6854 22.2124L27.9749 21.1388C27.6746 21.282 27.3393 21.3623 26.9845 21.3623C25.7113 21.3623 24.6793 20.3303 24.6793 19.0572C24.6793 17.784 25.7113 16.752 26.9845 16.752C27.5037 16.752 27.9842 16.9238 28.3694 17.2139L29.2425 16.3408L29.2416 16.339ZM28.6346 20.6629C28.5958 20.7036 28.5542 20.7424 28.5126 20.7794L29.2176 21.8446C29.3737 21.7125 29.5188 21.5656 29.65 21.4067L28.6346 20.6629ZM18.2682 21.4067C18.3994 21.5665 18.5445 21.7125 18.7006 21.8446L19.4056 20.7794C19.364 20.7424 19.3233 20.7036 19.2836 20.6639L18.2682 21.4067ZM20.9346 17.2112C19.9165 17.2112 19.0914 18.0362 19.0914 19.0544C19.0914 20.0726 19.9165 20.8976 20.9346 20.8976C21.9528 20.8976 22.7779 20.0726 22.7779 19.0544C22.7779 18.0362 21.9528 17.2112 20.9346 17.2112ZM26.9836 17.2112C25.9654 17.2112 25.1403 18.0362 25.1403 19.0544C25.1403 20.0726 25.9654 20.8976 26.9836 20.8976C28.0017 20.8976 28.8268 20.0726 28.8268 19.0544C28.8268 18.0362 28.0017 17.2112 26.9836 17.2112ZM29.0901 19.9903C29.067 20.0421 29.042 20.092 29.0162 20.1418L30.0131 20.8708C30.1092 20.6971 30.1914 20.5133 30.2589 20.3229L29.091 19.9903L29.0901 19.9903ZM17.6612 20.3229C17.7277 20.5142 17.8099 20.6971 17.906 20.8717L18.902 20.1428C18.8752 20.0929 18.8503 20.043 18.8281 19.9912L17.6612 20.3239L17.6612 20.3229ZM20.9346 17.6085C21.7329 17.6085 22.3806 18.2561 22.3806 19.0544C22.3806 19.8527 21.7329 20.5003 20.9346 20.5003C20.1364 20.5003 19.4887 19.8527 19.4887 19.0544C19.4887 18.2561 20.1364 17.6085 20.9346 17.6085ZM26.9836 17.6085C27.7818 17.6085 28.4295 18.2561 28.4295 19.0544C28.4295 19.8527 27.7818 20.5003 26.9836 20.5003C26.1853 20.5003 25.5376 19.8527 25.5376 19.0544C25.5376 18.2561 26.1853 17.6085 26.9836 17.6085ZM29.2832 19.2013C29.2795 19.2577 29.274 19.314 29.2666 19.3694L30.4168 19.6974C30.4483 19.5062 30.4649 19.3103 30.4658 19.1108L29.2832 19.2013ZM17.4533 19.1108C17.4542 19.3103 17.4709 19.5062 17.5023 19.6965L18.6516 19.3685C18.6442 19.3131 18.6387 19.2577 18.635 19.2013L17.4533 19.1098L17.4533 19.1108ZM17.6464 17.8967C17.5854 18.0797 17.5374 18.27 17.5051 18.4668L18.684 18.5573C18.696 18.5019 18.7108 18.4474 18.7265 18.3938L17.6464 17.8967ZM29.1917 18.3938C29.2074 18.4474 29.2222 18.5019 29.2342 18.5573L30.415 18.4668C30.3827 18.2709 30.3346 18.0797 30.2736 17.8967L29.1926 18.3938L29.1917 18.3938ZM28.8249 17.6685C28.8591 17.7138 28.8914 17.7591 28.9219 17.8071L30.0149 17.3045C29.9188 17.128 29.8089 16.9626 29.6869 16.8074L28.8249 17.6694L28.8249 17.6685ZM18.2322 16.8074C18.1102 16.9617 18.0003 17.128 17.9042 17.3045L18.9963 17.8071C19.0268 17.76 19.0591 17.7138 19.0924 17.6694L18.2313 16.8083L18.2322 16.8074ZM23.9596 13.3908C22.6042 13.3908 21.3412 13.6809 20.2583 14.1816C21.9556 14.3618 23.9596 15.7569 23.9596 15.7569C23.9596 15.7569 25.9626 14.3609 27.6599 14.1816C26.577 13.6809 25.315 13.3908 23.9596 13.3908ZM23.9596 9.48997C21.3061 9.48997 18.7597 10.1931 16.534 11.5115C16.8186 12.6766 17.4459 13.3908 18.21 13.7807C18.3532 13.6772 18.501 13.5774 18.6516 13.4822C20.129 12.5528 21.9713 12.0077 23.9586 12.0077C25.946 12.0077 27.7883 12.5528 29.2656 13.4822C29.4162 13.5774 29.5641 13.6772 29.7073 13.7807C30.4714 13.3917 31.0987 12.6766 31.3833 11.5124C29.2084 10.2245 26.7285 9.52323 24.1397 9.49182L23.9577 9.49182L23.9596 9.48997Z" fill="#05589C"/>
</g>
<defs>
<clipPath id="clip0_6610_7541">
<rect x="8" y="8" width="32" height="32" rx="8" fill="white"/>
</clipPath>
</defs>
</svg>
