<svg width="68" height="68" viewBox="0 0 68 68" fill="none" xmlns="http://www.w3.org/2000/svg">
<path d="M54.3721 30.4665C50.7086 28.8188 47.4329 28.4323 43.4251 28.9786C40.6616 29.3564 38.5086 30.6757 36.0431 31.7248C39.9555 26.5289 40.0105 18.1918 36.8736 12.6094C36.4425 11.8423 34.1709 8.39292 33.1609 9.09325C28.5309 15.7188 27.0522 24.8406 31.9919 31.7219C29.5293 30.6699 27.3763 29.3535 24.6099 28.9757C20.5095 28.4149 16.9733 28.8508 13.2577 30.635C9.42353 32.4745 7.78567 33.727 11.9237 36.4847C17.798 40.399 26.3954 40.0096 31.9861 35.7931C31.1845 38.0685 29.619 40.1549 29.237 42.6076C28.3168 48.5502 29.3441 54.8968 34.0146 59C40.2651 53.3741 40.5198 43.119 36.0402 36.3772C42.2676 39.2541 47.6558 40.3961 54.1898 37.4582C59.7921 34.9387 60.0179 33.0005 54.3693 30.4607L54.3721 30.4665Z" fill="#D7C3A5"/>
</svg>
