<svg width="24" height="24" viewBox="0 0 24 24" fill="none" xmlns="http://www.w3.org/2000/svg">
<path d="M11.5 11.2998C10.837 11.2998 10.2011 11.0364 9.73223 10.5676C9.26339 10.0987 9 9.46285 9 8.7998C9 8.13676 9.26339 7.50088 9.73223 7.03204C10.2011 6.5632 10.837 6.2998 11.5 6.2998C12.163 6.2998 12.7989 6.5632 13.2678 7.03204C13.7366 7.50088 14 8.13676 14 8.7998C14 9.12811 13.9353 9.4532 13.8097 9.75651C13.6841 10.0598 13.4999 10.3354 13.2678 10.5676C13.0356 10.7997 12.76 10.9839 12.4567 11.1095C12.1534 11.2351 11.8283 11.2998 11.5 11.2998ZM11.5 1.7998C9.64348 1.7998 7.86301 2.5373 6.55025 3.85006C5.2375 5.16281 4.5 6.94329 4.5 8.7998C4.5 14.0498 11.5 21.7998 11.5 21.7998C11.5 21.7998 18.5 14.0498 18.5 8.7998C18.5 6.94329 17.7625 5.16281 16.4497 3.85006C15.137 2.5373 13.3565 1.7998 11.5 1.7998Z" fill="currentcolor"></path>
</svg>