<svg width="48" height="48" viewBox="0 0 48 48" fill="none" xmlns="http://www.w3.org/2000/svg">
<rect width="48" height="48" rx="8" fill="#05589C" fill-opacity="0.2"/>
<path d="M20.8 9H27.2C28.0487 9 28.8626 9.33271 29.4627 9.92493C30.0629 10.5171 30.4 11.3204 30.4 12.1579V15.3158H36.8C37.6487 15.3158 38.4626 15.6485 39.0627 16.2407C39.6629 16.8329 40 17.6362 40 18.4737V35.8421C40 36.6796 39.6629 37.4829 39.0627 38.0751C38.4626 38.6673 37.6487 39 36.8 39H11.2C9.424 39 8 37.5789 8 35.8421V18.4737C8 16.7211 9.424 15.3158 11.2 15.3158H17.6V12.1579C17.6 10.4053 19.024 9 20.8 9ZM27.2 15.3158V12.1579H20.8V15.3158H27.2Z" fill="#05589C"/>
</svg>
