<svg width="101" height="68" viewBox="0 0 101 68" fill="none" xmlns="http://www.w3.org/2000/svg">
<path d="M29.658 59.7493C28.1374 59.2754 27.4605 61.7893 26.0437 60.8957C23.5393 59.3205 26.3144 53.6381 31.1155 55.8136C36.4445 58.2282 33.8093 69.0966 25.8045 66.5285C21.9555 65.2918 19.4828 58.6164 16.243 55.6872C10.8147 50.7766 4.18163 50.4787 0.878636 57.7634C-4.03074 68.5956 13.1656 71.8362 14.6862 62.5657C16.2069 53.2951 2.63392 51.2053 4.54261 60.7874C5.13372 63.7527 10.8869 63.8791 9.84004 59.7448C9.16771 59.0407 5.92337 63.0982 5.33678 59.492C4.2448 52.7941 16.3287 55.0598 13.4679 63.1434C10.8959 70.4145 -1.8152 66.3795 1.51487 58.8376C1.47877 63.6714 6.04069 67.377 10.4537 64.6283C16.4551 60.8912 7.56584 53.3583 6.68595 58.6119C6.38814 60.3992 8.51794 58.0974 9.16771 58.0928C11.7939 58.0793 12.8272 64.4613 7.36279 64.2853C-0.100532 64.0506 1.6006 49.8603 11.5096 53.7961C17.8448 56.3191 21.4547 66.867 25.4751 67.7651C30.7049 68.9296 35.5285 65.6122 35.0457 60.0291C34.4997 53.6877 24.6178 52.6993 24.4147 58.6931C24.2703 62.9764 30.1228 64.6328 29.658 59.7538L29.658 59.7493Z" fill="#D7C3A5"/>
<path d="M34.3249 38.8656C37.6821 42.2597 45.177 44.4171 45.001 50.0454C44.8566 54.5859 40.5248 56.7614 36.3961 55.4931C32.4207 54.2699 32.4253 47.1071 36.6442 47.1116C41.4047 47.1161 37.3211 51.2369 37.7723 51.6386C42.3297 52.3021 41.134 46.7686 37.4249 46.3173C31.7213 45.6222 30.8911 54.6671 36.6668 56.5718C42.4425 58.4765 47.7806 52.7579 45.4613 46.8724C43.7962 42.6524 34.352 39.8405 31.8251 33.4811C27.9175 23.6328 42.077 21.868 42.3117 29.3332C42.4064 32.3166 40.1187 34.3115 37.3166 32.944C34.8664 31.7479 36.9601 30.1953 37.3166 29.3332C37.7678 28.2229 35.814 28.4937 35.2996 29.5679C33.0028 34.3567 42.8531 36.7307 43.53 30.1095C43.9271 26.228 40.976 23.6914 37.3256 23.4883C39.3291 21.6062 42.8938 23.9036 44.0128 25.8082C47.5504 31.8337 41.2874 38.7347 35.5432 34.7313C31.8296 32.1451 33.5669 26.0926 37.9032 27.4015C40.9354 28.3177 36.9962 31.0844 37.7768 31.8201C41.5356 32.8582 42.068 27.5685 39.1125 26.6748C29.4742 23.7727 31.3197 38.6219 40.9535 36.5728C50.0412 34.641 46.2644 17.4042 35.2138 23.1769C27.8724 27.0088 29.2576 33.7428 34.3249 38.8701L34.3249 38.8656Z" fill="#D7C3A5"/>
<path d="M30.1158 50.285L31.4605 50.285C30.8694 43.244 42.3667 43.2034 42.29 49.617C42.2268 54.7804 35.3907 53.8732 36.1984 50.6776C36.406 49.8517 37.4844 49.4545 37.3175 48.4841C36.3067 48.4841 35.2644 49.0438 35.0658 50.0548C33.5587 57.669 47.1046 54.4825 42.6555 46.9721C39.551 41.732 29.4796 43.3478 30.1158 50.285Z" fill="#D7C3A5"/>
<path d="M31.3326 57.628C30.3714 56.8562 28.4988 56.8652 27.3798 57.2398L26.9647 59.2935C32.1312 54.9696 33.1961 64.7998 27.2309 64.2492C22.7457 63.834 21.41 57.0277 24.9206 54.3287C25.9449 53.5433 27.9348 53.4576 28.3048 52.758C28.8914 51.6522 26.5089 52.1577 26.0442 52.3022C19.569 54.3106 21.216 65.2467 27.7002 65.4453C31.8244 65.5716 34.0715 59.8396 31.328 57.628L31.3326 57.628Z" fill="#D7C3A5"/>
<path d="M45.8765 55.2405C43.1826 56.3147 45.2177 65.8155 44.5273 66.5105C41.116 67.0747 35.778 65.152 33.2646 67.86L45.8765 67.86L45.8765 55.245L45.8765 55.2405Z" fill="#D7C3A5"/>
<path d="M22.4534 67.8554C20.0122 65.5581 18.8887 62.1414 16.1497 60.1961C16.5603 63.2652 15.1705 65.5355 13.4423 67.8554L22.4489 67.8554L22.4534 67.8554ZM17.9411 63.3555L19.746 66.9572L15.6985 66.9572C15.9421 66.4201 17.0973 62.5476 17.9411 63.3555Z" fill="#D7C3A5"/>
<path d="M45.8765 35.4175C43.6203 37.3177 41.2784 38.5679 38.2191 38.1256C40.1639 40.8652 43.5797 41.9891 45.8765 44.4308L45.8765 35.422L45.8765 35.4175ZM44.974 37.6742L44.974 41.7228L41.3777 39.9129C40.6151 39.0238 44.3964 37.9541 44.974 37.6697L44.974 37.6742Z" fill="#D7C3A5"/>
<path d="M43.1731 57.4926C40.6101 57.3166 42.3789 63.2472 41.8239 63.8024L36.2693 63.8791L35.5157 65.1519L43.1731 65.1519L43.1731 57.4926Z" fill="#D7C3A5"/>
<path d="M40.4697 58.3955C38.5881 57.9713 39.0709 59.4788 38.3535 60.2235C37.636 60.9682 35.9259 60.6748 36.4177 62.4486L40.0501 62.2545L40.4697 58.3955Z" fill="#D7C3A5"/>
<path d="M70.4387 59.7493C71.9593 59.2754 72.6362 61.7893 74.053 60.8957C76.5573 59.3205 73.7823 53.6381 68.9812 55.8136C63.6522 58.2282 66.2874 69.0966 74.2922 66.5285C78.1411 65.2918 80.6139 58.6164 83.8537 55.6872C89.282 50.7766 95.915 50.4787 99.218 57.7634C104.127 68.5956 86.9311 71.8362 85.4104 62.5657C83.8898 53.2951 97.4628 51.2053 95.5541 60.7874C94.963 63.7527 89.2098 63.8791 90.2566 59.7448C90.929 59.0407 94.1733 63.0982 94.7599 59.492C95.8519 52.7941 83.768 55.0598 86.6288 63.1434C89.2008 70.4145 101.912 66.3795 98.5818 58.8376C98.6179 63.6714 94.056 67.377 89.643 64.6283C83.6416 60.8912 92.5308 53.3583 93.4107 58.6119C93.7085 60.3992 91.5787 58.0974 90.929 58.0928C88.3028 58.0793 87.2695 64.4613 92.7339 64.2853C100.197 64.0506 98.4961 49.8603 88.5871 53.7961C82.2518 56.3191 78.642 66.867 74.6216 67.7651C69.3918 68.9296 64.5682 65.6122 65.051 60.0291C65.597 53.6877 75.4789 52.6993 75.682 58.6931C75.8263 62.9764 69.9739 64.6328 70.4387 59.7538L70.4387 59.7493Z" fill="#D7C3A5"/>
<path d="M65.7718 38.8656C62.4146 42.2597 54.9197 44.4171 55.0957 50.0454C55.2401 54.5859 59.5719 56.7614 63.7006 55.4931C67.6759 54.2699 67.6714 47.1071 63.4524 47.1116C58.692 47.1161 62.7756 51.2369 62.3244 51.6386C57.767 52.3021 58.9627 46.7686 62.6718 46.3173C68.3753 45.6222 69.2056 54.6671 63.4299 56.5718C57.6542 58.4765 52.3161 52.7579 54.6354 46.8724C56.3005 42.6524 65.7447 39.8405 68.2716 33.4811C72.1792 23.6328 58.0196 21.868 57.785 29.3332C57.6902 32.3166 59.978 34.3115 62.7801 32.944C65.2303 31.7479 63.1366 30.1953 62.7801 29.3332C62.3289 28.2229 64.2827 28.4937 64.7971 29.5679C67.0939 34.3567 57.2435 36.7307 56.5667 30.1095C56.1696 26.228 59.1206 23.6914 62.7711 23.4883C60.7676 21.6062 57.2029 23.9036 56.0839 25.8082C52.5462 31.8337 58.8093 38.7347 64.5534 34.7313C68.2671 32.1451 66.5298 26.0926 62.1935 27.4015C59.1613 28.3177 63.1005 31.0844 62.3199 31.8201C58.5611 32.8582 58.0287 27.5685 60.9842 26.6748C70.6225 23.7727 68.7769 38.6219 59.1432 36.5728C50.0555 34.641 53.8322 17.4042 64.8828 23.1769C72.2243 27.0088 70.8391 33.7428 65.7718 38.8701L65.7718 38.8656Z" fill="#D7C3A5"/>
<path d="M69.9808 50.285L68.6362 50.285C69.2273 43.244 57.73 43.2034 57.8067 49.617C57.8699 54.7804 64.706 53.8732 63.8983 50.6776C63.6907 49.8517 62.6123 49.4545 62.7792 48.4841C63.79 48.4841 64.8323 49.0438 65.0309 50.0548C66.538 57.669 52.9921 54.4825 57.4412 46.9721C60.5456 41.732 70.6171 43.3478 69.9808 50.285Z" fill="#D7C3A5"/>
<path d="M68.7641 57.628C69.7252 56.8562 71.5978 56.8652 72.7169 57.2398L73.132 59.2935C67.9654 54.9696 66.9005 64.7998 72.8658 64.2492C77.351 63.834 78.6866 57.0277 75.1761 54.3287C74.1518 53.5433 72.1619 53.4576 71.7919 52.758C71.2053 51.6522 73.5878 52.1577 74.0525 52.3022C80.5277 54.3106 78.8807 65.2467 72.3965 65.4453C68.2723 65.5716 66.0252 59.8396 68.7686 57.628L68.7641 57.628Z" fill="#D7C3A5"/>
<path d="M54.2202 55.2405C56.9141 56.3147 54.879 65.8155 55.5694 66.5105C58.9807 67.0747 64.3187 65.152 66.8321 67.86L54.2202 67.86L54.2202 55.245L54.2202 55.2405Z" fill="#D7C3A5"/>
<path d="M77.6433 67.8554C80.0845 65.5581 81.208 62.1414 83.947 60.1961C83.5364 63.2652 84.9261 65.5355 86.6544 67.8554L77.6478 67.8554L77.6433 67.8554ZM82.1556 63.3555L80.3507 66.9572L84.3982 66.9572C84.1545 66.4201 82.9994 62.5476 82.1556 63.3555Z" fill="#D7C3A5"/>
<path d="M54.2202 35.4175C56.4764 37.3177 58.8182 38.5679 61.8776 38.1256C59.9328 40.8652 56.517 41.9891 54.2202 44.4308L54.2202 35.422L54.2202 35.4175ZM55.1227 37.6742L55.1227 41.7228L58.719 39.9129C59.4815 39.0238 55.7002 37.9541 55.1227 37.6697L55.1227 37.6742Z" fill="#D7C3A5"/>
<path d="M56.9236 57.4926C59.4866 57.3166 57.7177 63.2472 58.2728 63.8024L63.8274 63.8791L64.5809 65.1519L56.9236 65.1519L56.9236 57.4926Z" fill="#D7C3A5"/>
<path d="M59.627 58.3955C61.5086 57.9713 61.0258 59.4788 61.7432 60.2235C62.4607 60.9682 64.1708 60.6748 63.679 62.4486L60.0466 62.2545L59.627 58.3955Z" fill="#D7C3A5"/>
</svg>
