<svg width="31" height="31" viewBox="0 0 31 31" fill="none" xmlns="http://www.w3.org/2000/svg">
<g clip-path="url(#clip0_6610_2283)">
<path d="M8.88353 0.206055H21.4502C26.2375 0.206055 30.1272 4.09574 30.1272 8.88304V21.4497C30.1272 23.751 29.213 25.958 27.5858 27.5853C25.9585 29.2125 23.7515 30.1267 21.4502 30.1267H8.88353C4.09623 30.1267 0.206543 26.237 0.206543 21.4497V8.88304C0.206543 6.58176 1.12072 4.37474 2.74797 2.74748C4.37522 1.12023 6.58225 0.206055 8.88353 0.206055ZM8.58432 3.19812C7.15594 3.19812 5.78606 3.76554 4.77605 4.77556C3.76603 5.78558 3.19861 7.15545 3.19861 8.58383V21.7489C3.19861 24.726 5.60722 27.1346 8.58432 27.1346H21.7494C23.1778 27.1346 24.5477 26.5672 25.5577 25.5572C26.5677 24.5472 27.1351 23.1773 27.1351 21.7489V8.58383C27.1351 5.60673 24.7265 3.19812 21.7494 3.19812H8.58432ZM23.021 5.44217C23.517 5.44217 23.9926 5.63919 24.3433 5.98989C24.694 6.34059 24.8911 6.81624 24.8911 7.31221C24.8911 7.80817 24.694 8.28382 24.3433 8.63452C23.9926 8.98522 23.517 9.18225 23.021 9.18225C22.5251 9.18225 22.0494 8.98522 21.6987 8.63452C21.348 8.28382 21.151 7.80817 21.151 7.31221C21.151 6.81624 21.348 6.34059 21.6987 5.98989C22.0494 5.63919 22.5251 5.44217 23.021 5.44217ZM15.1669 7.68621C17.1507 7.68621 19.0533 8.4743 20.4561 9.8771C21.8589 11.2799 22.647 13.1825 22.647 15.1664C22.647 17.1502 21.8589 19.0528 20.4561 20.4556C19.0533 21.8584 17.1507 22.6465 15.1669 22.6465C13.183 22.6465 11.2804 21.8584 9.87759 20.4556C8.47479 19.0528 7.6867 17.1502 7.6867 15.1664C7.6867 13.1825 8.47479 11.2799 9.87759 9.8771C11.2804 8.4743 13.183 7.68621 15.1669 7.68621ZM15.1669 10.6783C13.9765 10.6783 12.835 11.1511 11.9933 11.9928C11.1516 12.8345 10.6788 13.9761 10.6788 15.1664C10.6788 16.3567 11.1516 17.4983 11.9933 18.3399C12.835 19.1816 13.9765 19.6545 15.1669 19.6545C16.3572 19.6545 17.4987 19.1816 18.3404 18.3399C19.1821 17.4983 19.655 16.3567 19.655 15.1664C19.655 13.9761 19.1821 12.8345 18.3404 11.9928C17.4987 11.1511 16.3572 10.6783 15.1669 10.6783Z" fill="#05589C"/>
</g>
<defs>
<clipPath id="clip0_6610_2283">
<rect width="30.3333" height="30.3333" fill="white"/>
</clipPath>
</defs>
</svg>
