<svg width="193" height="42" viewBox="0 0 193 42" fill="none" xmlns="http://www.w3.org/2000/svg">
<path d="M26.2538 41.4689H19.2705L10.7621 22.6182L6.29796 27.3973V41.4689H0V4.71844H6.29796V19.2655L16.7513 8.02178C19.3755 5.1877 21.0549 4.45294 25.3092 4.45294V9.96674C23.4198 9.96674 22.1046 10.4916 19.4805 13.2763L15.5411 17.4749L26.2538 41.4689ZM57.0706 41.4689H50.9826L48.4634 31.5959L36.8616 35.2697L35.3365 41.4627H29.2485L37.1271 10.5348H31.6133V4.71844H54.7182V10.5471H49.0994L57.083 41.4751L57.0706 41.4689ZM46.9877 25.9277L42.9434 10.1211L38.4299 28.7124L46.9877 25.9277ZM84.1395 10.7015H68.9627V22.4083L78.1009 17.9997V24.6188L68.9627 29.1879V41.4751H62.6647V4.71844H84.1395V10.7077V10.7015ZM111.671 8.60218C109.992 10.8065 109.307 12.5909 109.307 15.746H103.163C103.163 14.116 103.478 12.5415 104.268 11.0226C103.429 10.5471 102.218 10.2878 99.9091 10.2878C95.6055 10.2878 93.5556 13.4368 93.0307 19.6854H101.064V25.3535H92.9752C93.3456 32.0713 95.2844 35.9057 99.8535 35.9057C103.527 35.9057 105.472 34.0163 105.472 30.8118C105.472 29.2867 105.157 28.1876 104.633 26.823L110.881 27.5084C111.301 28.9285 111.462 29.7683 111.462 31.4971C111.462 37.3752 107.417 41.9999 99.7548 41.9999C90.5116 41.9999 86.4673 34.7017 86.4673 23.0937C86.4673 11.4857 90.7215 4.19361 100.014 4.19361C105.262 4.19361 108.887 5.92864 111.671 8.60218ZM141.272 41.4689H135.233C133.554 32.6456 129.719 24.0384 124.156 17.3699L123.212 41.4689H117.173L118.593 12.381C117.753 11.8006 116.753 11.2757 115.864 10.9114V4.19361C124.842 6.39789 132.09 15.6411 135.19 24.3039V4.71844H141.278V41.4751L141.272 41.4689ZM157.529 5.51495V35.8007H161.308V41.4689H147.656V35.8007H151.435V5.51495M192.322 23.0443C192.322 34.6461 188.124 41.9999 178.881 41.9999C169.637 41.9999 165.544 34.7511 165.544 23.1492C165.544 11.5474 169.742 4.19361 178.986 4.19361C188.229 4.19361 192.322 11.4424 192.322 23.0443ZM185.864 23.1492C185.864 15.2212 184.129 10.2878 178.881 10.2878C173.632 10.2878 172.002 15.1162 172.002 23.0504C172.002 30.9846 173.737 35.9119 178.986 35.9119C184.234 35.9119 185.864 31.0834 185.864 23.1492Z" fill="#05589C"/>
<path d="M160.312 9.7177e-05L146.038 5.89219L148.2 11.1315L162.474 5.23944L160.312 9.7177e-05Z" fill="#05589C"/>
</svg>
