<svg width="261" height="51" viewBox="0 0 261 51" fill="none" xmlns="http://www.w3.org/2000/svg">
<path d="M31.2199 49.3119L22.9157 49.3119L12.7978 26.8956L7.48927 32.5786L7.48927 49.3119L2.30163e-05 49.3119L2.30176e-05 5.60994L7.48927 5.60994L7.48927 22.9086L19.92 9.53813C23.0405 6.16797 25.0376 5.29422 30.0965 5.29422L30.0965 11.851C27.8497 11.851 26.2858 12.4751 23.1653 15.7865L18.4808 20.7793L31.2199 49.3119ZM67.8658 49.3119L60.6262 49.3119L57.6305 37.5714L43.8342 41.9401L42.0206 49.3046L34.781 49.3046L44.1499 12.5265L37.5931 12.5265L37.5931 5.60994L65.0684 5.60994L65.0684 12.5412L58.3868 12.5412L67.8805 49.3192L67.8658 49.3119ZM55.8757 30.8311L51.0664 12.0345L45.6991 34.1425L55.8757 30.8311ZM100.055 12.7247L82.0073 12.7247L82.0073 26.6459L92.874 21.4034L92.874 29.2745L82.0073 34.7079L82.0073 49.3192L74.518 49.3192L74.518 5.60994L100.055 5.60994L100.055 12.7321L100.055 12.7247ZM132.795 10.2283C130.798 12.8495 129.983 14.9715 129.983 18.7235L122.677 18.7235C122.677 16.7851 123.051 14.9128 123.991 13.1065C122.993 12.5412 121.553 12.2328 118.807 12.2328C113.69 12.2328 111.252 15.9774 110.628 23.4079L120.18 23.4079L120.18 30.1482L110.562 30.1482C111.002 38.1368 113.308 42.6964 118.741 42.6964C123.11 42.6964 125.423 40.4496 125.423 36.6389C125.423 34.8254 125.048 33.5184 124.424 31.8957L131.855 32.7107C132.354 34.3995 132.545 35.3981 132.545 37.4539C132.545 44.4439 127.736 49.9434 118.624 49.9434C107.632 49.9434 102.823 41.2646 102.823 27.4609C102.823 13.6572 107.882 4.98584 118.932 4.98584C125.173 4.98584 129.483 7.04905 132.795 10.2283ZM167.994 49.3119L160.813 49.3119C158.816 38.8196 154.257 28.5843 147.641 20.6545L146.518 49.3119L139.337 49.3119L141.026 14.7219C140.027 14.0317 138.837 13.4076 137.78 12.9744L137.78 4.98584C148.456 7.60708 157.076 18.5986 160.762 28.9L160.762 5.60994L168.001 5.60994L168.001 49.3192L167.994 49.3119ZM187.327 6.55711L187.327 42.5716L191.82 42.5716L191.82 49.3119L175.586 49.3119L175.586 42.5716L180.08 42.5716L180.08 6.55711M228.701 27.4022C228.701 41.1986 223.708 49.9434 212.717 49.9434C201.725 49.9434 196.857 41.3234 196.857 27.527C196.857 13.7306 201.85 4.98584 212.842 4.98584C223.833 4.98584 228.701 13.6058 228.701 27.4022ZM221.021 27.527C221.021 18.0994 218.958 12.2328 212.717 12.2328C206.476 12.2328 204.537 17.9745 204.537 27.4095C204.537 36.8445 206.6 42.7038 212.842 42.7038C219.083 42.7038 221.021 36.962 221.021 27.527Z" fill="white"/>
<path d="M190.638 0.000222163L173.663 7.00684L176.235 13.2372L193.209 6.23062L190.638 0.000222163Z" fill="white"/>
</svg>
