<svg width="245" height="43" viewBox="0 0 245 43" fill="none" xmlns="http://www.w3.org/2000/svg">
<path d="M29.3473 39.0712L21.5446 39.0687L12.0313 22.5903L7.04505 26.7656L7.04999 39.0642L0.0130778 39.062L0.000184134 6.9421L7.03709 6.94431L7.0422 19.6584L18.7181 9.83509C21.6492 7.35903 23.5254 6.71744 28.2788 6.71893L28.2807 11.538C26.1697 11.5373 24.7004 11.9956 21.7693 14.4285L17.3693 18.0967L29.3473 39.0712ZM63.7799 39.082L56.9776 39.0798L54.1593 30.45L41.1975 33.6568L39.4957 39.069L32.6933 39.0668L41.4855 12.0386L35.3248 12.0367L35.3227 6.95319L61.1385 6.9613L61.1406 12.0556L54.8625 12.0536L63.7937 39.0874L63.7799 39.082ZM52.5085 25.4955L47.9842 11.6791L42.9476 27.9263L52.5085 25.4955ZM94.014 12.2008L77.0565 12.1955L77.0606 22.4272L87.2694 18.5773L87.2718 24.3624L77.0629 28.3526L77.0672 39.0916L70.0303 39.0893L70.0174 6.96409L94.0119 6.97162L94.014 12.2062L94.014 12.2008ZM124.776 10.3757C122.9 12.3016 122.135 13.861 122.136 16.6186L115.271 16.6164C115.271 15.1917 115.622 13.8157 116.505 12.4885C115.566 12.0727 114.214 11.8456 111.634 11.8448C106.825 11.8433 104.536 14.5948 103.952 20.0558L112.927 20.0586L112.929 25.0126L103.892 25.0098C104.308 30.8813 106.475 34.2332 111.581 34.2348C115.686 34.2361 117.858 32.5854 117.857 29.7846C117.856 28.4517 117.504 27.491 116.917 26.2982L123.899 26.8994C124.369 28.1408 124.548 28.8747 124.549 30.3857C124.551 35.5232 120.034 39.5637 111.472 39.5611C101.145 39.5578 96.6233 33.1778 96.6193 23.0324C96.6152 12.887 101.366 6.51523 111.749 6.51849C117.613 6.52033 121.663 8.03801 124.776 10.3757ZM157.861 39.1115L151.113 39.1094C149.234 31.3972 144.947 23.8732 138.728 18.0431L137.681 39.1052L130.934 39.1031L132.511 13.6807C131.572 13.1732 130.454 12.7141 129.461 12.3954L129.458 6.52405C139.49 8.45374 147.593 16.5348 151.059 24.1072L151.052 6.98953L157.855 6.99167L157.868 39.1169L157.861 39.1115ZM176.013 7.69351L176.024 34.1633L180.246 34.1646L180.248 39.1186L164.994 39.1138L164.992 34.1598L169.214 34.1611L169.204 7.69138M214.895 23.0263C214.899 33.1663 210.21 39.5921 199.882 39.5888C189.555 39.5856 184.978 33.2487 184.974 23.1087C184.97 12.9687 189.659 6.54295 199.986 6.54619C210.314 6.54944 214.89 12.8863 214.895 23.0263ZM207.678 23.1158C207.676 16.1867 205.735 11.8743 199.871 11.8725C194.007 11.8706 192.187 16.0901 192.19 23.0246C192.193 29.9591 194.133 34.2661 199.997 34.2679C205.861 34.2698 207.681 30.0503 207.678 23.1158Z" fill="#05589C"/>
<path d="M179.123 2.87485L163.176 8.01953L165.594 12.5995L181.541 7.4548L179.123 2.87485Z" fill="#05589C"/>
</svg>
