<svg width="323" height="63" viewBox="0 0 323 63" fill="none" xmlns="http://www.w3.org/2000/svg">
<path d="M38.7075 61.1385L28.4116 61.1385L15.8672 33.346L9.28543 40.392L9.28543 61.1385L1.52571e-05 61.1385L1.52588e-05 6.95543L9.28543 6.95543L9.28543 28.4029L24.6974 11.8257C28.5663 7.64728 31.0424 6.56398 37.3146 6.56398L37.3146 14.6933C34.529 14.6933 32.59 15.4671 28.7211 19.5727L22.9131 25.7629L38.7075 61.1385ZM84.1423 61.1385L75.1664 61.1385L71.4522 46.5823L54.347 51.9988L52.0985 61.1295L43.1226 61.1295L54.7384 15.5308L46.6092 15.5308L46.6092 6.95543L80.6739 6.95543L80.6739 15.549L72.3898 15.549L84.1605 61.1477L84.1423 61.1385ZM69.2765 38.2254L63.3138 14.9209L56.6593 42.331L69.2765 38.2254ZM124.051 15.7766L101.675 15.7766L101.675 33.0365L115.148 26.5367L115.148 36.2955L101.675 43.032L101.675 61.1477L92.3899 61.1477L92.3899 6.95543L124.051 6.95543L124.051 15.7857L124.051 15.7766ZM164.643 12.6814C162.167 15.9313 161.157 18.5622 161.157 23.214L152.099 23.214C152.099 20.8107 152.563 18.4894 153.728 16.2499C152.49 15.549 150.706 15.1666 147.301 15.1666C140.956 15.1666 137.934 19.8094 137.16 29.0219L149.004 29.0219L149.004 37.3788L137.078 37.3788C137.624 47.2833 140.483 52.9364 147.219 52.9364C152.636 52.9364 155.503 50.1508 155.503 45.4262C155.503 43.1777 155.039 41.5573 154.265 39.5454L163.478 40.5559C164.097 42.6497 164.334 43.8877 164.334 46.4366C164.334 55.103 158.371 61.9214 147.074 61.9214C133.446 61.9214 127.483 51.1613 127.483 34.047C127.483 16.9327 133.756 6.18164 147.456 6.18164C155.194 6.18164 160.538 8.73968 164.643 12.6814ZM208.285 61.1385L199.382 61.1385C196.905 48.1299 191.252 35.4398 183.05 25.6082L181.657 61.1385L172.754 61.1385L174.848 18.2527C173.61 17.397 172.135 16.6232 170.824 16.0861L170.824 6.18164C184.061 9.43154 194.748 23.0592 199.318 35.8312L199.318 6.95543L208.294 6.95543L208.294 61.1477L208.285 61.1385ZM232.254 8.12976L232.254 52.7817L237.825 52.7817L237.825 61.1385L217.697 61.1385L217.697 52.7817L223.269 52.7817L223.269 8.12976M283.551 33.9742C283.551 51.0794 277.361 61.9214 263.733 61.9214C250.105 61.9214 244.07 51.2341 244.07 34.1289C244.07 17.0237 250.26 6.18164 263.888 6.18164C277.516 6.18164 283.551 16.869 283.551 33.9742ZM274.029 34.1289C274.029 22.4402 271.471 15.1666 263.733 15.1666C255.995 15.1666 253.592 22.2855 253.592 33.9833C253.592 45.6811 256.15 52.9455 263.888 52.9455C271.626 52.9455 274.029 45.8267 274.029 34.1289Z" fill="white"/>
<path d="M236.359 -1.77016e-05L215.314 8.68701L218.502 16.4117L239.547 7.72463L236.359 -1.77016e-05Z" fill="white"/>
</svg>
