<svg width="240" height="289" viewBox="0 0 240 289" fill="none" xmlns="http://www.w3.org/2000/svg">
<path d="M0.482859 71.9551L13.3349 71.6173L7.41993 60.2146L9.17431 58.6947L11.5162 60.5041L24.4648 68.1434L22.976 70.6684L13.1498 64.8706L17.3105 73.9735L7.32336 74.7213L17.1495 80.5192L15.6607 83.0442L2.71206 75.4048L0 74.2227L0.490906 71.9551H0.482859Z" fill="white"/>
<path d="M31.6621 52.6795C31.6621 52.6795 35.2513 55.6388 30.809 61.0104C26.3667 66.3821 23.3408 63.8812 22.7775 63.4148L15.2288 57.1747C14.6655 56.7002 11.8246 53.9822 16.0818 48.8437C20.5241 43.4721 23.5501 45.9729 24.1134 46.4394L31.6621 52.6795ZM22.7775 49.1493C22.2946 48.7553 20.4678 47.5732 18.0535 50.4842C15.6473 53.3952 17.1522 54.9713 17.635 55.3653L24.2261 60.8094C24.8216 61.2999 26.4714 62.2408 28.8374 59.378C31.1953 56.5233 29.9721 55.0759 29.3765 54.5853L22.7855 49.1493H22.7775Z" fill="white"/>
<path d="M24.7065 39.6843L31.209 33.7497C31.209 33.7497 34.7339 30.5331 38.1944 34.3287L44.0289 40.7216C47.0468 44.0267 44.5601 46.6884 43.7151 47.4523C42.0895 48.94 39.6027 49.4707 37.7759 49.6476L38.7175 51.7706L37.0919 53.2582L24.7065 39.6923V39.6843ZM36.0457 47.7499C39.2808 47.4845 40.7133 46.7206 41.502 46.0049C43.4012 44.276 41.671 42.3782 41.671 42.3782L36.1101 36.2908C36.1101 36.2908 34.404 34.4252 32.5369 36.1219L28.6579 39.6521L36.0537 47.7499H36.0457Z" fill="white"/>
<path d="M39.1023 27.1963L49.0411 20.2968L50.546 22.4679L43.0134 27.6949L45.5243 31.3055L50.7714 27.6627L52.236 29.7696L46.989 33.4123L50.546 38.5347L58.0786 33.3078L59.5191 35.3825L49.5723 42.282L39.0862 27.1963H39.1023Z" fill="white"/>
<path d="M53.165 17.8442L60.9632 13.8395C60.9632 13.8395 65.2043 11.6683 67.5462 16.2278L68.198 17.4984C70.1697 21.3502 67.5381 23.433 66.6448 24.02L73.5175 27.2928L71.9804 29.4399L63.5948 25.6283L61.1161 26.8988L64.1501 32.8012L61.5426 34.1361L53.1731 17.8281L53.165 17.8442ZM59.909 24.5588L64.5444 22.1785C66.7977 21.0205 65.6389 18.777 65.6389 18.777L65.0192 17.5707C65.0192 17.5707 63.8604 15.3191 61.6151 16.4771L56.9796 18.8574L59.909 24.5668V24.5588Z" fill="white"/>
<path d="M71.9098 8.59606L84.8102 19.0097L80.3679 6.11126L83.1443 5.15433L89.1076 22.4515L86.3312 23.4084L75.3301 15.1337L79.0481 25.9093L76.2716 26.8662L71.3706 12.657L70.0669 10.0033L71.9098 8.58802V8.59606Z" fill="white"/>
<path d="M111.628 14.5793L113.632 17.7557L111.837 18.986L109.463 16.6701C108.207 17.7959 105.656 19.7902 102.888 20.1601C101.979 20.2807 98.341 20.4978 97.7616 16.0268L96.5223 6.61026C95.9348 2.13922 99.508 1.40745 100.635 1.2627C105.584 0.611344 108.835 2.00251 108.835 2.00251L108.03 4.32649C105.278 3.35347 102.671 3.55451 101.834 3.65905C99.9103 3.90833 99.2987 5.17084 99.4355 6.26447L100.651 15.5362C100.739 16.1876 101.174 17.7959 103.5 17.4903C104.377 17.3777 106.204 16.9515 108.658 14.523L108.36 12.2312L104.393 12.7539L104.063 10.2128L110.936 9.31218L111.628 14.5874V14.5793Z" fill="white"/>
<path d="M115.168 0L123.94 0.136704C123.94 0.136704 128.712 0.217119 128.623 5.34755L128.599 6.77893C128.527 11.1052 125.219 11.7083 124.149 11.8048L128.672 17.9244L126.306 19.0984L120.696 11.7887L117.912 11.7485L117.799 18.3827L114.862 18.3345L115.16 0.00804143L115.168 0ZM117.944 9.1029L123.151 9.19136C125.686 9.23157 125.726 6.70656 125.726 6.70656L125.75 5.34755C125.75 5.34755 125.791 2.8145 123.264 2.7743L118.057 2.68584L117.952 9.1029H117.944Z" fill="white"/>
<path d="M133.995 0.667831L145.986 2.35653L145.616 4.97L136.53 3.69141L135.919 8.04987L142.244 8.94247L141.882 11.4836L135.557 10.591L134.688 16.7587L143.773 18.0373L143.419 20.5382L131.428 18.8495L133.987 0.65979L133.995 0.667831Z" fill="white"/>
<path d="M150.529 3.36966L162.214 6.53799L161.522 9.08712L152.67 6.69077L151.519 10.9367L157.684 12.6012L157.008 15.078L150.843 13.4134L149.209 19.4284L158.062 21.8248L157.402 24.2613L145.717 21.093L150.521 3.36966H150.529Z" fill="white"/>
<path d="M166.653 8.10583L169.397 9.23968L162.38 26.2151L159.635 25.0813L166.653 8.10583ZM178.145 13.4453L176.133 11.5878L166.178 17.0399L169.775 29.8338L172.511 29.9303L169.389 18.3747L178.129 13.4534L178.145 13.4453Z" fill="white"/>
<path d="M189.71 19.0499L197.033 23.9231C197.033 23.9231 201.001 26.5606 198.152 30.8306L193.356 38.0277C190.877 41.7509 187.69 39.9818 186.74 39.3546C184.914 38.1323 183.787 35.8485 183.175 34.1196L181.349 35.5429L179.514 34.3206L189.71 19.0419V19.0499ZM184.616 31.9886C185.654 35.0604 186.74 36.2667 187.634 36.8617C189.774 38.2851 191.191 36.146 191.191 36.146L195.762 29.2867C195.762 29.2867 197.162 27.1798 195.062 25.7806L190.692 22.8696L184.608 31.9886H184.616Z" fill="white"/>
<path d="M207.364 31.8279L195.686 45.9647L193.425 44.0991L205.102 29.9622L207.364 31.8279Z" fill="white"/>
<path d="M213.85 37.0395L209.963 53.1464L219.725 43.6093L221.777 45.7081L208.692 58.502L206.639 56.4032L209.408 42.9258L201.256 50.8948L199.203 48.796L209.955 38.2859L211.798 35.9699L213.866 37.0234L213.85 37.0395Z" fill="white"/>
<path d="M225.298 49.9532L232.541 59.6431L230.425 61.2272L224.936 53.8854L221.411 56.515L225.234 61.6213L223.174 63.1572L219.351 58.0509L214.354 61.7821L219.842 69.1239L217.814 70.6357L210.571 60.9458L225.29 49.9532V49.9371L225.298 49.9532Z" fill="white"/>
<path d="M235.123 63.6396L239.397 71.287C239.397 71.287 241.723 75.4444 237.24 77.9453L235.993 78.6449C232.218 80.7518 230.029 78.1946 229.418 77.3181L226.384 84.2981L224.179 82.8345L227.704 74.3186L226.343 71.8901L220.549 75.1228L219.117 72.5656L235.132 63.6316L235.123 63.6396ZM228.645 70.6115L231.18 75.1549C232.411 77.3663 234.625 76.136 234.625 76.136L235.808 75.4766C235.808 75.4766 238.013 74.2463 236.789 72.0349L234.254 67.4915L228.645 70.6196V70.6115Z" fill="white"/>
<path d="M52.2942 288.471H45.3813L36.9554 269.823L32.5372 274.551V288.479H26.3003V252.116H32.5372V266.51L42.8865 255.388C45.4859 252.582 47.1517 251.858 51.3607 251.858V257.318C49.4936 257.318 48.1899 257.841 45.5905 260.591L41.6874 264.749L52.2942 288.487V288.471ZM82.8108 288.471H76.7832L74.2884 278.701L62.7964 282.335L61.2834 288.463H55.2557L63.0539 257.865H57.5976V252.108H80.477V257.873H74.9161L82.8189 288.479H82.8108V288.471ZM72.8237 273.088L68.816 257.447L64.3495 275.846L72.8237 273.088ZM109.609 258.026H94.5845V269.614L103.63 265.247V271.793L94.5845 276.312V288.471H88.3476V252.1H109.609V258.026ZM136.875 255.951C135.209 258.131 134.533 259.9 134.533 263.02H128.449C128.449 261.403 128.763 259.851 129.544 258.348C128.715 257.881 127.516 257.624 125.23 257.624C120.965 257.624 118.937 260.736 118.422 266.92H126.373V272.533H118.365C118.736 279.183 120.651 282.971 125.174 282.971C128.811 282.971 130.735 281.105 130.735 277.929C130.735 276.417 130.421 275.331 129.906 273.98L136.094 274.656C136.513 276.063 136.666 276.891 136.666 278.604C136.666 284.418 132.658 288.994 125.077 288.994C115.927 288.994 111.919 281.772 111.919 270.289C111.919 258.806 116.128 251.585 125.335 251.585C130.533 251.585 134.123 253.306 136.875 255.951ZM166.184 288.471H160.205C158.539 279.738 154.741 271.222 149.236 264.628L148.303 288.471H142.323L143.732 259.691C142.903 259.12 141.913 258.597 141.027 258.235V251.585C149.92 253.764 157.099 262.915 160.165 271.479V252.1H166.192V288.471H166.184ZM216.74 270.241C216.74 281.724 212.579 288.994 203.429 288.994C194.279 288.994 190.223 281.821 190.223 270.338C190.223 258.854 194.383 251.585 203.534 251.585C212.684 251.585 216.74 258.758 216.74 270.241ZM210.342 270.338C210.342 262.489 208.628 257.616 203.429 257.616C198.23 257.616 196.621 262.393 196.621 270.241C196.621 278.089 198.335 282.971 203.534 282.971C208.732 282.971 210.342 278.194 210.342 270.346V270.338Z" fill="white"/>
<path d="M182.286 282.858H186.028V288.462H172.508V282.858H176.25V257.125L173.047 258.444L170.906 253.265L185.046 247.435L187.187 252.614L182.286 254.632V282.858Z" fill="white"/>
<path d="M88.2651 108.472C88.0961 108.166 87.9432 107.852 87.8064 107.531L80.5876 109.589C80.9981 110.771 81.5051 111.897 82.1006 112.975L88.2651 108.463V108.472Z" fill="white"/>
<path d="M142.473 71.6009C135.77 68.5049 127.955 66.7117 119.57 66.7117C111.184 66.7117 103.362 68.5049 96.658 71.6009C107.16 72.7187 119.57 81.3471 119.57 81.3471C119.57 81.3471 131.971 72.7106 142.473 71.6009Z" fill="white"/>
<path d="M158.557 109.589L151.33 107.531C151.185 107.852 151.032 108.158 150.871 108.472L157.044 112.983C157.639 111.905 158.146 110.771 158.565 109.597L158.557 109.589Z" fill="white"/>
<path d="M138.289 90.338C131.988 90.338 126.877 95.4443 126.877 101.741C126.877 108.037 131.988 113.143 138.289 113.143C144.59 113.143 149.701 108.037 149.701 101.741C149.701 95.4443 144.59 90.338 138.289 90.338ZM138.289 110.683C133.348 110.683 129.34 106.678 129.34 101.741C129.34 96.8033 133.348 92.7987 138.289 92.7987C143.23 92.7987 147.238 96.8033 147.238 101.741C147.238 106.678 143.23 110.683 138.289 110.683Z" fill="white"/>
<path d="M149.691 93.1691C149.9 93.4506 150.101 93.724 150.286 94.0215L157.054 90.9095C156.459 89.8158 155.783 88.7946 155.026 87.8376L149.691 93.1691Z" fill="white"/>
<path d="M154.797 116.288L148.512 111.688C148.27 111.938 148.013 112.179 147.755 112.412L152.117 118.998C153.083 118.178 153.984 117.269 154.797 116.288Z" fill="white"/>
<path d="M152.22 98.6691L159.527 98.1062C159.326 96.892 159.028 95.7099 158.65 94.576L151.954 97.6478C152.051 97.9775 152.139 98.3153 152.22 98.6611V98.6691Z" fill="white"/>
<path d="M87.0129 118.998L91.3747 112.412C91.1172 112.187 90.8677 111.945 90.6182 111.696L84.333 116.288C85.1458 117.277 86.0391 118.177 87.0129 118.998Z" fill="white"/>
<path d="M144.431 114.631C142.572 115.515 140.495 116.014 138.298 116.014C130.42 116.014 124.03 109.629 124.03 101.756C124.03 93.8838 130.42 87.4989 138.298 87.4989C141.509 87.4989 144.487 88.5604 146.869 90.3536L152.277 84.9498C148.495 81.6447 143.61 79.755 138.355 80.0043C133.808 80.2134 129.687 82.0066 126.42 84.8372C123.209 87.6276 120.819 91.4312 119.684 95.7896C119.652 95.9022 119.62 96.0228 119.588 96.1354C119.556 96.0228 119.523 95.9022 119.491 95.7896C118.348 91.4392 115.966 87.6356 112.755 84.8372C109.488 82.0066 105.368 80.2134 100.813 80.0043C95.5655 79.755 90.6725 81.6447 86.8901 84.9498L92.2982 90.3536C94.6803 88.5604 97.6498 87.4989 100.869 87.4989C108.748 87.4989 115.137 93.8838 115.137 101.756C115.137 109.629 108.748 116.014 100.869 116.014C98.6719 116.014 96.5875 115.515 94.7285 114.631L90.3345 121.273C92.8695 122.664 95.7184 123.508 98.7604 123.653C108.393 124.112 116.795 117.381 119.411 107.916C119.467 107.691 119.523 107.474 119.58 107.249C119.628 107.474 119.684 107.691 119.749 107.916C122.364 117.381 130.774 124.104 140.399 123.653C143.433 123.508 146.29 122.672 148.825 121.281L144.423 114.639L144.431 114.631Z" fill="white"/>
<path d="M83.975 69.1167C84.8602 68.4734 85.7776 67.8622 86.7112 67.2672C95.8533 61.5175 107.265 58.1482 119.562 58.1482C131.858 58.1482 143.27 61.5175 152.412 67.2672C153.346 67.8542 154.263 68.4734 155.148 69.1167C159.88 66.7123 163.759 62.2895 165.522 55.0844C152.058 47.1153 136.711 42.781 120.68 42.588H119.554H119.562C103.136 42.58 87.3711 46.9223 73.5935 55.0844C75.3559 62.2895 79.2349 66.7123 83.9669 69.1167H83.975Z" fill="white"/>
<path d="M126.84 124.433C126.671 128.929 119.573 135.603 119.564 135.611C119.548 135.595 112.458 128.929 112.281 124.441C108.089 129.355 102.544 132.644 96.4275 133.456C103.179 136.616 111.074 138.458 119.564 138.458C128.055 138.458 135.949 136.616 142.701 133.456C136.585 132.644 131.04 129.355 126.84 124.441V124.433Z" fill="white"/>
<path d="M100.845 113.143C107.146 113.143 112.257 108.037 112.257 101.741C112.257 95.4443 107.146 90.338 100.845 90.338C94.5438 90.338 89.4336 95.4443 89.4336 101.741C89.4336 108.037 94.5438 113.143 100.845 113.143ZM100.845 92.7987C105.786 92.7987 109.794 96.8033 109.794 101.741C109.794 106.678 105.786 110.683 100.845 110.683C95.9039 110.683 91.8962 106.678 91.8962 101.741C91.8962 96.8033 95.9039 92.7987 100.845 92.7987Z" fill="white"/>
<path d="M79.2952 102.087C79.2952 103.325 79.4078 104.531 79.601 105.713L86.7151 103.687C86.6668 103.341 86.6346 103.003 86.6105 102.649L79.2952 102.087Z" fill="white"/>
<path d="M88.843 94.0292C89.0281 93.7397 89.2293 93.4502 89.4386 93.1768L84.111 87.8534C83.3545 88.8023 82.6785 89.8316 82.083 90.9252L88.843 94.0372V94.0292Z" fill="white"/>
<path d="M79.6094 98.1059L86.9086 98.6688C86.981 98.323 87.0776 97.9853 87.1742 97.6556L80.4866 94.5838C80.1083 95.7176 79.8106 96.8917 79.6094 98.114V98.1059Z" fill="white"/>
<path d="M139.304 188.082H131.538V185.573H136.833L137.098 185.887H137.284V183.265H137.123L136.833 183.571H131.521V181.263H139.223L139.489 181.552H139.666V178.915H139.464L139.271 179.172V179.156H128.89V179.429L129.389 179.767V189.481L129.155 189.859V190.052H139.304L139.682 190.334H139.859V187.696H139.682L139.304 188.082Z" fill="white"/>
<path d="M114.24 201.237C112.494 200.602 110.82 199.645 109.13 198.398C112.639 207.228 126.497 207.196 129.99 198.35C125.451 201.921 119.664 203.255 114.24 201.237Z" fill="white"/>
<path d="M159.844 102.087L152.52 102.649C152.496 102.995 152.464 103.349 152.416 103.687L159.538 105.713C159.731 104.531 159.835 103.317 159.844 102.087Z" fill="white"/>
<path d="M208.824 118.322C208.261 118.844 207.658 119.359 207.006 119.85C206.177 120.485 205.275 121.096 204.286 121.667C203.505 139.27 183.362 149.611 183.297 149.651C188.166 135.249 193.864 128.028 198.097 124.433C196.109 125.085 193.912 125.623 191.482 126.009C191.409 128.663 189.043 131.397 185.527 132.587C181.326 134.019 177.077 132.7 176.038 129.636C175 126.58 177.567 122.946 181.76 121.522C185.349 120.3 188.987 121.096 190.605 123.251C197.019 122.302 201.582 120.276 204.825 117.912C202.459 118.217 199.698 117.863 196.487 116.625C194.757 118.056 191.747 118.265 188.923 116.971C185.333 115.33 183.394 111.881 184.585 109.275C185.784 106.662 189.655 105.874 193.252 107.514C196.351 108.929 198.226 111.688 197.904 114.1C202.048 115.62 204.929 115.322 206.957 114.341C207.312 114.172 207.641 113.979 207.963 113.762C204.342 96.9395 195.972 81.4919 183.499 69.0358C179.338 64.8783 174.847 61.1793 170.091 57.9627C171.218 64.7175 171.363 73.5148 167.677 82.2961C171.435 88.3191 173.6 95.1946 173.6 102.561C173.6 112.87 169.351 122.262 162.398 129.676C160.257 131.96 157.851 134.067 155.243 135.957C145.675 142.864 133.161 146.989 119.568 146.989C105.976 146.989 93.4615 142.872 83.8929 135.965C81.2693 134.075 78.8631 131.968 76.7144 129.668C69.7693 122.254 65.5201 112.87 65.5201 102.569C65.5201 95.2026 67.6849 88.3272 71.4432 82.3041C67.7573 73.5229 67.8941 64.7256 69.0289 57.9707C64.2647 61.1954 59.7741 64.8944 55.6134 69.0438C43.1476 81.5 34.7701 96.9476 31.1486 113.77C31.4625 113.987 31.8005 114.18 32.1546 114.349C34.1826 115.33 37.0636 115.62 41.2082 114.108C40.8943 111.704 42.7614 108.937 45.8678 107.522C49.457 105.882 53.336 106.67 54.527 109.283C55.7261 111.897 53.7786 115.338 50.1893 116.979C47.3566 118.273 44.3467 118.056 42.6165 116.625C39.4055 117.863 36.6371 118.217 34.2872 117.912C37.5304 120.268 42.0854 122.286 48.4913 123.243C50.1089 121.064 53.7464 120.268 57.3598 121.49C61.5607 122.921 64.1279 126.556 63.0817 129.604C62.0435 132.66 57.7944 133.978 53.5935 132.555C50.0928 131.365 47.7268 128.639 47.6382 126.001C45.2078 125.615 43.0108 125.085 41.0231 124.433C45.2561 128.036 50.9539 135.249 55.8227 149.651C55.7664 149.619 35.6151 139.278 34.8344 121.667C33.8526 121.088 32.9513 120.485 32.1143 119.85C31.4625 119.351 30.8589 118.836 30.2956 118.322C29.5149 123.114 29.1206 128.004 29.1206 132.949C29.1206 157.081 38.5283 179.774 55.6134 196.846C63.7013 204.928 73.0527 211.289 83.2169 215.744C81.5993 214.095 80.0461 212.326 78.5653 210.444C68.2321 197.297 62.5505 179.935 62.5505 161.561C62.5505 152.184 64.0232 143.081 66.9123 134.501C67.1377 133.826 67.355 133.214 67.5722 132.627L68.5138 130.086L68.4253 130.424L72.3364 134.622C73.1895 135.538 74.0828 136.423 75.0163 137.291C72.5055 144.73 71.1213 152.94 71.1213 161.552C71.1213 176.695 75.4106 190.566 82.5248 201.293C78.2595 191.185 75.7889 179.22 75.7889 166.377C75.7889 157.21 77.0443 148.485 79.3218 140.564C79.4908 139.969 79.6679 139.382 79.8529 138.795C81.8005 140.645 83.9975 142.341 86.4037 143.877C95.2079 149.498 106.829 152.924 119.568 152.924C132.307 152.924 143.936 149.506 152.732 143.877C155.131 142.333 157.336 140.637 159.275 138.795C159.46 139.374 159.637 139.961 159.806 140.556C162.076 148.469 163.339 157.202 163.339 166.361C163.339 179.187 160.877 191.145 156.619 201.237C163.717 190.51 167.991 176.662 167.991 161.544C167.991 152.94 166.607 144.746 164.104 137.308C165.037 136.447 165.931 135.555 166.784 134.638L170.703 130.448L170.614 130.143L171.532 132.619C171.757 133.239 171.982 133.866 172.2 134.509C175.081 143.073 176.553 152.168 176.553 161.544C176.553 179.927 170.864 197.289 160.539 210.428C159.066 212.31 157.505 214.071 155.887 215.728C166.059 211.273 175.411 204.904 183.499 196.822C200.584 179.75 209.991 157.057 209.991 132.925C209.991 127.971 209.597 123.09 208.816 118.298L208.824 118.322Z" fill="white"/>
<path d="M119.343 179.116C117.677 179.116 116.229 179.598 114.997 180.579C113.702 181.617 113.05 182.839 113.05 184.439C113.05 186.039 113.637 187.406 114.82 188.54C116.003 189.674 117.404 190.237 119.029 190.237C120.776 190.237 122.289 189.706 123.568 188.637C124.904 187.519 125.572 186.136 125.572 184.503C125.572 182.871 124.928 181.657 123.657 180.603C122.441 179.606 121.009 179.108 119.351 179.108L119.343 179.116ZM121.926 187.125C121.162 187.808 120.244 188.154 119.174 188.154C118.16 188.154 117.291 187.808 116.583 187.117C115.866 186.433 115.504 185.605 115.504 184.616C115.504 183.627 115.891 182.791 116.679 182.099C117.444 181.44 118.385 181.11 119.375 181.11C120.365 181.11 121.234 181.432 121.967 182.067C122.723 182.726 123.109 183.538 123.109 184.479C123.109 185.541 122.723 186.417 121.934 187.117L121.926 187.125Z" fill="white"/>
<path d="M139.911 167.504C138.165 166.869 136.491 165.912 134.801 164.665C138.31 173.495 152.168 173.463 155.661 164.617C151.122 168.187 145.335 169.522 139.911 167.504Z" fill="white"/>
<path d="M104.311 164.625C99.772 168.195 93.9938 169.522 88.5697 167.504C86.8234 166.868 85.1495 165.911 83.4595 164.665C86.9682 173.494 100.826 173.462 104.311 164.625Z" fill="white"/>
<path d="M107.804 190.116H111.087V189.931L110.709 189.626L104.979 179.719L105.188 179.493V179.22H102.13V179.493L102.323 179.727L96.9555 189.553L96.4485 189.939V190.124H99.6032V189.939L99.2571 189.722L100.327 187.736H107.096L108.11 189.626L107.796 189.931V190.116H107.804ZM101.366 185.838L103.627 181.801L105.913 185.838H101.366Z" fill="white"/>
<path d="M119.325 183.522C119.004 183.522 118.682 183.626 118.432 183.844C118.175 184.069 118.046 184.342 118.046 184.68C118.046 185.018 118.167 185.283 118.4 185.516C118.641 185.741 118.923 185.862 119.261 185.862C119.615 185.862 119.921 185.749 120.179 185.516C120.444 185.283 120.565 184.994 120.565 184.64C120.565 184.326 120.436 184.061 120.187 183.836C119.945 183.626 119.655 183.514 119.334 183.514L119.325 183.522Z" fill="white"/>
<path d="M129.99 164.617C125.451 168.187 119.664 169.522 114.24 167.504C112.494 166.869 110.82 165.912 109.13 164.665C112.639 173.495 126.497 173.463 129.99 164.617Z" fill="white"/>
</svg>
