<svg width="1512" height="22" viewBox="0 0 1512 22" fill="none" xmlns="http://www.w3.org/2000/svg">
<rect width="2738.29" height="22" transform="matrix(1 0 0 -1 -613.143 22)" fill="white"/>
<g clip-path="url(#clip0_6027_63357)">
<path d="M-4.63495 0.267559C-4.63495 12.27 5.095 22 17.0975 22C29.1 22 38.8299 12.2701 38.8299 0.26757V-42.2162H-4.63495V0.267559Z" fill="#E4D6C3"/>
<path d="M17.0977 20.5728C28.5418 20.5726 37.8194 11.2952 37.8194 -0.148926V-40.7896H-3.62396V-0.148926C-3.62396 11.2953 5.65348 20.5728 17.0977 20.5728Z" stroke="#F6F2EC" stroke-width="0.237838"/>
</g>
<g clip-path="url(#clip1_6027_63357)">
<path d="M38.8298 0.267559C38.8298 12.27 48.5597 22 60.5622 22C72.5647 22 82.2946 12.2701 82.2946 0.26757V-42.2162H38.8298V0.267559Z" fill="#E4D6C3"/>
<path d="M82.2948 0.267559C82.2948 12.27 92.0247 22 104.027 22C116.03 22 125.76 12.2701 125.76 0.26757V-42.2162H82.2948V0.267559Z" fill="#E4D6C3"/>
<path d="M125.76 0.267559C125.76 12.27 135.49 22 147.492 22C159.495 22 169.225 12.2701 169.225 0.26757V-42.2162H125.76V0.267559Z" fill="#E4D6C3"/>
<path d="M60.5626 20.5728C72.0067 20.5726 81.2843 11.2952 81.2843 -0.148926V-40.7896H39.8409V-0.148926C39.8409 11.2953 49.1184 20.5728 60.5626 20.5728Z" stroke="#F6F2EC" stroke-width="0.237838"/>
<path d="M104.027 20.5728C115.472 20.5726 124.749 11.2952 124.749 -0.148926V-40.7896H83.3058V-0.148926C83.3058 11.2953 92.5832 20.5728 104.027 20.5728Z" stroke="#F6F2EC" stroke-width="0.237838"/>
<path d="M147.492 20.5728C158.936 20.5726 168.214 11.2952 168.214 -0.148926V-40.7896H126.771V-0.148926C126.771 11.2953 136.048 20.5728 147.492 20.5728Z" stroke="#F6F2EC" stroke-width="0.237838"/>
</g>
<g clip-path="url(#clip2_6027_63357)">
<path d="M169.224 0.267559C169.224 12.27 178.954 22 190.957 22C202.959 22 212.689 12.2701 212.689 0.26757V-42.2162H169.224V0.267559Z" fill="#E4D6C3"/>
<path d="M212.689 0.267559C212.689 12.27 222.419 22 234.422 22C246.424 22 256.154 12.2701 256.154 0.26757V-42.2162H212.689V0.267559Z" fill="#E4D6C3"/>
<path d="M256.154 0.267559C256.154 12.27 265.884 22 277.887 22C289.889 22 299.619 12.2701 299.619 0.26757V-42.2162H256.154V0.267559Z" fill="#E4D6C3"/>
<path d="M190.957 20.5728C202.401 20.5726 211.679 11.2952 211.679 -0.148926V-40.7896H170.236V-0.148926C170.236 11.2953 179.513 20.5728 190.957 20.5728Z" stroke="#F6F2EC" stroke-width="0.237838"/>
<path d="M234.422 20.5728C245.866 20.5726 255.144 11.2952 255.144 -0.148926V-40.7896H213.7V-0.148926C213.7 11.2953 222.978 20.5728 234.422 20.5728Z" stroke="#F6F2EC" stroke-width="0.237838"/>
<path d="M277.887 20.5728C289.331 20.5726 298.609 11.2952 298.609 -0.148926V-40.7896H257.165V-0.148926C257.165 11.2953 266.443 20.5728 277.887 20.5728Z" stroke="#F6F2EC" stroke-width="0.237838"/>
</g>
<g clip-path="url(#clip3_6027_63357)">
<path d="M299.619 0.267559C299.619 12.27 309.349 22 321.351 22C333.354 22 343.084 12.2701 343.084 0.26757V-42.2162H299.619V0.267559Z" fill="#E4D6C3"/>
<path d="M343.084 0.267559C343.084 12.27 352.814 22 364.816 22C376.819 22 386.549 12.2701 386.549 0.26757V-42.2162H343.084V0.267559Z" fill="#E4D6C3"/>
<path d="M386.549 0.267559C386.549 12.27 396.279 22 408.281 22C420.284 22 430.014 12.2701 430.014 0.26757V-42.2162H386.549V0.267559Z" fill="#E4D6C3"/>
<path d="M321.352 20.5728C332.796 20.5726 342.073 11.2952 342.073 -0.148926V-40.7896H300.63V-0.148926C300.63 11.2953 309.908 20.5728 321.352 20.5728Z" stroke="#F6F2EC" stroke-width="0.237838"/>
<path d="M364.817 20.5728C376.261 20.5726 385.538 11.2952 385.538 -0.148926V-40.7896H344.095V-0.148926C344.095 11.2953 353.372 20.5728 364.817 20.5728Z" stroke="#F6F2EC" stroke-width="0.237838"/>
<path d="M408.281 20.5728C419.726 20.5726 429.003 11.2952 429.003 -0.148926V-40.7896H387.56V-0.148926C387.56 11.2953 396.837 20.5728 408.281 20.5728Z" stroke="#F6F2EC" stroke-width="0.237838"/>
</g>
<g clip-path="url(#clip4_6027_63357)">
<path d="M430.014 0.267559C430.014 12.27 439.743 22 451.746 22C463.748 22 473.478 12.2701 473.478 0.26757V-42.2162H430.014V0.267559Z" fill="#E4D6C3"/>
<path d="M473.479 0.267559C473.479 12.27 483.209 22 495.211 22C507.213 22 516.943 12.2701 516.943 0.26757V-42.2162H473.479V0.267559Z" fill="#E4D6C3"/>
<path d="M516.943 0.267559C516.943 12.27 526.673 22 538.676 22C550.678 22 560.408 12.2701 560.408 0.26757V-42.2162H516.943V0.267559Z" fill="#E4D6C3"/>
<path d="M451.746 20.5728C463.191 20.5726 472.468 11.2952 472.468 -0.148926V-40.7896H431.025V-0.148926C431.025 11.2953 440.302 20.5728 451.746 20.5728Z" stroke="#F6F2EC" stroke-width="0.237838"/>
<path d="M495.211 20.5728C506.655 20.5726 515.933 11.2952 515.933 -0.148926V-40.7896H474.49V-0.148926C474.49 11.2953 483.767 20.5728 495.211 20.5728Z" stroke="#F6F2EC" stroke-width="0.237838"/>
<path d="M538.676 20.5728C550.12 20.5726 559.398 11.2952 559.398 -0.148926V-40.7896H517.954V-0.148926C517.954 11.2953 527.232 20.5728 538.676 20.5728Z" stroke="#F6F2EC" stroke-width="0.237838"/>
</g>
<g clip-path="url(#clip5_6027_63357)">
<path d="M560.408 0.267559C560.408 12.27 570.138 22 582.141 22C594.143 22 603.873 12.2701 603.873 0.26757V-42.2162H560.408V0.267559Z" fill="#E4D6C3"/>
<path d="M603.873 0.267559C603.873 12.27 613.603 22 625.606 22C637.608 22 647.338 12.2701 647.338 0.26757V-42.2162H603.873V0.267559Z" fill="#E4D6C3"/>
<path d="M647.338 0.267559C647.338 12.27 657.068 22 669.07 22C681.073 22 690.803 12.2701 690.803 0.26757V-42.2162H647.338V0.267559Z" fill="#E4D6C3"/>
<path d="M582.141 20.5728C593.585 20.5726 602.863 11.2952 602.863 -0.148926V-40.7896H561.419V-0.148926C561.419 11.2953 570.697 20.5728 582.141 20.5728Z" stroke="#F6F2EC" stroke-width="0.237838"/>
<path d="M625.606 20.5728C637.05 20.5726 646.327 11.2952 646.327 -0.148926V-40.7896H604.884V-0.148926C604.884 11.2953 614.162 20.5728 625.606 20.5728Z" stroke="#F6F2EC" stroke-width="0.237838"/>
<path d="M669.071 20.5728C680.515 20.5726 689.792 11.2952 689.792 -0.148926V-40.7896H648.349V-0.148926C648.349 11.2953 657.626 20.5728 669.071 20.5728Z" stroke="#F6F2EC" stroke-width="0.237838"/>
<g clip-path="url(#clip6_6027_63357)">
<path d="M560.224 0.267559C560.224 12.27 569.954 22 581.957 22C593.959 22 603.689 12.2701 603.689 0.26757V-42.2162H560.224V0.267559Z" fill="#E4D6C3"/>
<path d="M603.689 0.267559C603.689 12.27 613.419 22 625.422 22C637.424 22 647.154 12.2701 647.154 0.26757V-42.2162H603.689V0.267559Z" fill="#E4D6C3"/>
<path d="M647.154 0.267559C647.154 12.27 656.884 22 668.887 22C680.889 22 690.619 12.2701 690.619 0.26757V-42.2162H647.154V0.267559Z" fill="#E4D6C3"/>
<path d="M581.957 20.5728C593.401 20.5726 602.679 11.2952 602.679 -0.148926V-40.7896H561.236V-0.148926C561.236 11.2953 570.513 20.5728 581.957 20.5728Z" stroke="#F6F2EC" stroke-width="0.237838"/>
<path d="M625.422 20.5728C636.866 20.5726 646.144 11.2952 646.144 -0.148926V-40.7896H604.7V-0.148926C604.7 11.2953 613.978 20.5728 625.422 20.5728Z" stroke="#F6F2EC" stroke-width="0.237838"/>
<path d="M668.887 20.5728C680.331 20.5726 689.609 11.2952 689.609 -0.148926V-40.7896H648.165V-0.148926C648.165 11.2953 657.443 20.5728 668.887 20.5728Z" stroke="#F6F2EC" stroke-width="0.237838"/>
<g clip-path="url(#clip7_6027_63357)">
<path d="M560.224 0.267559C560.224 12.27 569.954 22 581.957 22C593.959 22 603.689 12.2701 603.689 0.26757V-42.2162H560.224V0.267559Z" fill="#E4D6C3"/>
<path d="M603.689 0.267559C603.689 12.27 613.419 22 625.422 22C637.424 22 647.154 12.2701 647.154 0.26757V-42.2162H603.689V0.267559Z" fill="#E4D6C3"/>
<path d="M647.154 0.267559C647.154 12.27 656.884 22 668.887 22C680.889 22 690.619 12.2701 690.619 0.26757V-42.2162H647.154V0.267559Z" fill="#E4D6C3"/>
<path d="M581.957 20.5728C593.401 20.5726 602.679 11.2952 602.679 -0.148926V-40.7896H561.236V-0.148926C561.236 11.2953 570.513 20.5728 581.957 20.5728Z" stroke="#F6F2EC" stroke-width="0.237838"/>
<path d="M625.422 20.5728C636.866 20.5726 646.144 11.2952 646.144 -0.148926V-40.7896H604.7V-0.148926C604.7 11.2953 613.978 20.5728 625.422 20.5728Z" stroke="#F6F2EC" stroke-width="0.237838"/>
<path d="M668.887 20.5728C680.331 20.5726 689.609 11.2952 689.609 -0.148926V-40.7896H648.165V-0.148926C648.165 11.2953 657.443 20.5728 668.887 20.5728Z" stroke="#F6F2EC" stroke-width="0.237838"/>
</g>
</g>
<g clip-path="url(#clip8_6027_63357)">
<path d="M690.619 0.267559C690.619 12.27 700.349 22 712.351 22C724.354 22 734.084 12.2701 734.084 0.26757V-42.2162H690.619V0.267559Z" fill="#E4D6C3"/>
<g clip-path="url(#clip9_6027_63357)">
<path d="M690.224 0.267559C690.224 12.27 699.954 22 711.957 22C723.959 22 733.689 12.2701 733.689 0.26757V-42.2162H690.224V0.267559Z" fill="#E4D6C3"/>
</g>
</g>
</g>
<g clip-path="url(#clip10_6027_63357)">
<path d="M690.803 0.267559C690.803 12.27 700.533 22 712.535 22C724.538 22 734.267 12.2701 734.267 0.26757V-42.2162H690.803V0.267559Z" fill="#E4D6C3"/>
<path d="M734.268 0.267559C734.268 12.27 743.998 22 756 22C768.003 22 777.733 12.2701 777.733 0.26757V-42.2162H734.268V0.267559Z" fill="#E4D6C3"/>
<path d="M777.732 0.267559C777.732 12.27 787.462 22 799.465 22C811.467 22 821.197 12.2701 821.197 0.26757V-42.2162H777.732V0.267559Z" fill="#E4D6C3"/>
<path d="M712.535 20.5728C723.98 20.5726 733.257 11.2952 733.257 -0.148926V-40.7896H691.814V-0.148926C691.814 11.2953 701.091 20.5728 712.535 20.5728Z" stroke="#F6F2EC" stroke-width="0.237838"/>
<path d="M756 20.5728C767.444 20.5726 776.722 11.2952 776.722 -0.148926V-40.7896H735.279V-0.148926C735.279 11.2953 744.556 20.5728 756 20.5728Z" stroke="#F6F2EC" stroke-width="0.237838"/>
<path d="M799.465 20.5728C810.909 20.5726 820.187 11.2952 820.187 -0.148926V-40.7896H778.743V-0.148926C778.743 11.2953 788.021 20.5728 799.465 20.5728Z" stroke="#F6F2EC" stroke-width="0.237838"/>
<g clip-path="url(#clip11_6027_63357)">
<path d="M691.224 0.267559C691.224 12.27 700.954 22 712.957 22C724.959 22 734.689 12.2701 734.689 0.26757V-42.2162H691.224V0.267559Z" fill="#E4D6C3"/>
<path d="M734.689 0.267559C734.689 12.27 744.419 22 756.422 22C768.424 22 778.154 12.2701 778.154 0.26757V-42.2162H734.689V0.267559Z" fill="#E4D6C3"/>
<path d="M778.154 0.267559C778.154 12.27 787.884 22 799.887 22C811.889 22 821.619 12.2701 821.619 0.26757V-42.2162H778.154V0.267559Z" fill="#E4D6C3"/>
<path d="M712.957 20.5728C724.401 20.5726 733.679 11.2952 733.679 -0.148926V-40.7896H692.236V-0.148926C692.236 11.2953 701.513 20.5728 712.957 20.5728Z" stroke="#F6F2EC" stroke-width="0.237838"/>
<path d="M756.422 20.5728C767.866 20.5726 777.144 11.2952 777.144 -0.148926V-40.7896H735.7V-0.148926C735.7 11.2953 744.978 20.5728 756.422 20.5728Z" stroke="#F6F2EC" stroke-width="0.237838"/>
<path d="M799.887 20.5728C811.331 20.5726 820.609 11.2952 820.609 -0.148926V-40.7896H779.165V-0.148926C779.165 11.2953 788.443 20.5728 799.887 20.5728Z" stroke="#F6F2EC" stroke-width="0.237838"/>
<g clip-path="url(#clip12_6027_63357)">
<path d="M691.224 0.267559C691.224 12.27 700.954 22 712.957 22C724.959 22 734.689 12.2701 734.689 0.26757V-42.2162H691.224V0.267559Z" fill="#E4D6C3"/>
<path d="M734.689 0.267559C734.689 12.27 744.419 22 756.422 22C768.424 22 778.154 12.2701 778.154 0.26757V-42.2162H734.689V0.267559Z" fill="#E4D6C3"/>
<path d="M778.154 0.267559C778.154 12.27 787.884 22 799.887 22C811.889 22 821.619 12.2701 821.619 0.26757V-42.2162H778.154V0.267559Z" fill="#E4D6C3"/>
<path d="M712.957 20.5728C724.401 20.5726 733.679 11.2952 733.679 -0.148926V-40.7896H692.236V-0.148926C692.236 11.2953 701.513 20.5728 712.957 20.5728Z" stroke="#F6F2EC" stroke-width="0.237838"/>
<path d="M756.422 20.5728C767.866 20.5726 777.144 11.2952 777.144 -0.148926V-40.7896H735.7V-0.148926C735.7 11.2953 744.978 20.5728 756.422 20.5728Z" stroke="#F6F2EC" stroke-width="0.237838"/>
<path d="M799.887 20.5728C811.331 20.5726 820.609 11.2952 820.609 -0.148926V-40.7896H779.165V-0.148926C779.165 11.2953 788.443 20.5728 799.887 20.5728Z" stroke="#F6F2EC" stroke-width="0.237838"/>
</g>
</g>
</g>
<g clip-path="url(#clip13_6027_63357)">
<path d="M821.197 0.267559C821.197 12.27 830.927 22 842.93 22C854.932 22 864.662 12.2701 864.662 0.26757V-42.2162H821.197V0.267559Z" fill="#E4D6C3"/>
<path d="M864.662 0.267559C864.662 12.27 874.392 22 886.395 22C898.397 22 908.127 12.2701 908.127 0.26757V-42.2162H864.662V0.267559Z" fill="#E4D6C3"/>
<path d="M908.127 0.267559C908.127 12.27 917.857 22 929.859 22C941.862 22 951.592 12.2701 951.592 0.26757V-42.2162H908.127V0.267559Z" fill="#E4D6C3"/>
<path d="M842.93 20.5728C854.374 20.5726 863.652 11.2952 863.652 -0.148926V-40.7896H822.208V-0.148926C822.208 11.2953 831.486 20.5728 842.93 20.5728Z" stroke="#F6F2EC" stroke-width="0.237838"/>
<path d="M886.395 20.5728C897.839 20.5726 907.117 11.2952 907.117 -0.148926V-40.7896H865.673V-0.148926C865.673 11.2953 874.951 20.5728 886.395 20.5728Z" stroke="#F6F2EC" stroke-width="0.237838"/>
<path d="M929.86 20.5728C941.304 20.5726 950.581 11.2952 950.581 -0.148926V-40.7896H909.138V-0.148926C909.138 11.2953 918.415 20.5728 929.86 20.5728Z" stroke="#F6F2EC" stroke-width="0.237838"/>
<g clip-path="url(#clip14_6027_63357)">
<path d="M821.224 0.267559C821.224 12.27 830.954 22 842.957 22C854.959 22 864.689 12.2701 864.689 0.26757V-42.2162H821.224V0.267559Z" fill="#E4D6C3"/>
<path d="M864.689 0.267559C864.689 12.27 874.419 22 886.422 22C898.424 22 908.154 12.2701 908.154 0.26757V-42.2162H864.689V0.267559Z" fill="#E4D6C3"/>
<path d="M908.154 0.267559C908.154 12.27 917.884 22 929.887 22C941.889 22 951.619 12.2701 951.619 0.26757V-42.2162H908.154V0.267559Z" fill="#E4D6C3"/>
<path d="M842.957 20.5728C854.401 20.5726 863.679 11.2952 863.679 -0.148926V-40.7896H822.236V-0.148926C822.236 11.2953 831.513 20.5728 842.957 20.5728Z" stroke="#F6F2EC" stroke-width="0.237838"/>
<path d="M886.422 20.5728C897.866 20.5726 907.144 11.2952 907.144 -0.148926V-40.7896H865.7V-0.148926C865.7 11.2953 874.978 20.5728 886.422 20.5728Z" stroke="#F6F2EC" stroke-width="0.237838"/>
<path d="M929.887 20.5728C941.331 20.5726 950.609 11.2952 950.609 -0.148926V-40.7896H909.165V-0.148926C909.165 11.2953 918.443 20.5728 929.887 20.5728Z" stroke="#F6F2EC" stroke-width="0.237838"/>
<g clip-path="url(#clip15_6027_63357)">
<path d="M821.224 0.267559C821.224 12.27 830.954 22 842.957 22C854.959 22 864.689 12.2701 864.689 0.26757V-42.2162H821.224V0.267559Z" fill="#E4D6C3"/>
<path d="M864.689 0.267559C864.689 12.27 874.419 22 886.422 22C898.424 22 908.154 12.2701 908.154 0.26757V-42.2162H864.689V0.267559Z" fill="#E4D6C3"/>
<path d="M908.154 0.267559C908.154 12.27 917.884 22 929.887 22C941.889 22 951.619 12.2701 951.619 0.26757V-42.2162H908.154V0.267559Z" fill="#E4D6C3"/>
<path d="M842.957 20.5728C854.401 20.5726 863.679 11.2952 863.679 -0.148926V-40.7896H822.236V-0.148926C822.236 11.2953 831.513 20.5728 842.957 20.5728Z" stroke="#F6F2EC" stroke-width="0.237838"/>
<path d="M886.422 20.5728C897.866 20.5726 907.144 11.2952 907.144 -0.148926V-40.7896H865.7V-0.148926C865.7 11.2953 874.978 20.5728 886.422 20.5728Z" stroke="#F6F2EC" stroke-width="0.237838"/>
<path d="M929.887 20.5728C941.331 20.5726 950.609 11.2952 950.609 -0.148926V-40.7896H909.165V-0.148926C909.165 11.2953 918.443 20.5728 929.887 20.5728Z" stroke="#F6F2EC" stroke-width="0.237838"/>
</g>
</g>
</g>
<g clip-path="url(#clip16_6027_63357)">
<path d="M951.592 0.267559C951.592 12.27 961.322 22 973.324 22C985.327 22 995.057 12.2701 995.057 0.26757V-42.2162H951.592V0.267559Z" fill="#E4D6C3"/>
<path d="M995.057 0.267559C995.057 12.27 1004.79 22 1016.79 22C1028.79 22 1038.52 12.2701 1038.52 0.26757V-42.2162H995.057V0.267559Z" fill="#E4D6C3"/>
<path d="M1038.52 0.267559C1038.52 12.27 1048.25 22 1060.25 22C1072.26 22 1081.99 12.2701 1081.99 0.26757V-42.2162H1038.52V0.267559Z" fill="#E4D6C3"/>
<path d="M973.325 20.5728C984.769 20.5726 994.046 11.2952 994.046 -0.148926V-40.7896H952.603V-0.148926C952.603 11.2953 961.88 20.5728 973.325 20.5728Z" stroke="#F6F2EC" stroke-width="0.237838"/>
<path d="M1016.79 20.5728C1028.23 20.5726 1037.51 11.2952 1037.51 -0.148926V-40.7896H996.068V-0.148926C996.068 11.2953 1005.35 20.5728 1016.79 20.5728Z" stroke="#F6F2EC" stroke-width="0.237838"/>
<path d="M1060.25 20.5728C1071.7 20.5726 1080.98 11.2952 1080.98 -0.148926V-40.7896H1039.53V-0.148926C1039.53 11.2953 1048.81 20.5728 1060.25 20.5728Z" stroke="#F6F2EC" stroke-width="0.237838"/>
</g>
<g clip-path="url(#clip17_6027_63357)">
<path d="M1081.99 0.267559C1081.99 12.27 1091.72 22 1103.72 22C1115.72 22 1125.45 12.2701 1125.45 0.26757V-42.2162H1081.99V0.267559Z" fill="#E4D6C3"/>
<path d="M1125.45 0.267559C1125.45 12.27 1135.18 22 1147.18 22C1159.19 22 1168.92 12.2701 1168.92 0.26757V-42.2162H1125.45V0.267559Z" fill="#E4D6C3"/>
<path d="M1168.92 0.267559C1168.92 12.27 1178.65 22 1190.65 22C1202.65 22 1212.38 12.2701 1212.38 0.26757V-42.2162H1168.92V0.267559Z" fill="#E4D6C3"/>
<path d="M1103.72 20.5728C1115.16 20.5726 1124.44 11.2952 1124.44 -0.148926V-40.7896H1083V-0.148926C1083 11.2953 1092.27 20.5728 1103.72 20.5728Z" stroke="#F6F2EC" stroke-width="0.237838"/>
<path d="M1147.18 20.5728C1158.63 20.5726 1167.91 11.2952 1167.91 -0.148926V-40.7896H1126.46V-0.148926C1126.46 11.2953 1135.74 20.5728 1147.18 20.5728Z" stroke="#F6F2EC" stroke-width="0.237838"/>
<path d="M1190.65 20.5728C1202.09 20.5726 1211.37 11.2952 1211.37 -0.148926V-40.7896H1169.93V-0.148926C1169.93 11.2953 1179.2 20.5728 1190.65 20.5728Z" stroke="#F6F2EC" stroke-width="0.237838"/>
</g>
<g clip-path="url(#clip18_6027_63357)">
<path d="M1212.38 0.267559C1212.38 12.27 1222.11 22 1234.11 22C1246.12 22 1255.85 12.2701 1255.85 0.26757V-42.2162H1212.38V0.267559Z" fill="#E4D6C3"/>
<path d="M1255.85 0.267559C1255.85 12.27 1265.58 22 1277.58 22C1289.58 22 1299.31 12.2701 1299.31 0.26757V-42.2162H1255.85V0.267559Z" fill="#E4D6C3"/>
<path d="M1299.31 0.267559C1299.31 12.27 1309.04 22 1321.04 22C1333.05 22 1342.78 12.2701 1342.78 0.26757V-42.2162H1299.31V0.267559Z" fill="#E4D6C3"/>
<path d="M1234.11 20.5728C1245.56 20.5726 1254.84 11.2952 1254.84 -0.148926V-40.7896H1213.39V-0.148926C1213.39 11.2953 1222.67 20.5728 1234.11 20.5728Z" stroke="#F6F2EC" stroke-width="0.237838"/>
<path d="M1277.58 20.5728C1289.02 20.5726 1298.3 11.2952 1298.3 -0.148926V-40.7896H1256.86V-0.148926C1256.86 11.2953 1266.13 20.5728 1277.58 20.5728Z" stroke="#F6F2EC" stroke-width="0.237838"/>
<path d="M1321.04 20.5728C1332.49 20.5726 1341.76 11.2952 1341.76 -0.148926V-40.7896H1300.32V-0.148926C1300.32 11.2953 1309.6 20.5728 1321.04 20.5728Z" stroke="#F6F2EC" stroke-width="0.237838"/>
</g>
<g clip-path="url(#clip19_6027_63357)">
<path d="M1342.78 0.267559C1342.78 12.27 1352.51 22 1364.51 22C1376.51 22 1386.24 12.2701 1386.24 0.26757V-42.2162H1342.78V0.267559Z" fill="#E4D6C3"/>
<path d="M1386.24 0.267559C1386.24 12.27 1395.97 22 1407.97 22C1419.98 22 1429.71 12.2701 1429.71 0.26757V-42.2162H1386.24V0.267559Z" fill="#E4D6C3"/>
<path d="M1429.71 0.267559C1429.71 12.27 1439.44 22 1451.44 22C1463.44 22 1473.17 12.2701 1473.17 0.26757V-42.2162H1429.71V0.267559Z" fill="#E4D6C3"/>
<path d="M1364.51 20.5728C1375.95 20.5726 1385.23 11.2952 1385.23 -0.148926V-40.7896H1343.79V-0.148926C1343.79 11.2953 1353.06 20.5728 1364.51 20.5728Z" stroke="#F6F2EC" stroke-width="0.237838"/>
<path d="M1407.97 20.5728C1419.42 20.5726 1428.69 11.2952 1428.69 -0.148926V-40.7896H1387.25V-0.148926C1387.25 11.2953 1396.53 20.5728 1407.97 20.5728Z" stroke="#F6F2EC" stroke-width="0.237838"/>
<path d="M1451.44 20.5728C1462.88 20.5726 1472.16 11.2952 1472.16 -0.148926V-40.7896H1430.72V-0.148926C1430.72 11.2953 1439.99 20.5728 1451.44 20.5728Z" stroke="#F6F2EC" stroke-width="0.237838"/>
</g>
<g clip-path="url(#clip20_6027_63357)">
<path d="M1473.17 0.267559C1473.17 12.27 1482.9 22 1494.9 22C1506.9 22 1516.63 12.2701 1516.63 0.26757V-42.2162H1473.17V0.267559Z" fill="#E4D6C3"/>
<path d="M1494.9 20.5728C1506.35 20.5726 1515.62 11.2952 1515.62 -0.148926V-40.7896H1474.18V-0.148926C1474.18 11.2953 1483.46 20.5728 1494.9 20.5728Z" stroke="#F6F2EC" stroke-width="0.237838"/>
</g>
<defs>
<clipPath id="clip0_6027_63357">
<rect width="130.395" height="22" fill="white" transform="matrix(1 0 0 -1 -91.5648 22)"/>
</clipPath>
<clipPath id="clip1_6027_63357">
<rect width="130.395" height="22" fill="white" transform="matrix(1 0 0 -1 38.8298 22)"/>
</clipPath>
<clipPath id="clip2_6027_63357">
<rect width="130.395" height="22" fill="white" transform="matrix(1 0 0 -1 169.224 22)"/>
</clipPath>
<clipPath id="clip3_6027_63357">
<rect width="130.395" height="22" fill="white" transform="matrix(1 0 0 -1 299.619 22)"/>
</clipPath>
<clipPath id="clip4_6027_63357">
<rect width="130.395" height="22" fill="white" transform="matrix(1 0 0 -1 430.014 22)"/>
</clipPath>
<clipPath id="clip5_6027_63357">
<rect width="130.395" height="22" fill="white" transform="matrix(1 0 0 -1 560.408 22)"/>
</clipPath>
<clipPath id="clip6_6027_63357">
<rect width="130.395" height="22" fill="white" transform="matrix(1 0 0 -1 560.224 22)"/>
</clipPath>
<clipPath id="clip7_6027_63357">
<rect width="130.395" height="22" fill="white" transform="matrix(1 0 0 -1 560.224 22)"/>
</clipPath>
<clipPath id="clip8_6027_63357">
<rect width="130.395" height="22" fill="white" transform="matrix(1 0 0 -1 690.619 22)"/>
</clipPath>
<clipPath id="clip9_6027_63357">
<rect width="130.395" height="22" fill="white" transform="matrix(1 0 0 -1 690.224 22)"/>
</clipPath>
<clipPath id="clip10_6027_63357">
<rect width="130.395" height="22" fill="white" transform="matrix(1 0 0 -1 690.803 22)"/>
</clipPath>
<clipPath id="clip11_6027_63357">
<rect width="130.395" height="22" fill="white" transform="matrix(1 0 0 -1 691.224 22)"/>
</clipPath>
<clipPath id="clip12_6027_63357">
<rect width="130.395" height="22" fill="white" transform="matrix(1 0 0 -1 691.224 22)"/>
</clipPath>
<clipPath id="clip13_6027_63357">
<rect width="130.395" height="22" fill="white" transform="matrix(1 0 0 -1 821.197 22)"/>
</clipPath>
<clipPath id="clip14_6027_63357">
<rect width="130.395" height="22" fill="white" transform="matrix(1 0 0 -1 821.224 22)"/>
</clipPath>
<clipPath id="clip15_6027_63357">
<rect width="130.395" height="22" fill="white" transform="matrix(1 0 0 -1 821.224 22)"/>
</clipPath>
<clipPath id="clip16_6027_63357">
<rect width="130.395" height="22" fill="white" transform="matrix(1 0 0 -1 951.592 22)"/>
</clipPath>
<clipPath id="clip17_6027_63357">
<rect width="130.395" height="22" fill="white" transform="matrix(1 0 0 -1 1081.99 22)"/>
</clipPath>
<clipPath id="clip18_6027_63357">
<rect width="130.395" height="22" fill="white" transform="matrix(1 0 0 -1 1212.38 22)"/>
</clipPath>
<clipPath id="clip19_6027_63357">
<rect width="130.395" height="22" fill="white" transform="matrix(1 0 0 -1 1342.78 22)"/>
</clipPath>
<clipPath id="clip20_6027_63357">
<rect width="130.395" height="22" fill="white" transform="matrix(1 0 0 -1 1473.17 22)"/>
</clipPath>
</defs>
</svg>
