<svg width="1440" height="22" viewBox="0 0 1440 22" fill="none" xmlns="http://www.w3.org/2000/svg">
<rect width="1440" height="22" transform="matrix(-1 0 0 -1 1440 22)" fill="#ECF1F5"/>
<g clip-path="url(#clip0_6027_49585)">
<path d="M1480.64 0.267559C1480.64 12.27 1470.91 22 1458.9 22C1446.9 22 1437.17 12.2701 1437.17 0.26757V-42.2162H1480.64V0.267559Z" fill="#F8F8F8"/>
<path d="M1458.9 20.5728C1447.46 20.5726 1438.18 11.2952 1438.18 -0.148926V-40.7896H1479.62V-0.148926C1479.62 11.2953 1470.35 20.5728 1458.9 20.5728Z" stroke="#F6F2EC" stroke-width="0.237838"/>
</g>
<g clip-path="url(#clip1_6027_49585)">
<path d="M1437.17 0.267559C1437.17 12.27 1427.44 22 1415.44 22C1403.44 22 1393.71 12.2701 1393.71 0.26757V-42.2162H1437.17V0.267559Z" fill="#F8F8F8"/>
<path d="M1393.71 0.267559C1393.71 12.27 1383.98 22 1371.97 22C1359.97 22 1350.24 12.2701 1350.24 0.26757V-42.2162H1393.71V0.267559Z" fill="#F8F8F8"/>
<path d="M1350.24 0.267559C1350.24 12.27 1340.51 22 1328.51 22C1316.51 22 1306.78 12.2701 1306.78 0.26757V-42.2162H1350.24V0.267559Z" fill="#F8F8F8"/>
<path d="M1415.44 20.5728C1403.99 20.5726 1394.72 11.2952 1394.72 -0.148926V-40.7896H1436.16V-0.148926C1436.16 11.2953 1426.88 20.5728 1415.44 20.5728Z" stroke="#F6F2EC" stroke-width="0.237838"/>
<path d="M1371.97 20.5728C1360.53 20.5726 1351.25 11.2952 1351.25 -0.148926V-40.7896H1392.69V-0.148926C1392.69 11.2953 1383.42 20.5728 1371.97 20.5728Z" stroke="#F6F2EC" stroke-width="0.237838"/>
<path d="M1328.51 20.5728C1317.06 20.5726 1307.79 11.2952 1307.79 -0.148926V-40.7896H1349.23V-0.148926C1349.23 11.2953 1339.95 20.5728 1328.51 20.5728Z" stroke="#F6F2EC" stroke-width="0.237838"/>
</g>
<g clip-path="url(#clip2_6027_49585)">
<path d="M1306.78 0.267559C1306.78 12.27 1297.05 22 1285.04 22C1273.04 22 1263.31 12.2701 1263.31 0.26757V-42.2162H1306.78V0.267559Z" fill="#F8F8F8"/>
<path d="M1263.31 0.267559C1263.31 12.27 1253.58 22 1241.58 22C1229.58 22 1219.85 12.2701 1219.85 0.26757V-42.2162H1263.31V0.267559Z" fill="#F8F8F8"/>
<path d="M1219.85 0.267559C1219.85 12.27 1210.12 22 1198.11 22C1186.11 22 1176.38 12.2701 1176.38 0.26757V-42.2162H1219.85V0.267559Z" fill="#F8F8F8"/>
<path d="M1285.04 20.5728C1273.6 20.5726 1264.32 11.2952 1264.32 -0.148926V-40.7896H1305.76V-0.148926C1305.76 11.2953 1296.49 20.5728 1285.04 20.5728Z" stroke="#F6F2EC" stroke-width="0.237838"/>
<path d="M1241.58 20.5728C1230.13 20.5726 1220.86 11.2952 1220.86 -0.148926V-40.7896H1262.3V-0.148926C1262.3 11.2953 1253.02 20.5728 1241.58 20.5728Z" stroke="#F6F2EC" stroke-width="0.237838"/>
<path d="M1198.11 20.5728C1186.67 20.5726 1177.39 11.2952 1177.39 -0.148926V-40.7896H1218.83V-0.148926C1218.83 11.2953 1209.56 20.5728 1198.11 20.5728Z" stroke="#F6F2EC" stroke-width="0.237838"/>
</g>
<g clip-path="url(#clip3_6027_49585)">
<path d="M1176.38 0.267559C1176.38 12.27 1166.65 22 1154.65 22C1142.65 22 1132.92 12.2701 1132.92 0.26757V-42.2162H1176.38V0.267559Z" fill="#F8F8F8"/>
<path d="M1132.92 0.267559C1132.92 12.27 1123.19 22 1111.18 22C1099.18 22 1089.45 12.2701 1089.45 0.26757V-42.2162H1132.92V0.267559Z" fill="#F8F8F8"/>
<path d="M1089.45 0.267559C1089.45 12.27 1079.72 22 1067.72 22C1055.72 22 1045.99 12.2701 1045.99 0.26757V-42.2162H1089.45V0.267559Z" fill="#F8F8F8"/>
<path d="M1154.65 20.5728C1143.2 20.5726 1133.93 11.2952 1133.93 -0.148926V-40.7896H1175.37V-0.148926C1175.37 11.2953 1166.09 20.5728 1154.65 20.5728Z" stroke="#F6F2EC" stroke-width="0.237838"/>
<path d="M1111.18 20.5728C1099.74 20.5726 1090.46 11.2952 1090.46 -0.148926V-40.7896H1131.91V-0.148926C1131.91 11.2953 1122.63 20.5728 1111.18 20.5728Z" stroke="#F6F2EC" stroke-width="0.237838"/>
<path d="M1067.72 20.5728C1056.27 20.5726 1047 11.2952 1047 -0.148926V-40.7896H1088.44V-0.148926C1088.44 11.2953 1079.16 20.5728 1067.72 20.5728Z" stroke="#F6F2EC" stroke-width="0.237838"/>
</g>
<g clip-path="url(#clip4_6027_49585)">
<path d="M1045.99 0.267559C1045.99 12.27 1036.26 22 1024.25 22C1012.25 22 1002.52 12.2701 1002.52 0.26757V-42.2162H1045.99V0.267559Z" fill="#F8F8F8"/>
<path d="M1002.52 0.267559C1002.52 12.27 992.792 22 980.789 22C968.787 22 959.057 12.2701 959.057 0.26757V-42.2162H1002.52V0.267559Z" fill="#F8F8F8"/>
<path d="M959.057 0.267559C959.057 12.27 949.327 22 937.324 22C925.322 22 915.592 12.2701 915.592 0.26757V-42.2162H959.057V0.267559Z" fill="#F8F8F8"/>
<path d="M1024.25 20.5728C1012.81 20.5726 1003.53 11.2952 1003.53 -0.148926V-40.7896H1044.98V-0.148926C1044.98 11.2953 1035.7 20.5728 1024.25 20.5728Z" stroke="#F6F2EC" stroke-width="0.237838"/>
<path d="M980.789 20.5728C969.345 20.5726 960.067 11.2952 960.067 -0.148926V-40.7896H1001.51V-0.148926C1001.51 11.2953 992.233 20.5728 980.789 20.5728Z" stroke="#F6F2EC" stroke-width="0.237838"/>
<path d="M937.324 20.5728C925.88 20.5726 916.602 11.2952 916.602 -0.148926V-40.7896H958.046V-0.148926C958.046 11.2953 948.768 20.5728 937.324 20.5728Z" stroke="#F6F2EC" stroke-width="0.237838"/>
</g>
<g clip-path="url(#clip5_6027_49585)">
<path d="M915.592 0.267559C915.592 12.27 905.862 22 893.859 22C881.857 22 872.127 12.2701 872.127 0.26757V-42.2162H915.592V0.267559Z" fill="#F8F8F8"/>
<path d="M872.127 0.267559C872.127 12.27 862.397 22 850.394 22C838.392 22 828.662 12.2701 828.662 0.26757V-42.2162H872.127V0.267559Z" fill="#F8F8F8"/>
<path d="M828.662 0.267559C828.662 12.27 818.932 22 806.929 22C794.927 22 785.197 12.2701 785.197 0.26757V-42.2162H828.662V0.267559Z" fill="#F8F8F8"/>
<path d="M893.859 20.5728C882.415 20.5726 873.137 11.2952 873.137 -0.148926V-40.7896H914.581V-0.148926C914.581 11.2953 905.303 20.5728 893.859 20.5728Z" stroke="#F6F2EC" stroke-width="0.237838"/>
<path d="M850.394 20.5728C838.95 20.5726 829.672 11.2952 829.672 -0.148926V-40.7896H871.116V-0.148926C871.116 11.2953 861.838 20.5728 850.394 20.5728Z" stroke="#F6F2EC" stroke-width="0.237838"/>
<path d="M806.929 20.5728C795.485 20.5726 786.208 11.2952 786.208 -0.148926V-40.7896H827.651V-0.148926C827.651 11.2953 818.373 20.5728 806.929 20.5728Z" stroke="#F6F2EC" stroke-width="0.237838"/>
<g clip-path="url(#clip6_6027_49585)">
<path d="M915.775 0.267559C915.775 12.27 906.045 22 894.043 22C882.04 22 872.311 12.2701 872.311 0.26757V-42.2162H915.775V0.267559Z" fill="#F8F8F8"/>
<path d="M872.31 0.267559C872.31 12.27 862.58 22 850.578 22C838.575 22 828.845 12.2701 828.845 0.26757V-42.2162H872.31V0.267559Z" fill="#F8F8F8"/>
<path d="M828.845 0.267559C828.845 12.27 819.116 22 807.113 22C795.111 22 785.381 12.2701 785.381 0.26757V-42.2162H828.845V0.267559Z" fill="#F8F8F8"/>
<path d="M894.042 20.5728C882.598 20.5726 873.321 11.2952 873.321 -0.148926V-40.7896H914.764V-0.148926C914.764 11.2953 905.487 20.5728 894.042 20.5728Z" stroke="#F6F2EC" stroke-width="0.237838"/>
<path d="M850.578 20.5728C839.134 20.5726 829.856 11.2952 829.856 -0.148926V-40.7896H871.299V-0.148926C871.299 11.2953 862.022 20.5728 850.578 20.5728Z" stroke="#F6F2EC" stroke-width="0.237838"/>
<path d="M807.113 20.5728C795.669 20.5726 786.391 11.2952 786.391 -0.148926V-40.7896H827.834V-0.148926C827.834 11.2953 818.557 20.5728 807.113 20.5728Z" stroke="#F6F2EC" stroke-width="0.237838"/>
<g clip-path="url(#clip7_6027_49585)">
<path d="M915.775 0.267559C915.775 12.27 906.045 22 894.043 22C882.04 22 872.311 12.2701 872.311 0.26757V-42.2162H915.775V0.267559Z" fill="#F8F8F8"/>
<path d="M872.31 0.267559C872.31 12.27 862.58 22 850.578 22C838.575 22 828.845 12.2701 828.845 0.26757V-42.2162H872.31V0.267559Z" fill="#F8F8F8"/>
<path d="M828.845 0.267559C828.845 12.27 819.116 22 807.113 22C795.111 22 785.381 12.2701 785.381 0.26757V-42.2162H828.845V0.267559Z" fill="#F8F8F8"/>
<path d="M894.042 20.5728C882.598 20.5726 873.321 11.2952 873.321 -0.148926V-40.7896H914.764V-0.148926C914.764 11.2953 905.487 20.5728 894.042 20.5728Z" stroke="#F6F2EC" stroke-width="0.237838"/>
<path d="M850.578 20.5728C839.134 20.5726 829.856 11.2952 829.856 -0.148926V-40.7896H871.299V-0.148926C871.299 11.2953 862.022 20.5728 850.578 20.5728Z" stroke="#F6F2EC" stroke-width="0.237838"/>
<path d="M807.113 20.5728C795.669 20.5726 786.391 11.2952 786.391 -0.148926V-40.7896H827.834V-0.148926C827.834 11.2953 818.557 20.5728 807.113 20.5728Z" stroke="#F6F2EC" stroke-width="0.237838"/>
</g>
</g>
<g clip-path="url(#clip8_6027_49585)">
<path d="M785.381 0.267559C785.381 12.27 775.651 22 763.648 22C751.646 22 741.916 12.2701 741.916 0.26757V-42.2162H785.381V0.267559Z" fill="#F8F8F8"/>
<g clip-path="url(#clip9_6027_49585)">
<path d="M785.775 0.267559C785.775 12.27 776.045 22 764.043 22C752.04 22 742.311 12.2701 742.311 0.26757V-42.2162H785.775V0.267559Z" fill="#F8F8F8"/>
</g>
</g>
</g>
<g clip-path="url(#clip10_6027_49585)">
<path d="M785.197 0.267559C785.197 12.27 775.467 22 763.465 22C751.462 22 741.732 12.2701 741.732 0.26757V-42.2162H785.197V0.267559Z" fill="#F8F8F8"/>
<path d="M741.732 0.267559C741.732 12.27 732.002 22 720 22C707.997 22 698.267 12.2701 698.267 0.26757V-42.2162H741.732V0.267559Z" fill="#F8F8F8"/>
<path d="M698.267 0.267559C698.267 12.27 688.537 22 676.535 22C664.532 22 654.802 12.2701 654.802 0.26757V-42.2162H698.267V0.267559Z" fill="#F8F8F8"/>
<path d="M763.464 20.5728C752.02 20.5726 742.743 11.2952 742.743 -0.148926V-40.7896H784.186V-0.148926C784.186 11.2953 774.909 20.5728 763.464 20.5728Z" stroke="#F6F2EC" stroke-width="0.237838"/>
<path d="M720 20.5728C708.555 20.5726 699.278 11.2952 699.278 -0.148926V-40.7896H740.721V-0.148926C740.721 11.2953 731.444 20.5728 720 20.5728Z" stroke="#F6F2EC" stroke-width="0.237838"/>
<path d="M676.535 20.5728C665.091 20.5726 655.813 11.2952 655.813 -0.148926V-40.7896H697.256V-0.148926C697.256 11.2953 687.979 20.5728 676.535 20.5728Z" stroke="#F6F2EC" stroke-width="0.237838"/>
<g clip-path="url(#clip11_6027_49585)">
<path d="M784.775 0.267559C784.775 12.27 775.045 22 763.043 22C751.04 22 741.311 12.2701 741.311 0.26757V-42.2162H784.775V0.267559Z" fill="#F8F8F8"/>
<path d="M741.31 0.267559C741.31 12.27 731.58 22 719.578 22C707.575 22 697.845 12.2701 697.845 0.26757V-42.2162H741.31V0.267559Z" fill="#F8F8F8"/>
<path d="M697.845 0.267559C697.845 12.27 688.116 22 676.113 22C664.111 22 654.381 12.2701 654.381 0.26757V-42.2162H697.845V0.267559Z" fill="#F8F8F8"/>
<path d="M763.042 20.5728C751.598 20.5726 742.321 11.2952 742.321 -0.148926V-40.7896H783.764V-0.148926C783.764 11.2953 774.487 20.5728 763.042 20.5728Z" stroke="#F6F2EC" stroke-width="0.237838"/>
<path d="M719.578 20.5728C708.134 20.5726 698.856 11.2952 698.856 -0.148926V-40.7896H740.299V-0.148926C740.299 11.2953 731.022 20.5728 719.578 20.5728Z" stroke="#F6F2EC" stroke-width="0.237838"/>
<path d="M676.113 20.5728C664.669 20.5726 655.391 11.2952 655.391 -0.148926V-40.7896H696.834V-0.148926C696.834 11.2953 687.557 20.5728 676.113 20.5728Z" stroke="#F6F2EC" stroke-width="0.237838"/>
<g clip-path="url(#clip12_6027_49585)">
<path d="M784.775 0.267559C784.775 12.27 775.045 22 763.043 22C751.04 22 741.311 12.2701 741.311 0.26757V-42.2162H784.775V0.267559Z" fill="#F8F8F8"/>
<path d="M741.31 0.267559C741.31 12.27 731.58 22 719.578 22C707.575 22 697.845 12.2701 697.845 0.26757V-42.2162H741.31V0.267559Z" fill="#F8F8F8"/>
<path d="M697.845 0.267559C697.845 12.27 688.116 22 676.113 22C664.111 22 654.381 12.2701 654.381 0.26757V-42.2162H697.845V0.267559Z" fill="#F8F8F8"/>
<path d="M763.042 20.5728C751.598 20.5726 742.321 11.2952 742.321 -0.148926V-40.7896H783.764V-0.148926C783.764 11.2953 774.487 20.5728 763.042 20.5728Z" stroke="#F6F2EC" stroke-width="0.237838"/>
<path d="M719.578 20.5728C708.134 20.5726 698.856 11.2952 698.856 -0.148926V-40.7896H740.299V-0.148926C740.299 11.2953 731.022 20.5728 719.578 20.5728Z" stroke="#F6F2EC" stroke-width="0.237838"/>
<path d="M676.113 20.5728C664.669 20.5726 655.391 11.2952 655.391 -0.148926V-40.7896H696.834V-0.148926C696.834 11.2953 687.557 20.5728 676.113 20.5728Z" stroke="#F6F2EC" stroke-width="0.237838"/>
</g>
</g>
</g>
<g clip-path="url(#clip13_6027_49585)">
<path d="M654.803 0.267559C654.803 12.27 645.073 22 633.07 22C621.068 22 611.338 12.2701 611.338 0.26757V-42.2162H654.803V0.267559Z" fill="#F8F8F8"/>
<path d="M611.338 0.267559C611.338 12.27 601.608 22 589.605 22C577.603 22 567.873 12.2701 567.873 0.26757V-42.2162H611.338V0.267559Z" fill="#F8F8F8"/>
<path d="M567.873 0.267559C567.873 12.27 558.143 22 546.14 22C534.138 22 524.408 12.2701 524.408 0.26757V-42.2162H567.873V0.267559Z" fill="#F8F8F8"/>
<path d="M633.07 20.5728C621.626 20.5726 612.348 11.2952 612.348 -0.148926V-40.7896H653.792V-0.148926C653.792 11.2953 644.514 20.5728 633.07 20.5728Z" stroke="#F6F2EC" stroke-width="0.237838"/>
<path d="M589.605 20.5728C578.161 20.5726 568.883 11.2952 568.883 -0.148926V-40.7896H610.327V-0.148926C610.327 11.2953 601.049 20.5728 589.605 20.5728Z" stroke="#F6F2EC" stroke-width="0.237838"/>
<path d="M546.14 20.5728C534.696 20.5726 525.418 11.2952 525.418 -0.148926V-40.7896H566.862V-0.148926C566.862 11.2953 557.584 20.5728 546.14 20.5728Z" stroke="#F6F2EC" stroke-width="0.237838"/>
<g clip-path="url(#clip14_6027_49585)">
<path d="M654.775 0.267559C654.775 12.27 645.045 22 633.043 22C621.04 22 611.311 12.2701 611.311 0.26757V-42.2162H654.775V0.267559Z" fill="#F8F8F8"/>
<path d="M611.31 0.267559C611.31 12.27 601.58 22 589.578 22C577.575 22 567.845 12.2701 567.845 0.26757V-42.2162H611.31V0.267559Z" fill="#F8F8F8"/>
<path d="M567.845 0.267559C567.845 12.27 558.116 22 546.113 22C534.111 22 524.381 12.2701 524.381 0.26757V-42.2162H567.845V0.267559Z" fill="#F8F8F8"/>
<path d="M633.042 20.5728C621.598 20.5726 612.321 11.2952 612.321 -0.148926V-40.7896H653.764V-0.148926C653.764 11.2953 644.487 20.5728 633.042 20.5728Z" stroke="#F6F2EC" stroke-width="0.237838"/>
<path d="M589.578 20.5728C578.134 20.5726 568.856 11.2952 568.856 -0.148926V-40.7896H610.299V-0.148926C610.299 11.2953 601.022 20.5728 589.578 20.5728Z" stroke="#F6F2EC" stroke-width="0.237838"/>
<path d="M546.113 20.5728C534.669 20.5726 525.391 11.2952 525.391 -0.148926V-40.7896H566.834V-0.148926C566.834 11.2953 557.557 20.5728 546.113 20.5728Z" stroke="#F6F2EC" stroke-width="0.237838"/>
<g clip-path="url(#clip15_6027_49585)">
<path d="M654.775 0.267559C654.775 12.27 645.045 22 633.043 22C621.04 22 611.311 12.2701 611.311 0.26757V-42.2162H654.775V0.267559Z" fill="#F8F8F8"/>
<path d="M611.31 0.267559C611.31 12.27 601.58 22 589.578 22C577.575 22 567.845 12.2701 567.845 0.26757V-42.2162H611.31V0.267559Z" fill="#F8F8F8"/>
<path d="M567.845 0.267559C567.845 12.27 558.116 22 546.113 22C534.111 22 524.381 12.2701 524.381 0.26757V-42.2162H567.845V0.267559Z" fill="#F8F8F8"/>
<path d="M633.042 20.5728C621.598 20.5726 612.321 11.2952 612.321 -0.148926V-40.7896H653.764V-0.148926C653.764 11.2953 644.487 20.5728 633.042 20.5728Z" stroke="#F6F2EC" stroke-width="0.237838"/>
<path d="M589.578 20.5728C578.134 20.5726 568.856 11.2952 568.856 -0.148926V-40.7896H610.299V-0.148926C610.299 11.2953 601.022 20.5728 589.578 20.5728Z" stroke="#F6F2EC" stroke-width="0.237838"/>
<path d="M546.113 20.5728C534.669 20.5726 525.391 11.2952 525.391 -0.148926V-40.7896H566.834V-0.148926C566.834 11.2953 557.557 20.5728 546.113 20.5728Z" stroke="#F6F2EC" stroke-width="0.237838"/>
</g>
</g>
</g>
<g clip-path="url(#clip16_6027_49585)">
<path d="M524.408 0.267559C524.408 12.27 514.678 22 502.676 22C490.673 22 480.943 12.2701 480.943 0.26757V-42.2162H524.408V0.267559Z" fill="#F8F8F8"/>
<path d="M480.943 0.267559C480.943 12.27 471.213 22 459.211 22C447.208 22 437.478 12.2701 437.478 0.26757V-42.2162H480.943V0.267559Z" fill="#F8F8F8"/>
<path d="M437.478 0.267559C437.478 12.27 427.748 22 415.746 22C403.743 22 394.013 12.2701 394.013 0.26757V-42.2162H437.478V0.267559Z" fill="#F8F8F8"/>
<path d="M502.675 20.5728C491.231 20.5726 481.954 11.2952 481.954 -0.148926V-40.7896H523.397V-0.148926C523.397 11.2953 514.12 20.5728 502.675 20.5728Z" stroke="#F6F2EC" stroke-width="0.237838"/>
<path d="M459.21 20.5728C447.766 20.5726 438.489 11.2952 438.489 -0.148926V-40.7896H479.932V-0.148926C479.932 11.2953 470.655 20.5728 459.21 20.5728Z" stroke="#F6F2EC" stroke-width="0.237838"/>
<path d="M415.746 20.5728C404.302 20.5726 395.024 11.2952 395.024 -0.148926V-40.7896H436.467V-0.148926C436.467 11.2953 427.19 20.5728 415.746 20.5728Z" stroke="#F6F2EC" stroke-width="0.237838"/>
</g>
<g clip-path="url(#clip17_6027_49585)">
<path d="M394.013 0.267559C394.013 12.27 384.283 22 372.281 22C360.279 22 350.549 12.2701 350.549 0.26757V-42.2162H394.013V0.267559Z" fill="#F8F8F8"/>
<path d="M350.548 0.267559C350.548 12.27 340.818 22 328.816 22C316.813 22 307.083 12.2701 307.083 0.26757V-42.2162H350.548V0.267559Z" fill="#F8F8F8"/>
<path d="M307.083 0.267559C307.083 12.27 297.354 22 285.351 22C273.349 22 263.619 12.2701 263.619 0.26757V-42.2162H307.083V0.267559Z" fill="#F8F8F8"/>
<path d="M372.281 20.5728C360.836 20.5726 351.559 11.2952 351.559 -0.148926V-40.7896H393.002V-0.148926C393.002 11.2953 383.725 20.5728 372.281 20.5728Z" stroke="#F6F2EC" stroke-width="0.237838"/>
<path d="M328.816 20.5728C317.372 20.5726 308.094 11.2952 308.094 -0.148926V-40.7896H349.537V-0.148926C349.537 11.2953 340.26 20.5728 328.816 20.5728Z" stroke="#F6F2EC" stroke-width="0.237838"/>
<path d="M285.351 20.5728C273.907 20.5726 264.629 11.2952 264.629 -0.148926V-40.7896H306.073V-0.148926C306.073 11.2953 296.795 20.5728 285.351 20.5728Z" stroke="#F6F2EC" stroke-width="0.237838"/>
</g>
<g clip-path="url(#clip18_6027_49585)">
<path d="M263.619 0.267559C263.619 12.27 253.889 22 241.886 22C229.884 22 220.154 12.2701 220.154 0.26757V-42.2162H263.619V0.267559Z" fill="#F8F8F8"/>
<path d="M220.154 0.267559C220.154 12.27 210.424 22 198.421 22C186.419 22 176.689 12.2701 176.689 0.26757V-42.2162H220.154V0.267559Z" fill="#F8F8F8"/>
<path d="M176.689 0.267559C176.689 12.27 166.959 22 154.957 22C142.954 22 133.224 12.2701 133.224 0.26757V-42.2162H176.689V0.267559Z" fill="#F8F8F8"/>
<path d="M241.886 20.5728C230.442 20.5726 221.164 11.2952 221.164 -0.148926V-40.7896H262.608V-0.148926C262.608 11.2953 253.33 20.5728 241.886 20.5728Z" stroke="#F6F2EC" stroke-width="0.237838"/>
<path d="M198.421 20.5728C186.977 20.5726 177.699 11.2952 177.699 -0.148926V-40.7896H219.143V-0.148926C219.143 11.2953 209.865 20.5728 198.421 20.5728Z" stroke="#F6F2EC" stroke-width="0.237838"/>
<path d="M154.956 20.5728C143.512 20.5726 134.235 11.2952 134.235 -0.148926V-40.7896H175.678V-0.148926C175.678 11.2953 166.401 20.5728 154.956 20.5728Z" stroke="#F6F2EC" stroke-width="0.237838"/>
</g>
<g clip-path="url(#clip19_6027_49585)">
<path d="M133.224 0.267559C133.224 12.27 123.494 22 111.492 22C99.4894 22 89.7595 12.2701 89.7595 0.26757V-42.2162H133.224V0.267559Z" fill="#F8F8F8"/>
<path d="M89.7593 0.267559C89.7593 12.27 80.0293 22 68.0268 22C56.0244 22 46.2944 12.2701 46.2944 0.26757V-42.2162H89.7593V0.267559Z" fill="#F8F8F8"/>
<path d="M46.2944 0.267559C46.2944 12.27 36.5645 22 24.562 22C12.5595 22 2.82957 12.2701 2.82957 0.26757V-42.2162H46.2944V0.267559Z" fill="#F8F8F8"/>
<path d="M111.491 20.5728C100.047 20.5726 90.7698 11.2952 90.7698 -0.148926V-40.7896H132.213V-0.148926C132.213 11.2953 122.936 20.5728 111.491 20.5728Z" stroke="#F6F2EC" stroke-width="0.237838"/>
<path d="M68.0266 20.5728C56.5825 20.5726 47.3049 11.2952 47.3049 -0.148926V-40.7896H88.7483V-0.148926C88.7483 11.2953 79.4708 20.5728 68.0266 20.5728Z" stroke="#F6F2EC" stroke-width="0.237838"/>
<path d="M24.5618 20.5728C13.1177 20.5726 3.84009 11.2952 3.84009 -0.148926V-40.7896H45.2834V-0.148926C45.2834 11.2953 36.006 20.5728 24.5618 20.5728Z" stroke="#F6F2EC" stroke-width="0.237838"/>
</g>
<g clip-path="url(#clip20_6027_49585)">
<path d="M2.82983 0.267559C2.82983 12.27 -6.90011 22 -18.9026 22C-30.9051 22 -40.635 12.2701 -40.635 0.26757V-42.2162H2.82983V0.267559Z" fill="#F8F8F8"/>
<path d="M-18.9031 20.5728C-30.3472 20.5726 -39.6248 11.2952 -39.6248 -0.148926V-40.7896H1.8186V-0.148926C1.8186 11.2953 -7.45884 20.5728 -18.9031 20.5728Z" stroke="#F6F2EC" stroke-width="0.237838"/>
</g>
<defs>
<clipPath id="clip0_6027_49585">
<rect width="130.395" height="22" fill="white" transform="matrix(-1 0 0 -1 1567.56 22)"/>
</clipPath>
<clipPath id="clip1_6027_49585">
<rect width="130.395" height="22" fill="white" transform="matrix(-1 0 0 -1 1437.17 22)"/>
</clipPath>
<clipPath id="clip2_6027_49585">
<rect width="130.395" height="22" fill="white" transform="matrix(-1 0 0 -1 1306.78 22)"/>
</clipPath>
<clipPath id="clip3_6027_49585">
<rect width="130.395" height="22" fill="white" transform="matrix(-1 0 0 -1 1176.38 22)"/>
</clipPath>
<clipPath id="clip4_6027_49585">
<rect width="130.395" height="22" fill="white" transform="matrix(-1 0 0 -1 1045.99 22)"/>
</clipPath>
<clipPath id="clip5_6027_49585">
<rect width="130.395" height="22" fill="white" transform="matrix(-1 0 0 -1 915.592 22)"/>
</clipPath>
<clipPath id="clip6_6027_49585">
<rect width="130.395" height="22" fill="white" transform="matrix(-1 0 0 -1 915.775 22)"/>
</clipPath>
<clipPath id="clip7_6027_49585">
<rect width="130.395" height="22" fill="white" transform="matrix(-1 0 0 -1 915.775 22)"/>
</clipPath>
<clipPath id="clip8_6027_49585">
<rect width="130.395" height="22" fill="white" transform="matrix(-1 0 0 -1 785.381 22)"/>
</clipPath>
<clipPath id="clip9_6027_49585">
<rect width="130.395" height="22" fill="white" transform="matrix(-1 0 0 -1 785.775 22)"/>
</clipPath>
<clipPath id="clip10_6027_49585">
<rect width="130.395" height="22" fill="white" transform="matrix(-1 0 0 -1 785.197 22)"/>
</clipPath>
<clipPath id="clip11_6027_49585">
<rect width="130.395" height="22" fill="white" transform="matrix(-1 0 0 -1 784.775 22)"/>
</clipPath>
<clipPath id="clip12_6027_49585">
<rect width="130.395" height="22" fill="white" transform="matrix(-1 0 0 -1 784.775 22)"/>
</clipPath>
<clipPath id="clip13_6027_49585">
<rect width="130.395" height="22" fill="white" transform="matrix(-1 0 0 -1 654.803 22)"/>
</clipPath>
<clipPath id="clip14_6027_49585">
<rect width="130.395" height="22" fill="white" transform="matrix(-1 0 0 -1 654.775 22)"/>
</clipPath>
<clipPath id="clip15_6027_49585">
<rect width="130.395" height="22" fill="white" transform="matrix(-1 0 0 -1 654.775 22)"/>
</clipPath>
<clipPath id="clip16_6027_49585">
<rect width="130.395" height="22" fill="white" transform="matrix(-1 0 0 -1 524.408 22)"/>
</clipPath>
<clipPath id="clip17_6027_49585">
<rect width="130.395" height="22" fill="white" transform="matrix(-1 0 0 -1 394.013 22)"/>
</clipPath>
<clipPath id="clip18_6027_49585">
<rect width="130.395" height="22" fill="white" transform="matrix(-1 0 0 -1 263.619 22)"/>
</clipPath>
<clipPath id="clip19_6027_49585">
<rect width="130.395" height="22" fill="white" transform="matrix(-1 0 0 -1 133.224 22)"/>
</clipPath>
<clipPath id="clip20_6027_49585">
<rect width="130.395" height="22" fill="white" transform="matrix(-1 0 0 -1 2.82983 22)"/>
</clipPath>
</defs>
</svg>
