<svg width="1512" height="32" viewBox="0 0 1512 32" fill="none" xmlns="http://www.w3.org/2000/svg">
<rect width="3158" height="28" transform="matrix(1 0 0 -1 -823 30)" fill="#F2F2F2"/>
<g clip-path="url(#clip0_6303_41463)">
<path d="M-34.5813 -3.8147e-06L-34.5858 5.32836C-18.7382 1.29824 -11.6924 28.1176 2.03066 24.6201C8.779 22.9002 8.16854 12.6829 0.922958 13.3153L4.49913 17.4764C6.47036 25.7652 -9.30167 24.9752 -7.60571 14.1831C-6.16946 5.03986 5.78664 3.87032 13.0944 6.01853C21.5698 8.5085 29.044 23.7058 36.9333 24.8065C41.7793 25.4834 47.1291 22.8048 46.1857 17.3499C45.8061 15.1529 41.9103 11.5133 40.403 14.1986C39.4729 15.8564 45.1934 16.4644 44.3166 19.8044C42.554 26.5175 27.226 22.4097 32.9842 11.2071C36.8668 3.65284 48.6586 3.73495 55.3559 7.24355C63.4916 11.5045 70.0513 25.5278 79.4457 24.8975C87.2018 24.3782 88.3651 12.7605 79.9096 13.3153C79.4346 15.843 82.7377 15.701 83.3326 17.4475C85.7834 24.6534 73.2301 24.7887 71.9448 18.171C69.9026 7.66076 79.6122 4.42958 88.3872 5.28398C102.119 6.61996 107.642 26.5242 119.336 24.8132C126.502 23.7657 127.881 13.9523 119.849 13.3153C120.013 16.2425 124.2 16.1182 123.272 19.7911C121.618 26.3422 105.875 22.2322 112.375 10.7233C117.181 2.2148 130.165 4.36744 137.004 9.02115C144.509 14.1298 150.066 28.5947 161.178 24.0187C166.486 21.8327 165.436 12.0704 158.899 13.3176C158.357 15.6921 161.276 15.6744 161.997 16.8617C166.541 24.3138 148.863 26.7861 150.956 13.808C152.252 5.77 161.671 4.56494 168.211 5.32614C181.557 6.87959 186.829 28.486 200.576 24.3338C206.45 22.5606 205.229 11.2493 197.946 13.3198C196.199 14.7845 206.705 18.3242 200.21 22.2389C193.768 26.1203 185.417 16.0051 193.462 8.39312C197.169 4.88453 203.253 4.73804 208.07 5.40825C220.435 7.13036 227.556 28.284 239.701 24.447C245.746 22.5385 245.257 12.3056 237.883 13.3198C237.341 15.6944 240.26 15.6766 240.982 16.8639C245.375 24.0675 228.948 26.7772 229.836 14.6602C230.444 6.39138 240.578 4.55829 247.197 5.33058C259.862 6.80858 265.531 27.454 278.733 24.4115C285.297 22.898 284.828 12.7139 277.818 13.322C277.374 15.7077 280.087 15.4059 280.793 17.0991C283.943 24.66 271.696 24.6423 270.011 18.9011C266.512 6.98391 278.524 3.95468 287.807 5.54142C298.745 7.41001 305.762 24.9152 315.531 24.9352C324.333 24.953 326.442 13.2244 316.87 13.3198C316.395 15.8475 319.698 15.7055 320.293 17.452C322.852 24.9729 308.032 25.5855 308.825 14.6602C309.444 6.13838 320.182 4.42513 326.994 5.40825C338.655 7.0882 344.616 24.9663 354.587 24.9396C367.782 24.9064 360.432 10.184 356.809 13.322C356.334 15.8941 359.722 15.7321 360.266 17.4609C362.443 24.3937 349.903 25.1949 348.902 18.1488C347.342 7.157 355.948 4.34747 365.282 5.28621C378.213 6.58667 384.415 25.6831 395.399 24.9064C403.866 24.3094 404.918 13.0868 395.856 13.3242L400.327 19.0853C400.356 24.4181 386.66 25.0928 387.894 14.7312C389.106 4.54497 403.222 3.37546 410.676 6.92844C418.883 10.8387 424.961 25.3524 434.453 24.9064C443.328 24.4891 445.079 13.4463 435.8 13.3198C435.325 15.8475 438.628 15.7055 439.223 17.452C441.508 24.1629 430.621 24.7488 428.268 19.5137C423.167 8.16232 438.022 2.83618 447.348 5.76112C458.33 9.20536 464.405 27.4407 476.85 24.609C482.908 23.2308 482.695 13.2355 475.74 13.322C476.111 16.8151 480.033 15.519 479.327 19.9486C478.231 26.8415 461.318 21.7529 468.235 10.6967C471.593 5.33059 478.472 4.70032 484.171 5.32836C496.839 6.72869 503.339 24.9086 513.453 24.9352C522.394 24.9574 523.984 13.302 514.791 13.3198L519.098 18.9233C518.512 25.6897 503.421 24.4115 507.2 12.3766C509.477 5.12197 520.068 3.72165 526.317 5.78331C537.725 9.54711 543.399 26.6351 554.96 24.6423C562.076 23.4173 562.387 12.5231 554.729 13.3198C554.458 16.764 558.958 15.7121 558.289 19.0143C556.407 28.3218 538.941 20.1728 548.5 9.31188C553.81 3.27781 563.233 4.07228 569.75 7.60528C576.73 11.3891 584.051 24.3649 591.565 24.9042C601.681 25.6298 602.169 13.5905 595.128 13.2754C590.855 13.0846 596.846 16.4023 597.177 17.4808C599.47 24.933 585.702 25.6298 585.705 15.5346C585.705 5.75001 598.353 3.786 605.95 6.02298C617.388 9.38954 621.708 27.383 634.63 24.4115C641.143 22.9135 640.788 12.7628 633.715 13.322C633.389 16.0716 637.902 16.8927 637.161 19.7888C635.234 27.3275 619.371 20.8518 627.091 9.80454C631.729 3.17128 642.286 4.11001 648.739 7.60751C657.264 12.2279 662.76 27.1677 673.899 24.6645C680.852 23.1021 680.519 12.5586 672.765 13.322C672.29 15.8497 675.593 15.7077 676.188 17.4542C678.938 25.5344 662.185 25.2903 664.958 13.0623C666.858 4.68477 679.744 3.83705 686.284 6.4513C696.246 10.4348 702.369 28.4483 714.529 24.4559C720.589 22.4652 718.518 9.70688 711.83 14.6469C723.18 20.6321 708.626 27.1811 705.172 19.5137C700.091 8.23555 714.363 2.86281 723.562 5.56583C734.039 8.64389 741.329 25.5943 751.292 24.9042C759.428 24.3405 760.84 12.9492 751.754 13.3198C752.893 16.8439 758.265 17.8625 753.898 22.1168C747.72 26.5686 737.964 15.5368 747.76 7.99587C751.547 5.07981 759.534 5.6568 754.855 0.0044384H-34.5813V-3.8147e-06Z" fill="#E4D6C3"/>
</g>
<g clip-path="url(#clip1_6303_41463)">
<path d="M754.004 -3.8147e-06L754 5.32836C769.848 1.29824 776.893 28.1176 790.616 24.6201C797.365 22.9002 796.754 12.6829 789.509 13.3153L793.085 17.4764C795.056 25.7652 779.284 24.9752 780.98 14.1831C782.416 5.03986 794.372 3.87032 801.68 6.01853C810.156 8.5085 817.63 23.7058 825.519 24.8065C830.365 25.4834 835.715 22.8048 834.771 17.3499C834.392 15.1529 830.496 11.5133 828.989 14.1986C828.059 15.8564 833.779 16.4644 832.902 19.8044C831.14 26.5175 815.812 22.4097 821.57 11.2071C825.453 3.65284 837.244 3.73495 843.942 7.24355C852.077 11.5045 858.637 25.5278 868.031 24.8975C875.788 24.3782 876.951 12.7605 868.495 13.3153C868.02 15.843 871.323 15.701 871.918 17.4475C874.369 24.6534 861.816 24.7887 860.531 18.171C858.488 7.66076 868.198 4.42958 876.973 5.28398C890.705 6.61996 896.228 26.5242 907.922 24.8132C915.088 23.7657 916.466 13.9523 908.435 13.3153C908.599 16.2425 912.786 16.1182 911.858 19.7911C910.204 26.3422 894.461 22.2322 900.961 10.7233C905.767 2.2148 918.751 4.36744 925.59 9.02115C933.095 14.1298 938.652 28.5947 949.764 24.0187C955.072 21.8327 954.022 12.0704 947.484 13.3176C946.943 15.6921 949.862 15.6744 950.583 16.8617C955.127 24.3138 937.448 26.7861 939.542 13.808C940.838 5.77 950.257 4.56494 956.797 5.32614C970.142 6.87959 975.414 28.486 989.162 24.3338C995.036 22.5606 993.815 11.2493 986.531 13.3198C984.784 14.7845 995.291 18.3242 988.796 22.2389C982.354 26.1203 974.003 16.0051 982.047 8.39312C985.755 4.88453 991.839 4.73804 996.656 5.40825C1009.02 7.13036 1016.14 28.284 1028.29 24.447C1034.33 22.5385 1033.84 12.3056 1026.47 13.3198C1025.93 15.6944 1028.85 15.6766 1029.57 16.8639C1033.96 24.0675 1017.53 26.7772 1018.42 14.6602C1019.03 6.39138 1029.16 4.55829 1035.78 5.33058C1048.45 6.80858 1054.12 27.454 1067.32 24.4115C1073.88 22.898 1073.41 12.7139 1066.4 13.322C1065.96 15.7077 1068.67 15.4059 1069.38 17.0991C1072.53 24.66 1060.28 24.6423 1058.6 18.9011C1055.1 6.98391 1067.11 3.95468 1076.39 5.54142C1087.33 7.41001 1094.35 24.9152 1104.12 24.9352C1112.92 24.953 1115.03 13.2244 1105.46 13.3198C1104.98 15.8475 1108.28 15.7055 1108.88 17.452C1111.44 24.9729 1096.62 25.5855 1097.41 14.6602C1098.03 6.13838 1108.77 4.42513 1115.58 5.40825C1127.24 7.0882 1133.2 24.9663 1143.17 24.9396C1156.37 24.9064 1149.02 10.184 1145.39 13.322C1144.92 15.8941 1148.31 15.7321 1148.85 17.4609C1151.03 24.3937 1138.49 25.1949 1137.49 18.1488C1135.93 7.157 1144.53 4.34747 1153.87 5.28621C1166.8 6.58667 1173 25.6831 1183.98 24.9064C1192.45 24.3094 1193.5 13.0868 1184.44 13.3242L1188.91 19.0853C1188.94 24.4181 1175.25 25.0928 1176.48 14.7312C1177.69 4.54497 1191.81 3.37546 1199.26 6.92844C1207.47 10.8387 1213.55 25.3524 1223.04 24.9064C1231.91 24.4891 1233.67 13.4463 1224.39 13.3198C1223.91 15.8475 1227.21 15.7055 1227.81 17.452C1230.09 24.1629 1219.21 24.7488 1216.85 19.5137C1211.75 8.16232 1226.61 2.83618 1235.93 5.76112C1246.92 9.20536 1252.99 27.4407 1265.44 24.609C1271.49 23.2308 1271.28 13.2355 1264.33 13.322C1264.7 16.8151 1268.62 15.519 1267.91 19.9486C1266.82 26.8415 1249.9 21.7529 1256.82 10.6967C1260.18 5.33059 1267.06 4.70032 1272.76 5.32836C1285.43 6.72869 1291.92 24.9086 1302.04 24.9352C1310.98 24.9574 1312.57 13.302 1303.38 13.3198L1307.68 18.9233C1307.1 25.6897 1292.01 24.4115 1295.79 12.3766C1298.06 5.12197 1308.65 3.72165 1314.9 5.78331C1326.31 9.54711 1331.98 26.6351 1343.55 24.6423C1350.66 23.4173 1350.97 12.5231 1343.31 13.3198C1343.04 16.764 1347.54 15.7121 1346.88 19.0143C1344.99 28.3218 1327.53 20.1728 1337.09 9.31188C1342.4 3.27781 1351.82 4.07228 1358.34 7.60528C1365.32 11.3891 1372.64 24.3649 1380.15 24.9042C1390.27 25.6298 1390.75 13.5905 1383.71 13.2754C1379.44 13.0846 1385.43 16.4023 1385.76 17.4808C1388.06 24.933 1374.29 25.6298 1374.29 15.5346C1374.29 5.75001 1386.94 3.786 1394.54 6.02298C1405.97 9.38954 1410.29 27.383 1423.22 24.4115C1429.73 22.9135 1429.37 12.7628 1422.3 13.322C1421.97 16.0716 1426.49 16.8927 1425.75 19.7888C1423.82 27.3275 1407.96 20.8518 1415.68 9.80454C1420.31 3.17128 1430.87 4.11001 1437.33 7.60751C1445.85 12.2279 1451.35 27.1677 1462.48 24.6645C1469.44 23.1021 1469.1 12.5586 1461.35 13.322C1460.88 15.8497 1464.18 15.7077 1464.77 17.4542C1467.52 25.5344 1450.77 25.2903 1453.54 13.0623C1455.44 4.68477 1468.33 3.83705 1474.87 6.4513C1484.83 10.4348 1490.95 28.4483 1503.11 24.4559C1509.18 22.4652 1507.1 9.70688 1500.42 14.6469C1511.77 20.6321 1497.21 27.1811 1493.76 19.5137C1488.68 8.23555 1502.95 2.86281 1512.15 5.56583C1522.63 8.64389 1529.92 25.5943 1539.88 24.9042C1548.01 24.3405 1549.43 12.9492 1540.34 13.3198C1541.48 16.8439 1546.85 17.8625 1542.48 22.1168C1536.31 26.5686 1526.55 15.5368 1536.35 7.99587C1540.13 5.07981 1548.12 5.6568 1543.44 0.0044384H754.004V-3.8147e-06Z" fill="#E4D6C3"/>
</g>
<defs>
<clipPath id="clip0_6303_41463">
<rect width="1581" height="32" fill="white" transform="matrix(1 0 0 -1 -823 32)"/>
</clipPath>
<clipPath id="clip1_6303_41463">
<rect width="1581" height="32" fill="white" transform="matrix(1 0 0 -1 754 32)"/>
</clipPath>
</defs>
</svg>
