<svg width="1440" height="28" viewBox="0 0 1440 28" fill="none" xmlns="http://www.w3.org/2000/svg">
<rect width="2278.37" height="28" transform="translate(-419.185)" fill="white"/>
<g clip-path="url(#clip0_6027_16694)">
<path d="M-3.93006 17.7359C-2.81252 14.9882 0.171159 13.1499 2.49204 15.6038L-1.35607 17.7402C0.149722 19.8895 2.61643 16.9294 2.92531 16.9251C3.30069 16.9186 7.52846 21.4081 8.19341 22.2532C10.6837 25.4214 8.66103 26.0027 8.34357 29.1044C8.03469 32.1074 9.40537 35.3313 11.5075 37.4591C12.7795 35.5866 14.0257 33.5424 14.2809 31.2494C14.5383 28.9671 12.7516 25.0697 13.0004 24.1773C13.4058 22.7209 18.2063 17.3327 19.7657 17.0989C20.5529 16.9809 22.1252 19.0851 23.7146 18.388C23.6202 16.1787 21.3444 16.3824 20.0746 15.1727C23.1484 13.5789 25.3341 15.0525 26.4967 18.1756C28.3972 15.5845 27.9918 11.7513 25.0081 10.2005C19.0729 7.11815 16.6211 17.5879 14.2123 20.9662C13.8519 21.4725 12.9811 22.8839 12.3655 22.0366C17.6979 15.4129 16.722 7.80887 11.4946 1.46183C7.31616 5.90626 5.41136 11.6591 7.69149 17.53C8.69534 20.1125 10.0531 23.9414 13.2106 22.886L11.0677 25.0289C10.2205 25.164 4.50832 11.9487 2.31185 10.2541C-1.25099 7.5064 -7.73314 13.714 -3.93436 17.7359H-3.93006Z" fill="#F2F2F2"/>
<path d="M34.9635 14.2096C30.6256 19.5091 30.4223 26.5316 34.9635 31.7583C39.5744 27.1535 39.5744 18.8144 34.9635 14.2096Z" fill="#F2F2F2"/>
<path d="M39.5154 32.371C45.282 30.9392 46.914 26.3859 46.1769 20.8589C40.8956 22.8761 38.7054 26.6984 39.5154 32.371Z" fill="#F2F2F2"/>
<path d="M30.4063 32.3776C31.2011 26.3318 29.4417 22.9647 23.7479 20.8625C23.1017 26.4501 25.0856 30.421 30.4063 32.3776Z" fill="#F2F2F2"/>
</g>
<g clip-path="url(#clip1_6027_16694)">
<path d="M74.8846 17.7359C76.0022 14.9882 78.9859 13.1499 81.3067 15.6038L77.4586 17.7402C78.9644 19.8895 81.4311 16.9294 81.74 16.9251C82.1154 16.9186 86.3432 21.4081 87.0081 22.2532C89.4984 25.4214 87.4757 26.0027 87.1583 29.1044C86.8494 32.1074 88.2201 35.3313 90.3222 37.4591C91.5941 35.5866 92.8404 33.5424 93.0956 31.2494C93.353 28.9671 91.5663 25.0697 91.8151 24.1773C92.2205 22.7209 97.021 17.3327 98.5804 17.0989C99.3676 16.9809 100.94 19.0851 102.529 18.388C102.435 16.1787 100.159 16.3824 98.8893 15.1727C101.963 13.5789 104.149 15.0525 105.311 18.1756C107.212 15.5845 106.806 11.7513 103.823 10.2005C97.8876 7.11815 95.4358 17.5879 93.027 20.9662C92.6666 21.4725 91.7958 22.8839 91.1802 22.0366C96.5126 15.4129 95.5367 7.80887 90.3093 1.46183C86.1309 5.90626 84.2261 11.6591 86.5062 17.53C87.51 20.1125 88.8678 23.9414 92.0253 22.886L89.8824 25.0289C89.0352 25.164 83.323 11.9487 81.1265 10.2541C77.5637 7.5064 71.0816 13.714 74.8803 17.7359H74.8846Z" fill="#F2F2F2"/>
<path d="M65.266 14.2096C60.9281 19.5091 60.7248 26.5316 65.266 31.7583C69.8768 27.1535 69.8768 18.8144 65.266 14.2096Z" fill="#F2F2F2"/>
<path d="M113.778 14.2096C109.44 19.5091 109.237 26.5316 113.778 31.7583C118.389 27.1535 118.389 18.8144 113.778 14.2096Z" fill="#F2F2F2"/>
<path d="M69.8179 32.371C75.5845 30.9392 77.2165 26.3859 76.4794 20.8589C71.1981 22.8761 69.0079 26.6984 69.8179 32.371Z" fill="#F2F2F2"/>
<path d="M118.33 32.371C124.097 30.9392 125.729 26.3859 124.992 20.8589C119.71 22.8761 117.52 26.6984 118.33 32.371Z" fill="#F2F2F2"/>
<path d="M60.7088 32.3776C61.5036 26.3318 59.7442 22.9647 54.0503 20.8625C53.4042 26.4501 55.3881 30.421 60.7088 32.3776Z" fill="#F2F2F2"/>
<path d="M109.221 32.3776C110.016 26.3318 108.256 22.9647 102.563 20.8625C101.916 26.4501 103.9 30.421 109.221 32.3776Z" fill="#F2F2F2"/>
</g>
<g clip-path="url(#clip2_6027_16694)">
<path d="M153.699 17.7359C154.817 14.9882 157.801 13.1499 160.121 15.6038L156.273 17.7402C157.779 19.8895 160.246 16.9294 160.555 16.9251C160.93 16.9186 165.158 21.4081 165.823 22.2532C168.313 25.4214 166.29 26.0027 165.973 29.1044C165.664 32.1074 167.035 35.3313 169.137 37.4591C170.409 35.5866 171.655 33.5424 171.91 31.2494C172.168 28.9671 170.381 25.0697 170.63 24.1773C171.035 22.7209 175.836 17.3327 177.395 17.0989C178.182 16.9809 179.755 19.0851 181.344 18.388C181.25 16.1787 178.974 16.3824 177.704 15.1727C180.778 13.5789 182.964 15.0525 184.126 18.1756C186.027 15.5845 185.621 11.7513 182.637 10.2005C176.702 7.11815 174.251 17.5879 171.842 20.9662C171.481 21.4725 170.61 22.8839 169.995 22.0366C175.327 15.4129 174.351 7.80887 169.124 1.46183C164.946 5.90626 163.041 11.6591 165.321 17.53C166.325 20.1125 167.683 23.9414 170.84 22.886L168.697 25.0289C167.85 25.164 162.138 11.9487 159.941 10.2541C156.378 7.5064 149.896 13.714 153.695 17.7359H153.699Z" fill="#F2F2F2"/>
<path d="M144.081 14.2096C139.743 19.5091 139.54 26.5316 144.081 31.7583C148.692 27.1535 148.692 18.8144 144.081 14.2096Z" fill="#F2F2F2"/>
<path d="M192.593 14.2096C188.255 19.5091 188.052 26.5316 192.593 31.7583C197.204 27.1535 197.204 18.8144 192.593 14.2096Z" fill="#F2F2F2"/>
<path d="M148.633 32.371C154.399 30.9392 156.031 26.3859 155.294 20.8589C150.013 22.8761 147.823 26.6984 148.633 32.371Z" fill="#F2F2F2"/>
<path d="M197.145 32.371C202.911 30.9392 204.543 26.3859 203.806 20.8589C198.525 22.8761 196.335 26.6984 197.145 32.371Z" fill="#F2F2F2"/>
<path d="M139.524 32.3776C140.318 26.3318 138.559 22.9647 132.865 20.8625C132.219 26.4501 134.203 30.421 139.524 32.3776Z" fill="#F2F2F2"/>
<path d="M188.036 32.3776C188.83 26.3318 187.071 22.9647 181.377 20.8625C180.731 26.4501 182.715 30.421 188.036 32.3776Z" fill="#F2F2F2"/>
</g>
<g clip-path="url(#clip3_6027_16694)">
<path d="M232.514 17.7359C233.632 14.9882 236.615 13.1499 238.936 15.6038L235.088 17.7402C236.594 19.8895 239.061 16.9294 239.369 16.9251C239.745 16.9186 243.973 21.4081 244.637 22.2532C247.128 25.4214 245.105 26.0027 244.788 29.1044C244.479 32.1074 245.849 35.3313 247.952 37.4591C249.224 35.5866 250.47 33.5424 250.725 31.2494C250.982 28.9671 249.196 25.0697 249.444 24.1773C249.85 22.7209 254.65 17.3327 256.21 17.0989C256.997 16.9809 258.569 19.0851 260.159 18.388C260.064 16.1787 257.789 16.3824 256.519 15.1727C259.592 13.5789 261.778 15.0525 262.941 18.1756C264.841 15.5845 264.436 11.7513 261.452 10.2005C255.517 7.11815 253.065 17.5879 250.656 20.9662C250.296 21.4725 249.425 22.8839 248.81 22.0366C254.142 15.4129 253.166 7.80887 247.939 1.46183C243.76 5.90626 241.855 11.6591 244.136 17.53C245.139 20.1125 246.497 23.9414 249.655 22.886L247.512 25.0289C246.665 25.164 240.952 11.9487 238.756 10.2541C235.193 7.5064 228.711 13.714 232.51 17.7359H232.514Z" fill="#F2F2F2"/>
<path d="M222.896 14.2096C218.558 19.5091 218.354 26.5316 222.896 31.7583C227.506 27.1535 227.506 18.8144 222.896 14.2096Z" fill="#F2F2F2"/>
<path d="M271.408 14.2096C267.07 19.5091 266.867 26.5316 271.408 31.7583C276.019 27.1535 276.019 18.8144 271.408 14.2096Z" fill="#F2F2F2"/>
<path d="M227.447 32.371C233.214 30.9392 234.846 26.3859 234.109 20.8589C228.828 22.8761 226.638 26.6984 227.447 32.371Z" fill="#F2F2F2"/>
<path d="M275.959 32.371C281.726 30.9392 283.358 26.3859 282.621 20.8589C277.34 22.8761 275.15 26.6984 275.959 32.371Z" fill="#F2F2F2"/>
<path d="M218.338 32.3776C219.133 26.3318 217.374 22.9647 211.68 20.8625C211.034 26.4501 213.018 30.421 218.338 32.3776Z" fill="#F2F2F2"/>
<path d="M266.85 32.3776C267.645 26.3318 265.886 22.9647 260.192 20.8625C259.546 26.4501 261.53 30.421 266.85 32.3776Z" fill="#F2F2F2"/>
</g>
<g clip-path="url(#clip4_6027_16694)">
<path d="M311.329 17.7359C312.447 14.9882 315.43 13.1499 317.751 15.6038L313.903 17.7402C315.409 19.8895 317.875 16.9294 318.184 16.9251C318.56 16.9186 322.787 21.4081 323.452 22.2532C325.943 25.4214 323.92 26.0027 323.603 29.1044C323.294 32.1074 324.664 35.3313 326.767 37.4591C328.038 35.5866 329.285 33.5424 329.54 31.2494C329.797 28.9671 328.011 25.0697 328.259 24.1773C328.665 22.7209 333.465 17.3327 335.025 17.0989C335.812 16.9809 337.384 19.0851 338.974 18.388C338.879 16.1787 336.603 16.3824 335.334 15.1727C338.407 13.5789 340.593 15.0525 341.756 18.1756C343.656 15.5845 343.251 11.7513 340.267 10.2005C334.332 7.11815 331.88 17.5879 329.471 20.9662C329.111 21.4725 328.24 22.8839 327.624 22.0366C332.957 15.4129 331.981 7.80887 326.754 1.46183C322.575 5.90626 320.67 11.6591 322.951 17.53C323.954 20.1125 325.312 23.9414 328.47 22.886L326.327 25.0289C325.479 25.164 319.767 11.9487 317.571 10.2541C314.008 7.5064 307.526 13.714 311.325 17.7359H311.329Z" fill="#F2F2F2"/>
<path d="M301.71 14.2096C297.372 19.5091 297.169 26.5316 301.71 31.7583C306.321 27.1535 306.321 18.8144 301.71 14.2096Z" fill="#F2F2F2"/>
<path d="M350.222 14.2096C345.885 19.5091 345.681 26.5316 350.222 31.7583C354.833 27.1535 354.833 18.8144 350.222 14.2096Z" fill="#F2F2F2"/>
<path d="M306.262 32.371C312.029 30.9392 313.661 26.3859 312.924 20.8589C307.642 22.8761 305.452 26.6984 306.262 32.371Z" fill="#F2F2F2"/>
<path d="M354.774 32.371C360.541 30.9392 362.173 26.3859 361.436 20.8589C356.155 22.8761 353.964 26.6984 354.774 32.371Z" fill="#F2F2F2"/>
<path d="M297.153 32.3776C297.948 26.3318 296.189 22.9647 290.495 20.8625C289.849 26.4501 291.832 30.421 297.153 32.3776Z" fill="#F2F2F2"/>
<path d="M345.665 32.3776C346.46 26.3318 344.701 22.9647 339.007 20.8625C338.361 26.4501 340.345 30.421 345.665 32.3776Z" fill="#F2F2F2"/>
</g>
<g clip-path="url(#clip5_6027_16694)">
<path d="M390.144 17.7359C391.261 14.9882 394.245 13.1499 396.566 15.6038L392.718 17.7402C394.224 19.8895 396.69 16.9294 396.999 16.9251C397.375 16.9186 401.602 21.4081 402.267 22.2532C404.758 25.4214 402.735 26.0027 402.418 29.1044C402.109 32.1074 403.479 35.3313 405.581 37.4591C406.853 35.5866 408.1 33.5424 408.355 31.2494C408.612 28.9671 406.826 25.0697 407.074 24.1773C407.48 22.7209 412.28 17.3327 413.84 17.0989C414.627 16.9809 416.199 19.0851 417.789 18.388C417.694 16.1787 415.418 16.3824 414.149 15.1727C417.222 13.5789 419.408 15.0525 420.571 18.1756C422.471 15.5845 422.066 11.7513 419.082 10.2005C413.147 7.11815 410.695 17.5879 408.286 20.9662C407.926 21.4725 407.055 22.8839 406.439 22.0366C411.772 15.4129 410.796 7.80887 405.569 1.46183C401.39 5.90626 399.485 11.6591 401.765 17.53C402.769 20.1125 404.127 23.9414 407.285 22.886L405.142 25.0289C404.294 25.164 398.582 11.9487 396.386 10.2541C392.823 7.5064 386.341 13.714 390.14 17.7359H390.144Z" fill="#F2F2F2"/>
<path d="M380.525 14.2096C376.188 19.5091 375.984 26.5316 380.525 31.7583C385.136 27.1535 385.136 18.8144 380.525 14.2096Z" fill="#F2F2F2"/>
<path d="M429.037 14.2096C424.7 19.5091 424.496 26.5316 429.037 31.7583C433.648 27.1535 433.648 18.8144 429.037 14.2096Z" fill="#F2F2F2"/>
<path d="M385.077 32.371C390.844 30.9392 392.476 26.3859 391.739 20.8589C386.458 22.8761 384.267 26.6984 385.077 32.371Z" fill="#F2F2F2"/>
<path d="M433.589 32.371C439.356 30.9392 440.988 26.3859 440.251 20.8589C434.97 22.8761 432.779 26.6984 433.589 32.371Z" fill="#F2F2F2"/>
<path d="M375.968 32.3776C376.763 26.3318 375.004 22.9647 369.31 20.8625C368.664 26.4501 370.648 30.421 375.968 32.3776Z" fill="#F2F2F2"/>
<path d="M424.48 32.3776C425.275 26.3318 423.516 22.9647 417.822 20.8625C417.176 26.4501 419.16 30.421 424.48 32.3776Z" fill="#F2F2F2"/>
</g>
<g clip-path="url(#clip6_6027_16694)">
<path d="M468.959 17.7359C470.076 14.9882 473.06 13.1499 475.381 15.6038L471.533 17.7402C473.038 19.8895 475.505 16.9294 475.814 16.9251C476.189 16.9186 480.417 21.4081 481.082 22.2532C483.572 25.4214 481.55 26.0027 481.232 29.1044C480.923 32.1074 482.294 35.3313 484.396 37.4591C485.668 35.5866 486.914 33.5424 487.17 31.2494C487.427 28.9671 485.64 25.0697 485.889 24.1773C486.294 22.7209 491.095 17.3327 492.654 17.0989C493.442 16.9809 495.014 19.0851 496.603 18.388C496.509 16.1787 494.233 16.3824 492.963 15.1727C496.037 13.5789 498.223 15.0525 499.385 18.1756C501.286 15.5845 500.88 11.7513 497.897 10.2005C491.962 7.11815 489.51 17.5879 487.101 20.9662C486.741 21.4725 485.87 22.8839 485.254 22.0366C490.587 15.4129 489.611 7.80887 484.383 1.46183C480.205 5.90626 478.3 11.6591 480.58 17.53C481.584 20.1125 482.942 23.9414 486.099 22.886L483.956 25.0289C483.109 25.164 477.397 11.9487 475.201 10.2541C471.638 7.5064 465.156 13.714 468.954 17.7359H468.959Z" fill="#F2F2F2"/>
<path d="M459.34 14.2096C455.002 19.5091 454.799 26.5316 459.34 31.7583C463.951 27.1535 463.951 18.8144 459.34 14.2096Z" fill="#F2F2F2"/>
<path d="M507.852 14.2096C503.514 19.5091 503.311 26.5316 507.852 31.7583C512.463 27.1535 512.463 18.8144 507.852 14.2096Z" fill="#F2F2F2"/>
<path d="M463.892 32.371C469.658 30.9392 471.29 26.3859 470.553 20.8589C465.272 22.8761 463.082 26.6984 463.892 32.371Z" fill="#F2F2F2"/>
<path d="M512.404 32.371C518.171 30.9392 519.803 26.3859 519.066 20.8589C513.784 22.8761 511.594 26.6984 512.404 32.371Z" fill="#F2F2F2"/>
<path d="M454.783 32.3776C455.578 26.3318 453.818 22.9647 448.124 20.8625C447.478 26.4501 449.462 30.421 454.783 32.3776Z" fill="#F2F2F2"/>
<path d="M503.295 32.3776C504.09 26.3318 502.33 22.9647 496.637 20.8625C495.99 26.4501 497.974 30.421 503.295 32.3776Z" fill="#F2F2F2"/>
</g>
<g clip-path="url(#clip7_6027_16694)">
<path d="M547.773 17.7359C548.891 14.9882 551.875 13.1499 554.195 15.6038L550.347 17.7402C551.853 19.8895 554.32 16.9294 554.629 16.9251C555.004 16.9186 559.232 21.4081 559.897 22.2532C562.387 25.4214 560.364 26.0027 560.047 29.1044C559.738 32.1074 561.109 35.3313 563.211 37.4591C564.483 35.5866 565.729 33.5424 565.984 31.2494C566.242 28.9671 564.455 25.0697 564.704 24.1773C565.109 22.7209 569.91 17.3327 571.469 17.0989C572.256 16.9809 573.829 19.0851 575.418 18.388C575.324 16.1787 573.048 16.3824 571.778 15.1727C574.852 13.5789 577.037 15.0525 578.2 18.1756C580.101 15.5845 579.695 11.7513 576.711 10.2005C570.776 7.11815 568.324 17.5879 565.916 20.9662C565.555 21.4725 564.684 22.8839 564.069 22.0366C569.401 15.4129 568.425 7.80887 563.198 1.46183C559.02 5.90626 557.115 11.6591 559.395 17.53C560.399 20.1125 561.757 23.9414 564.914 22.886L562.771 25.0289C561.924 25.164 556.212 11.9487 554.015 10.2541C550.452 7.5064 543.97 13.714 547.769 17.7359H547.773Z" fill="#F2F2F2"/>
<path d="M538.155 14.2096C533.817 19.5091 533.614 26.5316 538.155 31.7583C542.766 27.1535 542.766 18.8144 538.155 14.2096Z" fill="#F2F2F2"/>
<path d="M586.667 14.2096C582.329 19.5091 582.126 26.5316 586.667 31.7583C591.278 27.1535 591.278 18.8144 586.667 14.2096Z" fill="#F2F2F2"/>
<path d="M542.707 32.371C548.473 30.9392 550.105 26.3859 549.368 20.8589C544.087 22.8761 541.897 26.6984 542.707 32.371Z" fill="#F2F2F2"/>
<path d="M591.219 32.371C596.985 30.9392 598.617 26.3859 597.88 20.8589C592.599 22.8761 590.409 26.6984 591.219 32.371Z" fill="#F2F2F2"/>
<path d="M533.598 32.3776C534.393 26.3318 532.633 22.9647 526.939 20.8625C526.293 26.4501 528.277 30.421 533.598 32.3776Z" fill="#F2F2F2"/>
<path d="M582.11 32.3776C582.904 26.3318 581.145 22.9647 575.451 20.8625C574.805 26.4501 576.789 30.421 582.11 32.3776Z" fill="#F2F2F2"/>
</g>
<g clip-path="url(#clip8_6027_16694)">
<path d="M626.589 17.7359C627.706 14.9882 630.69 13.1499 633.011 15.6038L629.163 17.7402C630.669 19.8895 633.135 16.9294 633.444 16.9251C633.819 16.9186 638.047 21.4081 638.712 22.2532C641.203 25.4214 639.18 26.0027 638.862 29.1044C638.553 32.1074 639.924 35.3313 642.026 37.4591C643.298 35.5866 644.544 33.5424 644.8 31.2494C645.057 28.9671 643.27 25.0697 643.519 24.1773C643.925 22.7209 648.725 17.3327 650.285 17.0989C651.072 16.9809 652.644 19.0851 654.233 18.388C654.139 16.1787 651.863 16.3824 650.593 15.1727C653.667 13.5789 655.853 15.0525 657.016 18.1756C658.916 15.5845 658.511 11.7513 655.527 10.2005C649.592 7.11815 647.14 17.5879 644.731 20.9662C644.371 21.4725 643.5 22.8839 642.884 22.0366C648.217 15.4129 647.241 7.80887 642.013 1.46183C637.835 5.90626 635.93 11.6591 638.21 17.53C639.214 20.1125 640.572 23.9414 643.729 22.886L641.587 25.0289C640.739 25.164 635.027 11.9487 632.831 10.2541C629.268 7.5064 622.786 13.714 626.584 17.7359H626.589Z" fill="#F2F2F2"/>
<path d="M616.97 14.2096C612.632 19.5091 612.429 26.5316 616.97 31.7583C621.581 27.1535 621.581 18.8144 616.97 14.2096Z" fill="#F2F2F2"/>
<path d="M665.482 14.2096C661.144 19.5091 660.941 26.5316 665.482 31.7583C670.093 27.1535 670.093 18.8144 665.482 14.2096Z" fill="#F2F2F2"/>
<path d="M621.522 32.371C627.289 30.9392 628.921 26.3859 628.183 20.8589C622.902 22.8761 620.712 26.6984 621.522 32.371Z" fill="#F2F2F2"/>
<path d="M670.034 32.371C675.801 30.9392 677.433 26.3859 676.696 20.8589C671.414 22.8761 669.224 26.6984 670.034 32.371Z" fill="#F2F2F2"/>
<path d="M612.413 32.3776C613.208 26.3318 611.448 22.9647 605.754 20.8625C605.108 26.4501 607.092 30.421 612.413 32.3776Z" fill="#F2F2F2"/>
<path d="M660.925 32.3776C661.72 26.3318 659.96 22.9647 654.267 20.8625C653.621 26.4501 655.604 30.421 660.925 32.3776Z" fill="#F2F2F2"/>
</g>
<g clip-path="url(#clip9_6027_16694)">
<path d="M705.403 17.7359C706.521 14.9882 709.504 13.1499 711.825 15.6038L707.977 17.7402C709.483 19.8895 711.95 16.9294 712.259 16.9251C712.634 16.9186 716.862 21.4081 717.527 22.2532C720.017 25.4214 717.994 26.0027 717.677 29.1044C717.368 32.1074 718.739 35.3313 720.841 37.4591C722.113 35.5866 723.359 33.5424 723.614 31.2494C723.872 28.9671 722.085 25.0697 722.334 24.1773C722.739 22.7209 727.54 17.3327 729.099 17.0989C729.886 16.9809 731.458 19.0851 733.048 18.388C732.953 16.1787 730.678 16.3824 729.408 15.1727C732.482 13.5789 734.667 15.0525 735.83 18.1756C737.73 15.5845 737.325 11.7513 734.341 10.2005C728.406 7.11815 725.954 17.5879 723.546 20.9662C723.185 21.4725 722.314 22.8839 721.699 22.0366C727.031 15.4129 726.055 7.80887 720.828 1.46183C716.649 5.90626 714.745 11.6591 717.025 17.53C718.029 20.1125 719.386 23.9414 722.544 22.886L720.401 25.0289C719.554 25.164 713.842 11.9487 711.645 10.2541C708.082 7.5064 701.6 13.714 705.399 17.7359H705.403Z" fill="#F2F2F2"/>
<path d="M695.785 14.2096C691.447 19.5091 691.244 26.5316 695.785 31.7583C700.396 27.1535 700.396 18.8144 695.785 14.2096Z" fill="#F2F2F2"/>
<path d="M744.297 14.2096C739.959 19.5091 739.756 26.5316 744.297 31.7583C748.908 27.1535 748.908 18.8144 744.297 14.2096Z" fill="#F2F2F2"/>
<path d="M700.337 32.371C706.103 30.9392 707.735 26.3859 706.998 20.8589C701.717 22.8761 699.527 26.6984 700.337 32.371Z" fill="#F2F2F2"/>
<path d="M748.849 32.371C754.615 30.9392 756.247 26.3859 755.51 20.8589C750.229 22.8761 748.039 26.6984 748.849 32.371Z" fill="#F2F2F2"/>
<path d="M691.228 32.3776C692.022 26.3318 690.263 22.9647 684.569 20.8625C683.923 26.4501 685.907 30.421 691.228 32.3776Z" fill="#F2F2F2"/>
<path d="M739.74 32.3776C740.534 26.3318 738.775 22.9647 733.081 20.8625C732.435 26.4501 734.419 30.421 739.74 32.3776Z" fill="#F2F2F2"/>
</g>
<g clip-path="url(#clip10_6027_16694)">
<path d="M784.218 17.7359C785.335 14.9882 788.319 13.1499 790.64 15.6038L786.792 17.7402C788.298 19.8895 790.764 16.9294 791.073 16.9251C791.449 16.9186 795.676 21.4081 796.341 22.2532C798.832 25.4214 796.809 26.0027 796.492 29.1044C796.183 32.1074 797.553 35.3313 799.655 37.4591C800.927 35.5866 802.174 33.5424 802.429 31.2494C802.686 28.9671 800.9 25.0697 801.148 24.1773C801.554 22.7209 806.354 17.3327 807.914 17.0989C808.701 16.9809 810.273 19.0851 811.863 18.388C811.768 16.1787 809.492 16.3824 808.223 15.1727C811.296 13.5789 813.482 15.0525 814.645 18.1756C816.545 15.5845 816.14 11.7513 813.156 10.2005C807.221 7.11815 804.769 17.5879 802.36 20.9662C802 21.4725 801.129 22.8839 800.513 22.0366C805.846 15.4129 804.87 7.80887 799.643 1.46183C795.464 5.90626 793.559 11.6591 795.839 17.53C796.843 20.1125 798.201 23.9414 801.359 22.886L799.216 25.0289C798.368 25.164 792.656 11.9487 790.46 10.2541C786.897 7.5064 780.415 13.714 784.214 17.7359H784.218Z" fill="#F2F2F2"/>
<path d="M774.599 14.2096C770.261 19.5091 770.058 26.5316 774.599 31.7583C779.21 27.1535 779.21 18.8144 774.599 14.2096Z" fill="#F2F2F2"/>
<path d="M823.111 14.2096C818.774 19.5091 818.57 26.5316 823.111 31.7583C827.722 27.1535 827.722 18.8144 823.111 14.2096Z" fill="#F2F2F2"/>
<path d="M779.151 32.371C784.918 30.9392 786.55 26.3859 785.813 20.8589C780.531 22.8761 778.341 26.6984 779.151 32.371Z" fill="#F2F2F2"/>
<path d="M827.663 32.371C833.43 30.9392 835.062 26.3859 834.325 20.8589C829.044 22.8761 826.853 26.6984 827.663 32.371Z" fill="#F2F2F2"/>
<path d="M770.042 32.3776C770.837 26.3318 769.077 22.9647 763.384 20.8625C762.737 26.4501 764.721 30.421 770.042 32.3776Z" fill="#F2F2F2"/>
<path d="M818.554 32.3776C819.349 26.3318 817.59 22.9647 811.896 20.8625C811.25 26.4501 813.234 30.421 818.554 32.3776Z" fill="#F2F2F2"/>
</g>
<g clip-path="url(#clip11_6027_16694)">
<path d="M863.033 17.7359C864.15 14.9882 867.134 13.1499 869.455 15.6038L865.607 17.7402C867.112 19.8895 869.579 16.9294 869.888 16.9251C870.263 16.9186 874.491 21.4081 875.156 22.2532C877.646 25.4214 875.624 26.0027 875.306 29.1044C874.997 32.1074 876.368 35.3313 878.47 37.4591C879.742 35.5866 880.988 33.5424 881.244 31.2494C881.501 28.9671 879.714 25.0697 879.963 24.1773C880.368 22.7209 885.169 17.3327 886.728 17.0989C887.516 16.9809 889.088 19.0851 890.677 18.388C890.583 16.1787 888.307 16.3824 887.037 15.1727C890.111 13.5789 892.297 15.0525 893.459 18.1756C895.36 15.5845 894.954 11.7513 891.971 10.2005C886.036 7.11815 883.584 17.5879 881.175 20.9662C880.815 21.4725 879.944 22.8839 879.328 22.0366C884.661 15.4129 883.685 7.80887 878.457 1.46183C874.279 5.90626 872.374 11.6591 874.654 17.53C875.658 20.1125 877.016 23.9414 880.173 22.886L878.03 25.0289C877.183 25.164 871.471 11.9487 869.274 10.2541C865.712 7.5064 859.23 13.714 863.028 17.7359H863.033Z" fill="#F2F2F2"/>
<path d="M853.414 14.2096C849.076 19.5091 848.873 26.5316 853.414 31.7583C858.025 27.1535 858.025 18.8144 853.414 14.2096Z" fill="#F2F2F2"/>
<path d="M901.926 14.2096C897.588 19.5091 897.385 26.5316 901.926 31.7583C906.537 27.1535 906.537 18.8144 901.926 14.2096Z" fill="#F2F2F2"/>
<path d="M857.966 32.371C863.732 30.9392 865.364 26.3859 864.627 20.8589C859.346 22.8761 857.156 26.6984 857.966 32.371Z" fill="#F2F2F2"/>
<path d="M906.478 32.371C912.245 30.9392 913.877 26.3859 913.14 20.8589C907.858 22.8761 905.668 26.6984 906.478 32.371Z" fill="#F2F2F2"/>
<path d="M848.857 32.3776C849.652 26.3318 847.892 22.9647 842.199 20.8625C841.552 26.4501 843.536 30.421 848.857 32.3776Z" fill="#F2F2F2"/>
<path d="M897.369 32.3776C898.164 26.3318 896.404 22.9647 890.71 20.8625C890.064 26.4501 892.048 30.421 897.369 32.3776Z" fill="#F2F2F2"/>
</g>
<g clip-path="url(#clip12_6027_16694)">
<path d="M941.848 17.7359C942.965 14.9882 945.949 13.1499 948.27 15.6038L944.422 17.7402C945.927 19.8895 948.394 16.9294 948.703 16.9251C949.078 16.9186 953.306 21.4081 953.971 22.2532C956.461 25.4214 954.439 26.0027 954.121 29.1044C953.812 32.1074 955.183 35.3313 957.285 37.4591C958.557 35.5866 959.803 33.5424 960.059 31.2494C960.316 28.9671 958.529 25.0697 958.778 24.1773C959.183 22.7209 963.984 17.3327 965.543 17.0989C966.331 16.9809 967.903 19.0851 969.492 18.388C969.398 16.1787 967.122 16.3824 965.852 15.1727C968.926 13.5789 971.112 15.0525 972.274 18.1756C974.175 15.5845 973.769 11.7513 970.786 10.2005C964.85 7.11815 962.399 17.5879 959.99 20.9662C959.63 21.4725 958.759 22.8839 958.143 22.0366C963.476 15.4129 962.5 7.80887 957.272 1.46183C953.094 5.90626 951.189 11.6591 953.469 17.53C954.473 20.1125 955.831 23.9414 958.988 22.886L956.845 25.0289C955.998 25.164 950.286 11.9487 948.089 10.2541C944.527 7.5064 938.044 13.714 941.843 17.7359H941.848Z" fill="#F2F2F2"/>
<path d="M932.229 14.2096C927.891 19.5091 927.688 26.5316 932.229 31.7583C936.84 27.1535 936.84 18.8144 932.229 14.2096Z" fill="#F2F2F2"/>
<path d="M980.741 14.2096C976.403 19.5091 976.2 26.5316 980.741 31.7583C985.352 27.1535 985.352 18.8144 980.741 14.2096Z" fill="#F2F2F2"/>
<path d="M936.781 32.371C942.547 30.9392 944.179 26.3859 943.442 20.8589C938.161 22.8761 935.971 26.6984 936.781 32.371Z" fill="#F2F2F2"/>
<path d="M985.293 32.371C991.059 30.9392 992.691 26.3859 991.954 20.8589C986.673 22.8761 984.483 26.6984 985.293 32.371Z" fill="#F2F2F2"/>
<path d="M927.672 32.3776C928.466 26.3318 926.707 22.9647 921.013 20.8625C920.367 26.4501 922.351 30.421 927.672 32.3776Z" fill="#F2F2F2"/>
<path d="M976.184 32.3776C976.979 26.3318 975.219 22.9647 969.525 20.8625C968.879 26.4501 970.863 30.421 976.184 32.3776Z" fill="#F2F2F2"/>
</g>
<g clip-path="url(#clip13_6027_16694)">
<path d="M1020.66 17.7359C1021.78 14.9882 1024.76 13.1499 1027.08 15.6038L1023.24 17.7402C1024.74 19.8895 1027.21 16.9294 1027.52 16.9251C1027.89 16.9186 1032.12 21.4081 1032.79 22.2532C1035.28 25.4214 1033.25 26.0027 1032.94 29.1044C1032.63 32.1074 1034 35.3313 1036.1 37.4591C1037.37 35.5866 1038.62 33.5424 1038.87 31.2494C1039.13 28.9671 1037.34 25.0697 1037.59 24.1773C1038 22.7209 1042.8 17.3327 1044.36 17.0989C1045.15 16.9809 1046.72 19.0851 1048.31 18.388C1048.21 16.1787 1045.94 16.3824 1044.67 15.1727C1047.74 13.5789 1049.93 15.0525 1051.09 18.1756C1052.99 15.5845 1052.58 11.7513 1049.6 10.2005C1043.67 7.11815 1041.21 17.5879 1038.8 20.9662C1038.44 21.4725 1037.57 22.8839 1036.96 22.0366C1042.29 15.4129 1041.31 7.80887 1036.09 1.46183C1031.91 5.90626 1030 11.6591 1032.28 17.53C1033.29 20.1125 1034.65 23.9414 1037.8 22.886L1035.66 25.0289C1034.81 25.164 1029.1 11.9487 1026.9 10.2541C1023.34 7.5064 1016.86 13.714 1020.66 17.7359H1020.66Z" fill="#F2F2F2"/>
<path d="M1011.04 14.2096C1006.71 19.5091 1006.5 26.5316 1011.04 31.7583C1015.65 27.1535 1015.65 18.8144 1011.04 14.2096Z" fill="#F2F2F2"/>
<path d="M1059.56 14.2096C1055.22 19.5091 1055.01 26.5316 1059.56 31.7583C1064.17 27.1535 1064.17 18.8144 1059.56 14.2096Z" fill="#F2F2F2"/>
<path d="M1015.6 32.371C1021.36 30.9392 1022.99 26.3859 1022.26 20.8589C1016.98 22.8761 1014.79 26.6984 1015.6 32.371Z" fill="#F2F2F2"/>
<path d="M1064.11 32.371C1069.87 30.9392 1071.51 26.3859 1070.77 20.8589C1065.49 22.8761 1063.3 26.6984 1064.11 32.371Z" fill="#F2F2F2"/>
<path d="M1006.49 32.3776C1007.28 26.3318 1005.52 22.9647 999.828 20.8625C999.182 26.4501 1001.17 30.421 1006.49 32.3776Z" fill="#F2F2F2"/>
<path d="M1055 32.3776C1055.79 26.3318 1054.03 22.9647 1048.34 20.8625C1047.69 26.4501 1049.68 30.421 1055 32.3776Z" fill="#F2F2F2"/>
</g>
<g clip-path="url(#clip14_6027_16694)">
<path d="M1099.48 17.7359C1100.59 14.9882 1103.58 13.1499 1105.9 15.6038L1102.05 17.7402C1103.56 19.8895 1106.02 16.9294 1106.33 16.9251C1106.71 16.9186 1110.94 21.4081 1111.6 22.2532C1114.09 25.4214 1112.07 26.0027 1111.75 29.1044C1111.44 32.1074 1112.81 35.3313 1114.91 37.4591C1116.19 35.5866 1117.43 33.5424 1117.69 31.2494C1117.95 28.9671 1116.16 25.0697 1116.41 24.1773C1116.81 22.7209 1121.61 17.3327 1123.17 17.0989C1123.96 16.9809 1125.53 19.0851 1127.12 18.388C1127.03 16.1787 1124.75 16.3824 1123.48 15.1727C1126.56 13.5789 1128.74 15.0525 1129.9 18.1756C1131.8 15.5845 1131.4 11.7513 1128.42 10.2005C1122.48 7.11815 1120.03 17.5879 1117.62 20.9662C1117.26 21.4725 1116.39 22.8839 1115.77 22.0366C1121.11 15.4129 1120.13 7.80887 1114.9 1.46183C1110.72 5.90626 1108.82 11.6591 1111.1 17.53C1112.1 20.1125 1113.46 23.9414 1116.62 22.886L1114.47 25.0289C1113.63 25.164 1107.92 11.9487 1105.72 10.2541C1102.16 7.5064 1095.67 13.714 1099.47 17.7359H1099.48Z" fill="#F2F2F2"/>
<path d="M1089.86 14.2096C1085.52 19.5091 1085.32 26.5316 1089.86 31.7583C1094.47 27.1535 1094.47 18.8144 1089.86 14.2096Z" fill="#F2F2F2"/>
<path d="M1138.37 14.2096C1134.03 19.5091 1133.83 26.5316 1138.37 31.7583C1142.98 27.1535 1142.98 18.8144 1138.37 14.2096Z" fill="#F2F2F2"/>
<path d="M1094.41 32.371C1100.18 30.9392 1101.81 26.3859 1101.07 20.8589C1095.79 22.8761 1093.6 26.6984 1094.41 32.371Z" fill="#F2F2F2"/>
<path d="M1142.92 32.371C1148.69 30.9392 1150.32 26.3859 1149.58 20.8589C1144.3 22.8761 1142.11 26.6984 1142.92 32.371Z" fill="#F2F2F2"/>
<path d="M1085.3 32.3776C1086.1 26.3318 1084.34 22.9647 1078.64 20.8625C1078 26.4501 1079.98 30.421 1085.3 32.3776Z" fill="#F2F2F2"/>
<path d="M1133.81 32.3776C1134.61 26.3318 1132.85 22.9647 1127.16 20.8625C1126.51 26.4501 1128.49 30.421 1133.81 32.3776Z" fill="#F2F2F2"/>
</g>
<g clip-path="url(#clip15_6027_16694)">
<path d="M1178.29 17.7359C1179.41 14.9882 1182.39 13.1499 1184.71 15.6038L1180.87 17.7402C1182.37 19.8895 1184.84 16.9294 1185.15 16.9251C1185.52 16.9186 1189.75 21.4081 1190.42 22.2532C1192.91 25.4214 1190.88 26.0027 1190.57 29.1044C1190.26 32.1074 1191.63 35.3313 1193.73 37.4591C1195 35.5866 1196.25 33.5424 1196.5 31.2494C1196.76 28.9671 1194.97 25.0697 1195.22 24.1773C1195.63 22.7209 1200.43 17.3327 1201.99 17.0989C1202.78 16.9809 1204.35 19.0851 1205.94 18.388C1205.84 16.1787 1203.57 16.3824 1202.3 15.1727C1205.37 13.5789 1207.56 15.0525 1208.72 18.1756C1210.62 15.5845 1210.21 11.7513 1207.23 10.2005C1201.3 7.11815 1198.84 17.5879 1196.43 20.9662C1196.07 21.4725 1195.2 22.8839 1194.59 22.0366C1199.92 15.4129 1198.94 7.80887 1193.72 1.46183C1189.54 5.90626 1187.63 11.6591 1189.91 17.53C1190.92 20.1125 1192.28 23.9414 1195.43 22.886L1193.29 25.0289C1192.44 25.164 1186.73 11.9487 1184.53 10.2541C1180.97 7.5064 1174.49 13.714 1178.29 17.7359H1178.29Z" fill="#F2F2F2"/>
<path d="M1168.67 14.2096C1164.34 19.5091 1164.13 26.5316 1168.67 31.7583C1173.28 27.1535 1173.28 18.8144 1168.67 14.2096Z" fill="#F2F2F2"/>
<path d="M1217.19 14.2096C1212.85 19.5091 1212.64 26.5316 1217.19 31.7583C1221.8 27.1535 1221.8 18.8144 1217.19 14.2096Z" fill="#F2F2F2"/>
<path d="M1173.23 32.371C1178.99 30.9392 1180.62 26.3859 1179.89 20.8589C1174.61 22.8761 1172.42 26.6984 1173.23 32.371Z" fill="#F2F2F2"/>
<path d="M1221.74 32.371C1227.5 30.9392 1229.14 26.3859 1228.4 20.8589C1223.12 22.8761 1220.93 26.6984 1221.74 32.371Z" fill="#F2F2F2"/>
<path d="M1164.12 32.3776C1164.91 26.3318 1163.15 22.9647 1157.46 20.8625C1156.81 26.4501 1158.8 30.421 1164.12 32.3776Z" fill="#F2F2F2"/>
<path d="M1212.63 32.3776C1213.42 26.3318 1211.66 22.9647 1205.97 20.8625C1205.32 26.4501 1207.31 30.421 1212.63 32.3776Z" fill="#F2F2F2"/>
</g>
<g clip-path="url(#clip16_6027_16694)">
<path d="M1257.11 17.7359C1258.22 14.9882 1261.21 13.1499 1263.53 15.6038L1259.68 17.7402C1261.19 19.8895 1263.65 16.9294 1263.96 16.9251C1264.34 16.9186 1268.57 21.4081 1269.23 22.2532C1271.72 25.4214 1269.7 26.0027 1269.38 29.1044C1269.07 32.1074 1270.44 35.3313 1272.54 37.4591C1273.82 35.5866 1275.06 33.5424 1275.32 31.2494C1275.58 28.9671 1273.79 25.0697 1274.04 24.1773C1274.44 22.7209 1279.24 17.3327 1280.8 17.0989C1281.59 16.9809 1283.16 19.0851 1284.75 18.388C1284.66 16.1787 1282.38 16.3824 1281.11 15.1727C1284.19 13.5789 1286.37 15.0525 1287.53 18.1756C1289.43 15.5845 1289.03 11.7513 1286.04 10.2005C1280.11 7.11815 1277.66 17.5879 1275.25 20.9662C1274.89 21.4725 1274.02 22.8839 1273.4 22.0366C1278.73 15.4129 1277.76 7.80887 1272.53 1.46183C1268.35 5.90626 1266.45 11.6591 1268.73 17.53C1269.73 20.1125 1271.09 23.9414 1274.25 22.886L1272.1 25.0289C1271.26 25.164 1265.55 11.9487 1263.35 10.2541C1259.79 7.5064 1253.3 13.714 1257.1 17.7359H1257.11Z" fill="#F2F2F2"/>
<path d="M1247.49 14.2096C1243.15 19.5091 1242.95 26.5316 1247.49 31.7583C1252.1 27.1535 1252.1 18.8144 1247.49 14.2096Z" fill="#F2F2F2"/>
<path d="M1296 14.2096C1291.66 19.5091 1291.46 26.5316 1296 31.7583C1300.61 27.1535 1300.61 18.8144 1296 14.2096Z" fill="#F2F2F2"/>
<path d="M1252.04 32.371C1257.81 30.9392 1259.44 26.3859 1258.7 20.8589C1253.42 22.8761 1251.23 26.6984 1252.04 32.371Z" fill="#F2F2F2"/>
<path d="M1300.55 32.371C1306.32 30.9392 1307.95 26.3859 1307.21 20.8589C1301.93 22.8761 1299.74 26.6984 1300.55 32.371Z" fill="#F2F2F2"/>
<path d="M1242.93 32.3776C1243.73 26.3318 1241.97 22.9647 1236.27 20.8625C1235.63 26.4501 1237.61 30.421 1242.93 32.3776Z" fill="#F2F2F2"/>
<path d="M1291.44 32.3776C1292.24 26.3318 1290.48 22.9647 1284.78 20.8625C1284.14 26.4501 1286.12 30.421 1291.44 32.3776Z" fill="#F2F2F2"/>
</g>
<g clip-path="url(#clip17_6027_16694)">
<path d="M1335.92 17.7359C1337.04 14.9882 1340.02 13.1499 1342.34 15.6038L1338.5 17.7402C1340 19.8895 1342.47 16.9294 1342.78 16.9251C1343.15 16.9186 1347.38 21.4081 1348.04 22.2532C1350.54 25.4214 1348.51 26.0027 1348.2 29.1044C1347.89 32.1074 1349.26 35.3313 1351.36 37.4591C1352.63 35.5866 1353.88 33.5424 1354.13 31.2494C1354.39 28.9671 1352.6 25.0697 1352.85 24.1773C1353.26 22.7209 1358.06 17.3327 1359.62 17.0989C1360.4 16.9809 1361.98 19.0851 1363.57 18.388C1363.47 16.1787 1361.2 16.3824 1359.93 15.1727C1363 13.5789 1365.19 15.0525 1366.35 18.1756C1368.25 15.5845 1367.84 11.7513 1364.86 10.2005C1358.92 7.11815 1356.47 17.5879 1354.06 20.9662C1353.7 21.4725 1352.83 22.8839 1352.22 22.0366C1357.55 15.4129 1356.57 7.80887 1351.35 1.46183C1347.17 5.90626 1345.26 11.6591 1347.54 17.53C1348.55 20.1125 1349.9 23.9414 1353.06 22.886L1350.92 25.0289C1350.07 25.164 1344.36 11.9487 1342.16 10.2541C1338.6 7.5064 1332.12 13.714 1335.92 17.7359H1335.92Z" fill="#F2F2F2"/>
<path d="M1326.3 14.2096C1321.97 19.5091 1321.76 26.5316 1326.3 31.7583C1330.91 27.1535 1330.91 18.8144 1326.3 14.2096Z" fill="#F2F2F2"/>
<path d="M1374.82 14.2096C1370.48 19.5091 1370.27 26.5316 1374.82 31.7583C1379.43 27.1535 1379.43 18.8144 1374.82 14.2096Z" fill="#F2F2F2"/>
<path d="M1330.85 32.371C1336.62 30.9392 1338.25 26.3859 1337.52 20.8589C1332.24 22.8761 1330.04 26.6984 1330.85 32.371Z" fill="#F2F2F2"/>
<path d="M1379.37 32.371C1385.13 30.9392 1386.77 26.3859 1386.03 20.8589C1380.75 22.8761 1378.56 26.6984 1379.37 32.371Z" fill="#F2F2F2"/>
<path d="M1321.75 32.3776C1322.54 26.3318 1320.78 22.9647 1315.09 20.8625C1314.44 26.4501 1316.43 30.421 1321.75 32.3776Z" fill="#F2F2F2"/>
<path d="M1370.26 32.3776C1371.05 26.3318 1369.29 22.9647 1363.6 20.8625C1362.95 26.4501 1364.94 30.421 1370.26 32.3776Z" fill="#F2F2F2"/>
</g>
<g clip-path="url(#clip18_6027_16694)">
<path d="M1414.74 17.7359C1415.85 14.9882 1418.84 13.1499 1421.16 15.6038L1417.31 17.7402C1418.82 19.8895 1421.28 16.9294 1421.59 16.9251C1421.97 16.9186 1426.19 21.4081 1426.86 22.2532C1429.35 25.4214 1427.33 26.0027 1427.01 29.1044C1426.7 32.1074 1428.07 35.3313 1430.17 37.4591C1431.45 35.5866 1432.69 33.5424 1432.95 31.2494C1433.2 28.9671 1431.42 25.0697 1431.67 24.1773C1432.07 22.7209 1436.87 17.3327 1438.43 17.0989C1439.22 16.9809 1440.79 19.0851 1442.38 18.388C1442.29 16.1787 1440.01 16.3824 1438.74 15.1727C1441.81 13.5789 1444 15.0525 1445.16 18.1756C1447.06 15.5845 1446.66 11.7513 1443.67 10.2005C1437.74 7.11815 1435.29 17.5879 1432.88 20.9662C1432.52 21.4725 1431.65 22.8839 1431.03 22.0366C1436.36 15.4129 1435.39 7.80887 1430.16 1.46183C1425.98 5.90626 1424.08 11.6591 1426.36 17.53C1427.36 20.1125 1428.72 23.9414 1431.88 22.886L1429.73 25.0289C1428.89 25.164 1423.17 11.9487 1420.98 10.2541C1417.42 7.5064 1410.93 13.714 1414.73 17.7359H1414.74Z" fill="#F2F2F2"/>
<path d="M1405.12 14.2096C1400.78 19.5091 1400.58 26.5316 1405.12 31.7583C1409.73 27.1535 1409.73 18.8144 1405.12 14.2096Z" fill="#F2F2F2"/>
<path d="M1409.67 32.371C1415.44 30.9392 1417.07 26.3859 1416.33 20.8589C1411.05 22.8761 1408.86 26.6984 1409.67 32.371Z" fill="#F2F2F2"/>
<path d="M1400.56 32.3776C1401.36 26.3318 1399.6 22.9647 1393.9 20.8625C1393.26 26.4501 1395.24 30.421 1400.56 32.3776Z" fill="#F2F2F2"/>
</g>
<defs>
<clipPath id="clip0_6027_16694">
<rect width="71.5556" height="28" fill="white" transform="translate(-25.1108)"/>
</clipPath>
<clipPath id="clip1_6027_16694">
<rect width="71.5556" height="28" fill="white" transform="translate(53.7039)"/>
</clipPath>
<clipPath id="clip2_6027_16694">
<rect width="71.5556" height="28" fill="white" transform="translate(132.519)"/>
</clipPath>
<clipPath id="clip3_6027_16694">
<rect width="71.5556" height="28" fill="white" transform="translate(211.333)"/>
</clipPath>
<clipPath id="clip4_6027_16694">
<rect width="71.5556" height="28" fill="white" transform="translate(290.148)"/>
</clipPath>
<clipPath id="clip5_6027_16694">
<rect width="71.5556" height="28" fill="white" transform="translate(368.963)"/>
</clipPath>
<clipPath id="clip6_6027_16694">
<rect width="71.5556" height="28" fill="white" transform="translate(447.778)"/>
</clipPath>
<clipPath id="clip7_6027_16694">
<rect width="71.5556" height="28" fill="white" transform="translate(526.593)"/>
</clipPath>
<clipPath id="clip8_6027_16694">
<rect width="71.5556" height="28" fill="white" transform="translate(605.408)"/>
</clipPath>
<clipPath id="clip9_6027_16694">
<rect width="71.5556" height="28" fill="white" transform="translate(684.222)"/>
</clipPath>
<clipPath id="clip10_6027_16694">
<rect width="71.5556" height="28" fill="white" transform="translate(763.037)"/>
</clipPath>
<clipPath id="clip11_6027_16694">
<rect width="71.5556" height="28" fill="white" transform="translate(841.852)"/>
</clipPath>
<clipPath id="clip12_6027_16694">
<rect width="71.5556" height="28" fill="white" transform="translate(920.667)"/>
</clipPath>
<clipPath id="clip13_6027_16694">
<rect width="71.5556" height="28" fill="white" transform="translate(999.482)"/>
</clipPath>
<clipPath id="clip14_6027_16694">
<rect width="71.5556" height="28" fill="white" transform="translate(1078.3)"/>
</clipPath>
<clipPath id="clip15_6027_16694">
<rect width="71.5556" height="28" fill="white" transform="translate(1157.11)"/>
</clipPath>
<clipPath id="clip16_6027_16694">
<rect width="71.5556" height="28" fill="white" transform="translate(1235.93)"/>
</clipPath>
<clipPath id="clip17_6027_16694">
<rect width="71.5556" height="28" fill="white" transform="translate(1314.74)"/>
</clipPath>
<clipPath id="clip18_6027_16694">
<rect width="71.5556" height="28" fill="white" transform="translate(1393.56)"/>
</clipPath>
</defs>
</svg>
